<?xml version="1.0" encoding="utf-8"?><svg xmlns="http://www.w3.org/2000/svg" xmlns:xlink="http://www.w3.org/1999/xlink"><symbol fill="none" viewBox="0 0 10 6" id="ArrowUp" xmlns="http://www.w3.org/2000/svg"><path fill-rule="evenodd" clip-rule="evenodd" d="M9.862 5.13a.5.5 0 01-.707.018L5 1.19.845 5.148a.5.5 0 11-.69-.724l4.5-4.286a.5.5 0 01.69 0l4.5 4.286a.5.5 0 01.017.707z" fill="#fff"/></symbol><symbol fill="none" viewBox="0 0 5 5" id="SliderDrag" xmlns="http://www.w3.org/2000/svg"><path stroke="#FAFAFA" stroke-opacity=".4" stroke-width=".5" d="M4.25 0v5M2.25 0v5M.25 0v5"/></symbol><symbol fill="none" viewBox="0 0 435 443" id="Union" xmlns="http://www.w3.org/2000/svg"><path fill-rule="evenodd" clip-rule="evenodd" d="M218.002 0c58.149.133 112.488 23.315 153.587 64.436C412.172 106.32 435 161.735 435 221.016c0 59.281-22.194 114.697-63.411 156.58-41.217 41.239-95.751 64.436-154.089 64.436H0V221.016h19.023c0 111.475 88.776 202.33 199.111 202.33 109.067 0 198.477-90.855 198.477-202.33 0-111.474-89.41-201.928-199.111-201.928H0V0h218.002z" fill="#fff" fill-opacity=".3"/><path opacity=".2" d="M218 35c-98.401 0-178 80.716-178 180.5h18.803c0-88.979 71.45-161.433 159.197-161.433 87.746 0 159.197 72.454 159.197 161.433S305.746 376.933 218 376.933V396c98.401 0 178-80.717 178-180.5C396 115.716 316.401 35 218 35z" fill="#fff"/><path opacity=".2" d="M338.2 218.5c0 68.88-55.147 124.367-122.2 124.367-67.68 0-122.2-56.125-122.2-124.367 0-68.88 55.147-124.367 122.2-124.367V75c-77.707 0-141 64.416-141 143.5S138.293 362 216 362s141-64.416 141-143.5h-18.8z" fill="#FAFAFA"/></symbol><symbol fill="none" viewBox="0 0 10 6" id="arrowDown" xmlns="http://www.w3.org/2000/svg"><path fill-rule="evenodd" clip-rule="evenodd" d="M.138.155A.5.5 0 01.845.138L5 4.095 9.155.138a.5.5 0 01.69.724l-4.5 4.286a.5.5 0 01-.69 0L.155.862A.5.5 0 01.138.155z" fill="#AE8962"/></symbol><symbol fill="none" viewBox="0 0 17 9" id="arrowToggle" xmlns="http://www.w3.org/2000/svg"><path d="M16 1L8.5 8 1 1" stroke="#9E6B36" stroke-linecap="round" stroke-linejoin="round"/></symbol><symbol fill="none" viewBox="0 0 17 9" id="arrowToggle2" xmlns="http://www.w3.org/2000/svg"><path d="M16 1L8.5 8 1 1" stroke="#fff" stroke-linecap="round" stroke-linejoin="round"/></symbol><symbol fill="none" viewBox="0 0 17 9" id="arrowToggleDown" xmlns="http://www.w3.org/2000/svg"><path d="M1 8l7.5-7L16 8" stroke="#000" stroke-opacity=".38" stroke-linecap="round" stroke-linejoin="round"/></symbol><symbol viewBox="0 0 60 10" id="blockquote" xmlns="http://www.w3.org/2000/svg"><path fill="#fff" d="M0 0h10v10H0zM25 0h10v10H25zM50 0h10v10H50z"/></symbol><symbol fill="none" viewBox="0 0 11 7" id="checked" xmlns="http://www.w3.org/2000/svg"><path d="M.64 3.85a.362.362 0 01-.115-.245c0-.07.039-.175.116-.245l.538-.49a.398.398 0 01.539 0l.038.035L3.872 4.97c.076.07.192.07.269 0L9.295.105h.038a.398.398 0 01.539 0l.538.49c.154.14.154.35 0 .49l-6.154 5.81a.366.366 0 01-.27.105.366.366 0 01-.268-.105l-3-2.94L.64 3.85z" fill="#000" fill-opacity=".12"/></symbol><symbol fill="none" viewBox="0 0 19 19" id="city" xmlns="http://www.w3.org/2000/svg"><path d="M5.488 5.381c-2.147 2.088-2.168 5.542-.047 7.723l.41-.398c-1.89-1.946-1.872-5.046.043-6.908 1.914-1.862 5.014-1.794 6.905.151 1.892 1.946 1.873 5.046-.041 6.908l.405.416c2.147-2.088 2.168-5.541.047-7.723-2.122-2.181-5.574-2.257-7.722-.169z" fill="#9E6B36"/><path d="M11.992 6.734c1.46 1.5 1.432 3.88-.032 5.303-1.477 1.436-3.856 1.37-5.301-.116-1.46-1.5-1.432-3.88.032-5.303l-.406-.417c-1.695 1.65-1.712 4.396-.037 6.119 1.676 1.723 4.422 1.783 6.118.134 1.695-1.65 1.712-4.396.037-6.119l-.41.4z" fill="#9E6B36"/><path d="M9.366 2.72A6.518 6.518 0 004.69 4.561l.405.417c2.366-2.301 6.186-2.231 8.524.173 2.337 2.403 2.314 6.238-.038 8.525-2.38 2.314-6.2 2.217-8.537-.187l-.41.4 4.634 4.765 4.69-4.562a6.518 6.518 0 001.973-4.62c.01-1.768-.673-3.429-1.915-4.707a6.73 6.73 0 00-4.651-2.047z" fill="#9E6B36"/></symbol><symbol fill="none" viewBox="0 0 20 20" id="close" xmlns="http://www.w3.org/2000/svg"><path d="M5.333 5.333l13.334 13.334M18.667 5.333L5.333 18.667" stroke="#A8A8A8" stroke-linecap="round" stroke-linejoin="round"/></symbol><symbol fill="none" viewBox="0 0 60 60" id="coal" xmlns="http://www.w3.org/2000/svg"><g clip-path="url(#alclip0)" fill="currentColor"><path d="M18.314 46.64a2.9 2.9 0 00-2.896 2.896 2.9 2.9 0 002.896 2.896 2.9 2.9 0 002.896-2.896 2.9 2.9 0 00-2.896-2.896zm0 4.034a1.14 1.14 0 01-1.138-1.138c0-.628.51-1.138 1.138-1.138a1.14 1.14 0 010 2.276zM41.574 52.432a2.9 2.9 0 002.896-2.896 2.9 2.9 0 00-2.896-2.896 2.9 2.9 0 00-2.896 2.896 2.9 2.9 0 002.896 2.896zm0-4.034a1.14 1.14 0 010 2.276 1.14 1.14 0 01-1.139-1.138c0-.628.511-1.138 1.139-1.138z"/><path d="M56.813 53.626H45.748a5.827 5.827 0 001.674-4.09 5.83 5.83 0 00-1.782-4.197c3.09-2.244 5.15-4.572 6.149-5.828a4.993 4.993 0 00.922-1.855c.212-.827.407-1.676.579-2.524a.879.879 0 10-1.723-.35c-.166.82-.354 1.64-.559 2.439a3.22 3.22 0 01-.595 1.196c-.994 1.249-3.104 3.624-6.301 5.851a5.84 5.84 0 00-7.176 1.714H22.954a5.84 5.84 0 00-7.176-1.714c-3.198-2.228-5.307-4.602-6.3-5.852a3.178 3.178 0 01-.597-1.196c-1.744-6.816-1.666-12.81-1.567-14.91h45.263c.07 1.47.131 4.847-.437 9.063a.879.879 0 101.742.235c.58-4.308.532-7.714.457-9.297h.582a2.66 2.66 0 002.658-2.658V18.63a2.66 2.66 0 00-2.658-2.657h-1.953l-4.29-9.915a.879.879 0 00-1.13-.468L42.94 7.405 37.425 1.89a.879.879 0 00-.974-.184l-4.568 1.998L26.039.13a.879.879 0 00-1.166.229L19.81 7.225 14.506 5.27a.879.879 0 00-1.05.36l-2.427 3.896a.879.879 0 001.492.93l1.201-1.929 1.264 7.445H9.082l1.579-2.533a.879.879 0 10-1.492-.93l-2.158 3.463H4.968a2.66 2.66 0 00-2.657 2.657v1.025a2.66 2.66 0 002.657 2.657h.583c-.11 2.282-.169 8.326 1.627 15.346.176.68.486 1.305.924 1.854.999 1.256 3.058 3.583 6.148 5.828a5.83 5.83 0 00-1.782 4.197c0 1.59.64 3.035 1.673 4.09H3.188a3.19 3.19 0 00-3.187 3.187A3.19 3.19 0 003.188 60h53.626A3.19 3.19 0 0060 56.813a3.19 3.19 0 00-3.188-3.187zM28.133 8.382l-1.25-5.676 3.673 2.246-2.423 3.43zM26.634 9.75l-3.61.409-1.764-1.94 3.879-5.26 1.495 6.79zm-3.456 2.16l4.623-.523a.879.879 0 00.617-.363s0-.002.002-.003l3.972-5.623 2.978-1.302-2.463 7.653a.88.88 0 00.704 1.138l6.215.952-.774 2.132H20.435l2.743-4.06zm17.26.245l-5.541-.85L37.2 4.15l4.51 4.511-1.271 3.496zm2.98-3.05l3.294-1.298-1.538 8.164h-4.252l2.495-6.865zm4.785.282l2.85 6.584h-4.09l1.24-6.584zM15.322 7.445l4.298 1.584 1.942 2.135-3.25 4.808h-1.544l-1.446-8.527zM4.069 19.654v-1.025a.9.9 0 01.9-.9h49.953a.9.9 0 01.899.9v1.024a.9.9 0 01-.9.9H4.968a.9.9 0 01-.899-.9zm37.505 25.792a4.094 4.094 0 014.09 4.09 4.094 4.094 0 01-4.09 4.09 4.094 4.094 0 01-4.09-4.09 4.094 4.094 0 014.09-4.09zm-5.563 2.294a5.827 5.827 0 001.39 5.886H22.488a5.827 5.827 0 001.39-5.886H36.01zm-21.786 1.796a4.094 4.094 0 014.09-4.09 4.094 4.094 0 014.09 4.09 4.094 4.094 0 01-4.09 4.09 4.094 4.094 0 01-4.09-4.09zm42.588 8.706H3.188a1.43 1.43 0 01-1.43-1.43c0-.787.642-1.428 1.43-1.428h53.626c.788 0 1.429.64 1.429 1.429a1.43 1.43 0 01-1.43 1.43z"/></g><defs><clipPath id="alclip0"><path fill="#fff" d="M0 0h60v60H0z"/></clipPath></defs></symbol><symbol fill="none" viewBox="0 0 56 55" id="coal-factory" xmlns="http://www.w3.org/2000/svg"><g clip-path="url(#amclip0)" fill="currentColor"><path d="M55.067 32.083H53.2V22a.925.925 0 00-.933-.917h-3.734a.942.942 0 00-.697.307l-6.77 7.477V22a.925.925 0 00-.933-.917h-2.8a.944.944 0 00-.633.243l-10.532 9.55-2.817-17.999.888-3.483a.905.905 0 00-.167-.79.94.94 0 00-.739-.354H14a.94.94 0 00-.736.353.905.905 0 00-.17.787l.887 3.483L11.23 30l-.127.092-1.352-.667a.947.947 0 00-.933.058l-.97.635-3.927-.766a.938.938 0 00-1.018.488l-.934 1.834a.901.901 0 000 .819l1.188 2.34H2.8a.94.94 0 00-.697.308.907.907 0 00-.23.716L3.74 51.441c.055.461.454.809.927.809h1.066c.088.322.222.63.395.917H0V55h55.067c.515 0 .933-.41.933-.917V33a.925.925 0 00-.933-.917zm-6.114-9.166h2.38v2.75h-4.871l2.49-2.75zm-7.886 8.708L44.8 27.5h6.533v4.583H41.067v-.458zm-3.369-8.708H39.2v2.75h-4.535l3.033-2.75zm-5.031 4.561v.022H39.2v4.583H27.588l5.079-4.605zm-6.968 6.439h6.968v8.25H25.37l.756-6.31a.907.907 0 00-.23-.716.94.94 0 00-.697-.308h-.123l.622-.916zm.434 19.25h-4.261c.173-.287.306-.595.395-.917h1.066a.928.928 0 00.927-.81l.892-7.44h.981v9.167zM16.8 51.333c0-1.012.836-1.833 1.867-1.833 1.03 0 1.866.82 1.866 1.833s-.835 1.834-1.866 1.834c-1.031 0-1.867-.821-1.867-1.834zm5.338-41.25l-.467 1.834h-6.009l-.467-1.834h6.943zM15.73 13.75h1.07v1.833h1.867V13.75h.933v3.667h1.867V13.75h.132l2.668 17.036-1.206-1.184a.946.946 0 00-1.14-.137l-2.377 1.4-4.026-3.164a.947.947 0 00-1.145-.018l-1.001.734L15.73 13.75zM24 33.116l-1.165 1.717H19.34l-.486-1.425 3.4-2.004 1.745 1.712zm-9.084-3.54l2.92 2.292-.582.344a.91.91 0 00-.406 1.075l.524 1.546H14v-2.75a.915.915 0 00-.516-.825l-.516-.252 1.947-1.43zm-7.448 2.998L9.4 31.308l2.733 1.342v2.183H7.467v-2.26zM4.25 31.29l1.51.297a.896.896 0 00-.16.496v2.75h-.356l-1.4-2.75.406-.793zm-.4 5.377h20.3l-.22 1.833H4.07l-.22-1.833zm1.647 13.75L4.293 40.333h19.423l-1.213 10.084h-.236c-.418-1.617-1.901-2.75-3.6-2.75-1.7 0-3.182 1.133-3.601 2.75h-2.132c-.419-1.617-1.902-2.75-3.6-2.75-1.7 0-3.183 1.133-3.601 2.75h-.236zm9.964 2.75H12.54c.173-.287.306-.595.395-.917h2.132c.089.322.222.63.395.917zm-7.994-1.834c0-1.012.835-1.833 1.866-1.833 1.031 0 1.867.82 1.867 1.833s-.836 1.834-1.867 1.834c-1.03 0-1.866-.821-1.866-1.834zM28 53.167V44h4.667v1.833H30.8v1.834h1.867V49.5H30.8v1.833h1.867v1.834H28zm18.667 0H42v-5.5h4.667v5.5zm7.466 0h-5.6V46.75a.925.925 0 00-.933-.917h-6.533a.925.925 0 00-.934.917v6.417h-5.6v-19.25h19.6v19.25z"/><path d="M41.067 35.75h-3.734a.925.925 0 00-.933.917v3.666c0 .507.418.917.933.917h3.734c.515 0 .933-.41.933-.917v-3.666a.925.925 0 00-.933-.917zm-.934 3.667h-1.866v-1.834h1.866v1.834zM47.6 41.25h3.733c.516 0 .934-.41.934-.917v-3.666a.925.925 0 00-.934-.917H47.6a.925.925 0 00-.933.917v3.666c0 .507.418.917.933.917zm.933-3.667H50.4v1.834h-1.867v-1.834zM42.933 49.5H44.8v1.833h-1.867V49.5zM19.6 5.5v1.833h1.867v-.916h1.866c.516 0 .934-.41.934-.917V3.667H22.4v.916h-1.867a.925.925 0 00-.933.917zM17.733 5.5V3.667H19.6c.515 0 .933-.41.933-.917V0h-1.866v1.833H16.8a.925.925 0 00-.933.917v4.583h1.866V5.5zM22.4 0h1.867v1.833H22.4V0z"/></g><defs><clipPath id="amclip0"><path fill="#fff" d="M0 0h56v55H0z"/></clipPath></defs></symbol><symbol fill="#fff" viewBox="0 0 60 60" id="coal2" xmlns="http://www.w3.org/2000/svg"><g clip-path="url(#anclip0)"><path d="M18.314 46.64a2.9 2.9 0 00-2.896 2.896 2.9 2.9 0 002.896 2.896 2.9 2.9 0 002.896-2.896 2.9 2.9 0 00-2.896-2.896zm0 4.034a1.14 1.14 0 01-1.138-1.138c0-.628.51-1.138 1.138-1.138a1.14 1.14 0 010 2.276zM41.574 52.432a2.9 2.9 0 002.896-2.896 2.9 2.9 0 00-2.896-2.896 2.9 2.9 0 00-2.896 2.896 2.9 2.9 0 002.896 2.896zm0-4.034a1.14 1.14 0 010 2.276 1.14 1.14 0 01-1.139-1.138c0-.628.511-1.138 1.139-1.138z"/><path d="M56.813 53.626H45.748a5.827 5.827 0 001.674-4.09 5.83 5.83 0 00-1.782-4.197c3.09-2.244 5.15-4.572 6.149-5.828a4.993 4.993 0 00.922-1.855c.212-.827.407-1.676.579-2.524a.879.879 0 10-1.723-.35c-.166.82-.354 1.64-.559 2.439a3.22 3.22 0 01-.595 1.196c-.994 1.249-3.104 3.624-6.301 5.851a5.84 5.84 0 00-7.176 1.714H22.954a5.84 5.84 0 00-7.176-1.714c-3.198-2.228-5.307-4.602-6.3-5.852a3.178 3.178 0 01-.597-1.196c-1.744-6.816-1.666-12.81-1.567-14.91h45.263c.07 1.47.131 4.847-.437 9.063a.879.879 0 101.742.235c.58-4.308.532-7.714.457-9.297h.582a2.66 2.66 0 002.658-2.658V18.63a2.66 2.66 0 00-2.658-2.657h-1.953l-4.29-9.915a.879.879 0 00-1.13-.468L42.94 7.405 37.425 1.89a.879.879 0 00-.974-.184l-4.568 1.998L26.039.13a.879.879 0 00-1.166.229L19.81 7.225 14.506 5.27a.879.879 0 00-1.05.36l-2.427 3.896a.879.879 0 001.492.93l1.201-1.929 1.264 7.445H9.082l1.579-2.533a.879.879 0 10-1.492-.93l-2.158 3.463H4.968a2.66 2.66 0 00-2.657 2.657v1.025a2.66 2.66 0 002.657 2.657h.583c-.11 2.282-.169 8.326 1.627 15.346.176.68.486 1.305.924 1.854.999 1.256 3.058 3.583 6.148 5.828a5.83 5.83 0 00-1.782 4.197c0 1.59.64 3.035 1.673 4.09H3.188a3.19 3.19 0 00-3.187 3.187A3.19 3.19 0 003.188 60h53.626A3.19 3.19 0 0060 56.813a3.19 3.19 0 00-3.188-3.187zM28.133 8.382l-1.25-5.676 3.673 2.246-2.423 3.43zM26.634 9.75l-3.61.409-1.764-1.94 3.879-5.26 1.495 6.79zm-3.456 2.16l4.623-.523a.879.879 0 00.617-.363s0-.002.002-.003l3.972-5.623 2.978-1.302-2.463 7.653a.88.88 0 00.704 1.138l6.215.952-.774 2.132H20.435l2.743-4.06zm17.26.245l-5.541-.85L37.2 4.15l4.51 4.511-1.271 3.496zm2.98-3.05l3.294-1.298-1.538 8.164h-4.252l2.495-6.865zm4.785.282l2.85 6.584h-4.09l1.24-6.584zM15.322 7.445l4.298 1.584 1.942 2.135-3.25 4.808h-1.544l-1.446-8.527zM4.069 19.654v-1.025a.9.9 0 01.9-.9h49.953a.9.9 0 01.899.9v1.024a.9.9 0 01-.9.9H4.968a.9.9 0 01-.899-.9zm37.505 25.792a4.094 4.094 0 014.09 4.09 4.094 4.094 0 01-4.09 4.09 4.094 4.094 0 01-4.09-4.09 4.094 4.094 0 014.09-4.09zm-5.563 2.294a5.827 5.827 0 001.39 5.886H22.488a5.827 5.827 0 001.39-5.886H36.01zm-21.786 1.796a4.094 4.094 0 014.09-4.09 4.094 4.094 0 014.09 4.09 4.094 4.094 0 01-4.09 4.09 4.094 4.094 0 01-4.09-4.09zm42.588 8.706H3.188a1.43 1.43 0 01-1.43-1.43c0-.787.642-1.428 1.43-1.428h53.626c.788 0 1.429.64 1.429 1.429a1.43 1.43 0 01-1.43 1.43z"/></g><defs><clipPath id="anclip0"><path d="M0 0h60v60H0z"/></clipPath></defs></symbol><symbol fill="none" viewBox="0 0 6 12" id="facebook" xmlns="http://www.w3.org/2000/svg"><path d="M3.893 12V6.526h1.77l.262-2.134H3.893V3.029c0-.615.165-1.035 1.02-1.035H6V.086A14.497 14.497 0 004.418 0c-1.568 0-2.64.997-2.64 2.819v1.573H0v2.134h1.77V12h2.123z" fill="#fff"/></symbol><symbol fill="none" viewBox="0 0 20 20" id="info" xmlns="http://www.w3.org/2000/svg"><path d="M10.833 5a.833.833 0 11-1.666 0 .833.833 0 011.666 0zM10 15.833a.625.625 0 01-.625-.625V8.75h-.833a.625.625 0 010-1.25H10c.345 0 .625.28.625.625v7.083c0 .345-.28.625-.625.625z" fill="#fff"/><path d="M10 20C4.486 20 0 15.514 0 10S4.486 0 10 0s10 4.486 10 10-4.486 10-10 10zm0-18.75c-4.825 0-8.75 3.925-8.75 8.75s3.925 8.75 8.75 8.75 8.75-3.925 8.75-8.75S14.825 1.25 10 1.25z" fill="#fff"/><path d="M11.875 15.833h-3.75a.625.625 0 010-1.25h3.75a.625.625 0 010 1.25z" fill="#fff"/></symbol><symbol fill="none" viewBox="0 0 20 20" id="infoNew" xmlns="http://www.w3.org/2000/svg"><path d="M10.833 5a.833.833 0 11-1.666 0 .833.833 0 011.666 0zM10 15.833a.625.625 0 01-.625-.625V8.75h-.833a.625.625 0 010-1.25H10c.345 0 .625.28.625.625v7.083c0 .345-.28.625-.625.625z" fill="#fff"/><path d="M10 20C4.486 20 0 15.514 0 10S4.486 0 10 0s10 4.486 10 10-4.486 10-10 10zm0-18.75c-4.825 0-8.75 3.925-8.75 8.75s3.925 8.75 8.75 8.75 8.75-3.925 8.75-8.75S14.825 1.25 10 1.25z" fill="#fff"/><path d="M11.875 15.833h-3.75a.625.625 0 010-1.25h3.75a.625.625 0 010 1.25z" fill="#fff"/></symbol><symbol fill="none" viewBox="0 0 10 10" id="instagram" xmlns="http://www.w3.org/2000/svg"><path d="M4.73.859c1.267 0 1.413.007 1.915.029.459.022.713.095.88.16.22.087.38.19.547.357.167.167.269.32.356.546.066.167.146.414.16.88.022.502.03.648.03 1.914 0 1.267-.008 1.412-.03 1.915-.021.458-.094.713-.16.88-.087.219-.189.379-.356.546-.168.168-.32.27-.546.357-.168.065-.415.145-.88.16-.503.022-.649.03-1.915.03-1.267 0-1.412-.008-1.914-.03-.459-.022-.714-.095-.881-.16a1.511 1.511 0 01-.546-.357 1.452 1.452 0 01-.356-.546c-.066-.167-.146-.415-.16-.88-.022-.503-.03-.648-.03-1.915 0-1.266.008-1.412.03-1.914.021-.458.094-.713.16-.88.087-.219.189-.379.356-.546.168-.168.32-.27.546-.357.167-.065.415-.145.88-.16.503-.03.656-.03 1.915-.03zm0-.859C3.444 0 3.284.007 2.78.03 2.278.05 1.93.13 1.63.246a2.342 2.342 0 00-.837.546 2.342 2.342 0 00-.546.837C.131 1.93.051 2.278.03 2.78.007 3.283 0 3.45 0 4.73c0 1.29.007 1.45.03 1.951.021.503.101.852.217 1.15.124.313.284.575.546.837.262.263.524.423.837.546.299.117.648.197 1.15.219.503.022.67.029 1.95.029 1.29 0 1.45-.007 1.951-.03.503-.021.852-.101 1.15-.218.313-.123.575-.284.837-.546.263-.262.423-.524.546-.837.117-.298.197-.647.219-1.15.022-.502.029-.67.029-1.95 0-1.288-.007-1.448-.03-1.95-.021-.503-.101-.852-.218-1.15a2.342 2.342 0 00-.546-.838 2.342 2.342 0 00-.837-.546C7.533.131 7.184.051 6.681.03 6.18.007 6.02 0 4.731 0z" fill="#fff"/><path d="M4.73 2.307a2.43 2.43 0 102.432 2.431 2.426 2.426 0 00-2.431-2.43zm0 4.01c-.873 0-1.579-.706-1.579-1.579s.706-1.58 1.58-1.58c.873 0 1.58.707 1.58 1.58 0 .873-.707 1.58-1.58 1.58zM7.264 2.78a.568.568 0 100-1.135.568.568 0 000 1.135z" fill="#fff"/></symbol><symbol fill="none" viewBox="0 0 135 103" id="likeBlockquote" xmlns="http://www.w3.org/2000/svg"><path d="M134.631 72.358c0 8.738-2.951 16.06-8.852 21.966-5.902 5.784-13.34 8.676-22.316 8.676-8.975 0-16.475-2.892-22.5-8.676-5.901-5.906-8.852-13.228-8.852-21.966 0-4.676 1.106-9.414 3.32-14.213L102.54 0H135l-19.918 43.747c5.902 2.215 10.635 5.907 14.201 11.076 3.565 5.045 5.348 10.89 5.348 17.535zm-72.11 0c0 8.738-2.951 16.06-8.853 21.966-5.902 5.784-13.34 8.676-22.316 8.676-8.975 0-16.475-2.892-22.5-8.676C2.951 88.418 0 81.096 0 72.358c0-4.676 1.107-9.414 3.32-14.213L30.43 0h32.46L42.97 43.747c5.902 2.215 10.636 5.907 14.201 11.076 3.566 5.045 5.349 10.89 5.349 17.535z" fill="#B1987D"/></symbol><symbol fill="none" viewBox="0 0 328 60" id="logo" xmlns="http://www.w3.org/2000/svg"><g clip-path="url(#atclip0)"><path d="M72.461 0v34.788h-2.308l-.064-5.277c-1.41 3.323-4.36 5.733-8.529 5.733-3.463 0-6.092-1.433-8.08-4.104-2.244-2.997-2.565-6.254-2.565-8.86 0-2.54.321-5.863 2.565-8.86 2.373-3.257 5.451-4.104 8.08-4.104 3.527 0 6.862 1.759 8.529 5.668V0h2.372zm-4.168 15.049c-1.218-1.824-3.27-3.453-6.54-3.453-3.72 0-5.644 2.15-6.541 3.453-1.732 2.606-1.796 6.189-1.796 7.231 0 2.41.513 5.342 1.732 7.231.897 1.369 2.95 3.453 6.605 3.453 2.95 0 4.937-1.172 6.476-3.583 1.475-2.215 1.924-4.495 1.924-7.166 0-1.824-.257-4.756-1.86-7.166zM82.593 9.902l.129 5.147c1.667-3.844 5.065-5.668 8.528-5.668 2.565 0 5.643.847 8.08 4.104 2.244 2.997 2.565 6.32 2.565 8.86 0 2.606-.321 5.864-2.565 8.86-1.924 2.606-4.617 4.104-8.08 4.104-4.232 0-7.118-2.41-8.528-5.732v15.179h-2.373V9.902h2.244zm1.924 19.544c1.539 2.41 3.591 3.583 6.477 3.583 3.655 0 5.643-2.084 6.605-3.453 1.282-1.954 1.73-4.886 1.73-7.23 0-1.108-.127-4.626-1.795-7.232-.897-1.368-2.821-3.453-6.54-3.453-3.27 0-5.323 1.629-6.541 3.453-1.603 2.41-1.86 5.342-1.86 7.231 0 2.606.45 4.886 1.924 7.101zM111.193 9.902l.064 4.69c.641-1.758 1.667-2.996 2.693-3.778a6.926 6.926 0 014.233-1.433c.962 0 1.988.26 2.821.521v2.41c-.898-.455-1.731-.65-2.821-.65-2.565 0-4.233 1.172-5.451 3.126-1.539 2.606-1.603 5.668-1.603 7.818v12.182h-2.437V9.902h2.501zM127.353 13.746c1.539-2.215 4.232-4.495 8.528-4.495 5.002 0 7.631 3.062 8.593 4.495 1.475 2.085 2.373 4.886 2.373 8.6 0 3.191-.642 5.993-2.437 8.599-1.539 2.15-4.168 4.495-8.529 4.495-4.296 0-7.054-2.346-8.528-4.495-1.988-2.867-2.373-6.124-2.373-8.6 0-2.475.385-5.733 2.373-8.6zm1.731 15.374c1.988 3.453 4.874 4.105 6.861 4.105 1.988 0 4.874-.652 6.862-4.105 1.282-2.215 1.539-4.82 1.539-6.84 0-2.02-.321-4.625-1.539-6.84-1.988-3.453-4.81-4.105-6.862-4.105-2.052 0-4.873.652-6.861 4.105-1.283 2.215-1.539 4.82-1.539 6.84 0 2.085.256 4.625 1.539 6.84zM156.209 9.902l.128 4.43c.834-1.89 2.052-2.931 2.565-3.387 1.283-1.043 2.822-1.564 4.617-1.63 3.399-.064 6.092 2.02 6.861 5.278.898-2.215 3.078-5.212 7.503-5.277 3.783-.065 5.771 1.759 6.797 3.518 1.411 2.41 1.283 5.472 1.283 7.427v14.527h-2.437V20.195c0-2.605-.192-4.56-.962-5.928-.898-1.563-2.757-2.671-5.13-2.606-2.757.13-4.232 1.76-4.873 2.606-1.347 1.954-1.411 4.3-1.411 5.928v14.593h-2.437V20.195c0-3.061-.128-4.69-.769-5.928-.513-1.107-1.732-2.671-4.489-2.606-1.988.065-4.104.912-5.515 3.192-1.475 2.28-1.603 5.277-1.603 7.688v12.247H153.9V9.902h2.309zM196.095 31.01v3.778h-2.822V31.01h2.822z" fill="#000"/><path d="M205.329 13.746c1.539-2.215 4.232-4.495 8.528-4.495 5.002 0 7.631 3.062 8.593 4.495 1.475 2.085 2.373 4.886 2.373 8.6 0 3.191-.642 5.993-2.437 8.599-1.539 2.15-4.168 4.495-8.529 4.495-4.296 0-7.053-2.346-8.528-4.495-1.988-2.867-2.373-6.124-2.373-8.6 0-2.475.385-5.733 2.373-8.6zm1.731 15.374c1.924 3.453 4.809 4.105 6.861 4.105 1.988 0 4.874-.652 6.862-4.105 1.282-2.215 1.539-4.82 1.539-6.84 0-2.02-.321-4.625-1.539-6.84-1.988-3.453-4.81-4.105-6.862-4.105-1.987 0-4.873.652-6.861 4.105-1.282 2.215-1.539 4.82-1.539 6.84-.064 2.085.257 4.625 1.539 6.84zM234.121 9.902l.128 4.69c.834-1.563 1.988-2.866 3.206-3.647 1.539-1.108 3.335-1.564 5.259-1.564 3.975 0 5.899 2.02 6.797 3.388 1.475 2.28 1.347 4.886 1.347 7.1v14.854h-2.565V19.935c0-2.15.064-4.17-.834-5.668-.706-1.172-2.18-2.606-5.066-2.606-2.116 0-4.617.717-6.413 3.192-1.795 2.41-1.859 5.017-1.859 7.688v12.247h-2.437V9.902h2.437zM261.118 0v34.788h-2.437V0h2.437zM272.532 0v3.974h-2.629V0h2.629zm-.064 9.902v24.821h-2.437V9.903h2.437zM283.305 9.902l.128 4.69c.834-1.563 1.988-2.866 3.206-3.647 1.539-1.108 3.335-1.564 5.259-1.564 3.975 0 5.899 2.02 6.797 3.388 1.475 2.28 1.346 4.886 1.346 7.1v14.854h-2.565V19.935c0-2.15.065-4.17-.833-5.668-.706-1.172-2.18-2.606-5.066-2.606-2.116 0-4.617.717-6.413 3.192-1.795 2.41-1.859 5.017-1.859 7.688v12.247h-2.437V9.902h2.437zM327.679 26.905c-.32 2.15-1.346 4.04-2.565 5.408-1.795 1.954-4.232 3.127-7.63 3.127h-.193c-3.783 0-6.669-1.564-8.593-4.365-1.859-2.671-2.308-5.928-2.308-8.73 0-2.931.449-6.058 2.373-8.795 2.052-2.996 4.873-4.3 8.528-4.3 4.81 0 7.31 2.411 8.721 4.43 1.924 2.867 2.052 6.06 2.052 8.405v.716h-19.109v.326c0 2.02.449 4.69 1.603 6.58 1.218 2.02 3.335 3.648 6.669 3.648h.192c2.95 0 4.746-1.173 5.836-2.345.705-.717 1.667-2.02 1.924-4.105h2.5zm-17.057-12.117c-.898 1.368-1.667 3.453-1.667 5.798v.196h16.544v-.521c0-1.955-.513-3.974-1.411-5.473-1.09-1.759-3.142-3.518-6.669-3.518h-.128c-3.206 0-5.258 1.368-6.669 3.518z" fill="#9E6B36"/><path d="M30.716 22.15L22.187 11.66c-.064-.065-.128-.13-.192-.13s-.193.065-.193.13l-4.296 5.277c-.128.13-.064.326.064.391.128.13.32.065.385-.065l2.886-3.518-3.72 8.339h-3.59c-.129 0-.193.065-.257.195s0 .196.064.326l8.464 10.423c.065.065.129.13.193.13s.192-.065.192-.13l4.232-5.277c.129-.13.065-.325-.064-.39-.128-.13-.32-.065-.384.065l-2.886 3.518 3.848-8.34h3.59c.129 0 .257-.13.257-.26 0-.065 0-.13-.064-.195zm-8.721-9.642l4.296 9.577h-8.593l4.297-9.577zm-7.888 10.098h3.014l3.72 8.339-6.734-8.34zm7.888 9.576l-4.297-9.51h8.593l-4.296 9.51zm4.938-10.097l-3.72-8.339 6.733 8.339h-3.014z" fill="#000"/><path d="M21.995 3.844c-10.068 0-18.212 8.273-18.212 18.501h1.924c0-9.12 7.31-16.547 16.288-16.547 8.977 0 16.288 7.427 16.288 16.547 0 9.12-7.31 16.548-16.288 16.548v1.954c10.068 0 18.211-8.274 18.211-18.502S32.063 3.844 21.995 3.844z" fill="#000"/><path d="M34.5 22.345c0 7.036-5.644 12.704-12.505 12.704-6.926 0-12.504-5.733-12.504-12.704 0-7.036 5.643-12.703 12.504-12.703V7.687c-7.952 0-14.428 6.58-14.428 14.658s6.476 14.658 14.428 14.658c7.951 0 14.428-6.58 14.428-14.658H34.5z" fill="#9E6B36"/><path d="M37.577 6.515C33.41 2.345 27.894 0 21.995 0v1.954c11.094 0 20.135 9.12 20.135 20.391 0 11.27-9.041 20.456-20.071 20.456-11.158 0-20.135-9.185-20.135-20.456H0v22.346h21.995c5.9 0 11.414-2.346 15.582-6.515 4.169-4.235 6.413-9.837 6.413-15.83a22.62 22.62 0 00-6.413-15.831z" fill="#9E6B36"/><path d="M21.995 0c5.9 0 11.414 2.345 15.582 6.515 4.169 4.234 6.413 9.837 6.413 15.83V0H21.995z" fill="#000"/><path d="M77.912 39.023h-27.06v1.433h27.06v-1.433zM328 39.023H85.094v1.433H328v-1.433z" fill="#9E6B36"/><path d="M5.515 51.857v7.948h-.577v-7.427H.578v7.492H0v-8.013h5.515zM12.697 53.094c.77-1.172 1.86-1.368 2.5-1.368.706 0 1.732.196 2.502 1.368.577.912.705 2.02.705 2.737 0 .716-.064 1.824-.706 2.736-.769 1.172-1.86 1.368-2.5 1.368-.642 0-1.732-.196-2.501-1.368-.577-.912-.706-2.02-.706-2.736 0-.717.065-1.825.706-2.737zm.449 5.212c.577.977 1.474 1.173 2.052 1.173.577 0 1.41-.196 2.052-1.173.513-.782.577-1.759.577-2.41 0-.652-.064-1.629-.577-2.41-.578-.978-1.475-1.173-2.052-1.173-.578 0-1.411.195-2.052 1.172-.513.782-.578 1.76-.578 2.41 0 .587.065 1.564.578 2.411zM26.869 51.857c.705 0 1.474 0 2.18.52.705.522.833 1.304.833 1.89 0 .586-.128 1.303-.833 1.89-.706.52-1.475.52-2.18.52h-1.411v3.128h-.577v-7.948h1.988zm-1.411 4.3h1.475c.513 0 1.218 0 1.667-.391.32-.261.641-.717.641-1.499 0-.912-.385-1.303-.641-1.498-.513-.391-1.219-.391-1.667-.391h-1.475v3.778zM41.233 51.857v.52h-2.566v7.493h-.577v-7.492h-2.5v-.521h5.642zM50.338 51.857l2.822 7.948h-.577l-.898-2.671h-3.591l-.962 2.67h-.577l2.821-7.947h.962zm-2.052 4.82h3.142l-1.539-4.364h-.128l-1.475 4.364zM62.201 51.857l2.758 7.948h-.577l-2.565-7.557h-.129l-2.565 7.557h-.577l2.758-7.948h.897zM81.375 51.857l2.693 7.426v.522h-6.284v-.522l2.693-7.426h.898zm-2.95 7.426h5.066l-2.5-7.035h-.13l-2.436 7.035zM93.174 51.857l2.757 7.948h-.577l-2.565-7.557h-.128l-2.565 7.557h-.577l2.757-7.948h.898zM107.025 59.87h-.577v-3.648h-2.052c-.193 0-.385 0-.641.13-.385.195-.514.456-.578.716l-1.218 2.802h-.641l1.282-2.932c.257-.521.449-.717.77-.912a2.157 2.157 0 01-.77-.39c-.513-.392-.705-.913-.705-1.564v-.066c0-1.042.577-1.563.962-1.758.577-.391 1.346-.391 2.18-.391h1.988v8.013zm-2.437-7.492h-.064c-.449 0-.898 0-1.347.326-.32.26-.641.651-.641 1.303v.065c0 .716.385 1.107.641 1.303.449.325.962.325 1.347.325H106.448v-3.322h-1.86zM121.774 51.857v3.518h4.36v-3.518h.577v7.948h-.577V55.83h-4.36v3.974h-.577v-7.948h.577zM138.126 51.857v.52h-4.169v2.998h4.04v.52h-4.04v3.388h4.297v.522h-4.874v-7.948h4.746zM147.68 51.857l2.693 7.426v.522h-6.284v-.522l2.693-7.426h.898zm-3.014 7.426h5.066l-2.501-7.035h-.128l-2.437 7.035zM158.389 51.857c.705 0 1.475 0 2.18.52.706.522.834 1.304.834 1.89 0 .586-.128 1.303-.834 1.89-.641.52-1.475.52-2.18.52h-1.411v3.128h-.577v-7.948h1.988zm-1.411 4.3h1.475c.513 0 1.219 0 1.667-.391.321-.261.642-.717.642-1.499 0-.912-.385-1.303-.642-1.498-.513-.391-1.218-.391-1.667-.391h-1.475v3.778zM168.264 53.094c.77-1.172 1.86-1.368 2.501-1.368.706 0 1.732.196 2.501 1.368.577.912.705 2.02.705 2.737 0 .716-.064 1.824-.705 2.736-.769 1.172-1.86 1.368-2.501 1.368-.641 0-1.731-.196-2.501-1.368-.577-.912-.705-2.02-.705-2.736 0-.717.128-1.825.705-2.737zm.449 5.212c.577.977 1.475 1.173 2.052 1.173s1.411-.196 2.052-1.173c.513-.782.577-1.759.577-2.41 0-.652-.064-1.629-.577-2.41-.577-.978-1.475-1.173-2.052-1.173s-1.411.195-2.052 1.172c-.513.782-.577 1.76-.577 2.41.064.587.128 1.564.577 2.411zM185.963 51.857v7.948h-.577v-7.427h-4.361v7.492h-.577v-8.013h5.515zM193.145 53.094c.769-1.172 1.859-1.368 2.501-1.368.641 0 1.731.196 2.501 1.368.577.912.705 2.02.705 2.737 0 .716-.064 1.824-.705 2.736-.77 1.172-1.86 1.368-2.501 1.368-.642 0-1.732-.196-2.501-1.368-.577-.912-.706-2.02-.706-2.736.065-.717.129-1.825.706-2.737zm.513 5.212c.577.977 1.475 1.173 2.052 1.173s1.411-.196 2.052-1.173c.513-.782.577-1.759.577-2.41 0-.652-.064-1.629-.577-2.41-.577-.978-1.475-1.173-2.052-1.173s-1.411.195-2.052 1.172c-.513.782-.577 1.76-.577 2.41 0 .587.064 1.564.577 2.411zM208.407 51.857l2.757 7.948h-.577l-2.565-7.557h-.128l-2.565 7.557h-.578l2.758-7.948h.898zM217.769 51.857v3.127h1.731c.449 0 1.347 0 1.988.586.385.326.77.912.77 1.824s-.385 1.498-.77 1.824c-.641.521-1.475.587-2.244.587h-2.052v-7.948h.577zm0 7.426h1.86c.384 0 .897 0 1.346-.325.257-.196.641-.652.641-1.499 0-.912-.384-1.303-.641-1.498-.449-.326-1.154-.391-1.539-.391h-1.731v3.713h.064zM231.363 55.44c.385 0 .962-.066 1.347-.326.321-.195.641-.586.641-1.303 0-.456-.128-.912-.577-1.238-.513-.39-1.09-.39-1.411-.39-.384 0-.961.065-1.41.455-.449.391-.706.978-.77 1.629h-.577c.064-.782.385-1.498.898-1.954.577-.456 1.218-.587 1.795-.587h.064c.642 0 1.283.196 1.796.587.385.325.705.781.769 1.563 0 .912-.577 1.629-1.474 1.824.833.196 1.539.847 1.603 1.955v.065c0 .847-.385 1.368-.706 1.629-.513.456-1.282.65-1.988.65a3.17 3.17 0 01-1.859-.585c-.641-.522-.962-1.238-1.026-2.02h.577c.064.717.385 1.303.834 1.629.32.195.769.39 1.41.39.257 0 .962 0 1.539-.455.321-.261.577-.717.577-1.303v-.066c0-.586-.256-1.042-.769-1.368a2.952 2.952 0 00-1.411-.325h-.769v-.522h.897v.066zM241.046 53.094c.77-1.172 1.86-1.368 2.501-1.368.706 0 1.732.196 2.501 1.368.577.912.705 2.02.705 2.737 0 .716-.064 1.824-.705 2.736-.769 1.172-1.86 1.368-2.501 1.368-.641 0-1.731-.196-2.501-1.368-.577-.912-.705-2.02-.705-2.736 0-.717.128-1.825.705-2.737zm.449 5.212c.577.977 1.475 1.173 2.052 1.173s1.411-.196 2.052-1.173c.513-.782.577-1.759.577-2.41 0-.652-.064-1.629-.577-2.41-.577-.978-1.475-1.173-2.052-1.173s-1.411.195-2.052 1.172c-.513.782-.577 1.76-.577 2.41.064.587.128 1.564.577 2.411zM255.859 51.857h.193c.448 0 1.026 0 1.603.39.449.326.769.782.769 1.564 0 .912-.513 1.564-1.346 1.824.833.26 1.474.912 1.474 1.955v.065c0 .847-.384 1.433-.833 1.759-.577.39-1.283.456-1.86.456h-2.565v-8.013h2.565zm-2.052 3.518h1.988c.513 0 .962 0 1.411-.261.32-.195.577-.586.577-1.238 0-.586-.257-1.042-.641-1.237-.385-.261-.898-.261-1.411-.261h-1.988v2.997h.064zm0 3.908h1.988c.513 0 1.026 0 1.411-.26.385-.196.705-.652.705-1.368 0-.587-.192-1.043-.705-1.434-.513-.325-.962-.325-1.347-.325h-1.988v3.387h-.064zM268.107 51.857l2.822 7.948h-.578l-.961-2.671h-3.527l-.962 2.67h-.577l2.821-7.947h.962zm-2.052 4.82h3.142l-1.539-4.364h-.128l-1.475 4.364zM281.894 51.857v.52h-2.565v7.493h-.577v-7.492h-2.501v-.521h5.643zM292.731 51.857v.52h-4.168v2.998h4.04v.52h-4.04v3.388h4.296v.522h-4.873v-7.948h4.745zM302.35 51.857l2.757 7.948h-.577l-2.565-7.557h-.128l-2.565 7.557h-.577l2.757-7.948h.898zM315.88 51.857v.52h-4.168v2.998h4.04v.52h-4.04v3.388h4.297v.522h-4.874v-7.948h4.745zM323.062 51.857v5.211l4.361-3.387v-1.89H328v7.948h-.577v-5.472l-4.361 3.388v2.084h-.577v-7.882h.577zm.962-1.694c0 .195.128.39.321.651.256.196.577.326.898.326.384 0 .641-.13.897-.326a.796.796 0 00.321-.651h.577a1.815 1.815 0 01-.513.977 1.94 1.94 0 01-1.282.456c-.449 0-.898-.13-1.283-.456-.321-.326-.513-.651-.513-.977h.577z" fill="#000"/></g><defs><clipPath id="atclip0"><path fill="#fff" d="M0 0h328v60H0z"/></clipPath></defs></symbol><symbol viewBox="0 0 26 26" id="logoMini2" xmlns="http://www.w3.org/2000/svg"><path d="M17.963 13.383L13.1 7.078c-.037-.039-.073-.078-.11-.078-.036 0-.11.04-.11.078l-2.45 3.172c-.073.078-.037.196.037.235.073.078.183.04.22-.04l1.645-2.114-2.121 5.012H8.16c-.073 0-.11.04-.146.118-.036.078 0 .117.037.196l4.828 6.265c.036.039.073.078.11.078.036 0 .109-.04.109-.078l2.414-3.172c.073-.078.037-.196-.037-.235-.073-.078-.183-.04-.22.04l-1.645 2.114 2.194-5.012h2.049c.073 0 .146-.079.146-.157 0-.04 0-.078-.037-.117zM12.99 7.587l2.45 5.756h-4.9l2.45-5.756zm-4.498 6.07h1.719l2.12 5.012-3.84-5.012zm4.498 5.756l-2.45-5.717h4.9l-2.45 5.717zm2.816-6.07l-2.12-5.012 3.84 5.012h-1.72z"/><path d="M13 2C6.919 2 2 6.89 2 12.935h1.162c0-5.39 4.415-9.78 9.838-9.78 5.423 0 9.838 4.39 9.838 9.78s-4.415 9.78-9.838 9.78v1.155c6.081 0 11-4.89 11-10.935C24 6.89 19.081 2 13 2z"/><path fill="#9E6B36" d="M20.293 13.13c0 4.258-3.35 7.687-7.423 7.687-4.112 0-7.424-3.469-7.424-7.687 0-4.257 3.35-7.686 7.424-7.686V4.26c-4.72 0-8.566 3.981-8.566 8.87 0 4.888 3.845 8.87 8.566 8.87 4.72 0 8.565-3.982 8.565-8.87h-1.142z"/><path fill="#9E6B36" d="M22.21 3.79C19.746 1.364 16.487 0 13 0v1.137c6.557 0 11.9 5.306 11.9 11.863 0 6.557-5.343 11.9-11.862 11.9-6.595 0-11.901-5.343-11.901-11.9H0v13h13c3.487 0 6.746-1.364 9.21-3.79C24.674 19.746 26 16.487 26 13c0-3.487-1.364-6.746-3.79-9.21z"/><path d="M13 0c3.487 0 6.746 1.364 9.21 3.79C24.673 6.254 26 9.513 26 13V0H13z"/>s</symbol><symbol fill="#9E6B36" viewBox="0 0 24 24" id="menu" xmlns="http://www.w3.org/2000/svg"><path d="M0 2v3h24V2zm0 9v3h24v-3zm0 9v3h24v-3z"/></symbol><symbol fill="none" viewBox="0 0 61 58" id="metal" xmlns="http://www.w3.org/2000/svg"><path d="M60.106 39.008a.886.886 0 00.894-.879v-7.663c0-11.11-9.19-20.15-20.485-20.15h-9.15l-9.028-8.88A3.49 3.49 0 0019.875.433a3.49 3.49 0 00-2.463 1.003 3.375 3.375 0 00-1.02 2.422c0 .593.153 1.162.438 1.665a164.016 164.016 0 00-11.11 9.985C2.26 18.917.237 23.446.02 28.261a19.028 19.028 0 004.443 13.117c.177.21.432.32.69.32a.9.9 0 00.568-.201.869.869 0 00.12-1.237 17.293 17.293 0 01-4.036-11.921 17.334 17.334 0 015.18-11.589 162.199 162.199 0 0111.011-9.895l24.462 24.06a161.401 161.401 0 01-10.059 10.832c-3.191 3.132-7.433 4.944-11.943 5.101-4.487.157-8.827-1.332-12.219-4.191a.904.904 0 00-1.26.095.869.869 0 00.097 1.24c3.554 2.997 8.053 4.625 12.738 4.625.235 0 .471-.004.707-.012 4.963-.173 9.63-2.167 13.143-5.614a163.246 163.246 0 0010.151-10.93 3.53 3.53 0 003.387 0v19.1c0 .807.32 1.564.898 2.132.579.57 1.35.885 2.17.885 1.69 0 3.067-1.353 3.067-3.017v-7.004c0-.232.091-.45.26-.617a.885.885 0 01.627-.255.88.88 0 01.886.872V54.67c0 .773.306 1.5.864 2.05a2.956 2.956 0 002.082.847c1.624 0 2.946-1.3 2.946-2.897V41.645c0-.486-.4-.879-.894-.879a.886.886 0 00-.893.879V54.67a1.15 1.15 0 01-1.16 1.14c-.308 0-.6-.12-.817-.333a1.127 1.127 0 01-.34-.807V44.157c0-1.45-1.2-2.63-2.674-2.63-.716 0-1.388.275-1.89.77a2.587 2.587 0 00-.785 1.86v7.004c0 .694-.573 1.26-1.28 1.26a1.28 1.28 0 01-.905-.371 1.237 1.237 0 01-.375-.89V29.076l-.001-.01c0-.876-.34-1.752-1.018-2.419L33.153 12.075h7.362c10.31 0 18.698 8.25 18.698 18.391v7.663c0 .486.4.879.893.879zm-13.402-8.76c-.661.65-1.737.65-2.398 0l-25.63-25.21a1.65 1.65 0 010-2.359c.33-.325.764-.487 1.199-.487.434 0 .868.162 1.199.487l25.63 25.21a1.65 1.65 0 010 2.359z" fill="#9E6B36"/></symbol><symbol fill="none" viewBox="0 0 61 60" id="metallurgy" xmlns="http://www.w3.org/2000/svg"><g clip-path="url(#axclip0)"><path d="M60.106 40.008a.886.886 0 00.894-.879v-7.663c0-11.11-9.19-20.15-20.485-20.15h-9.15l-9.028-8.88a3.49 3.49 0 00-2.462-1.003 3.49 3.49 0 00-2.463 1.003 3.375 3.375 0 00-1.02 2.422c0 .593.153 1.162.438 1.665a164.016 164.016 0 00-11.11 9.985C2.26 19.917.237 24.446.02 29.261a19.028 19.028 0 004.443 13.117c.177.21.432.32.69.32a.9.9 0 00.568-.201.869.869 0 00.12-1.237 17.293 17.293 0 01-4.036-11.921 17.334 17.334 0 015.18-11.589 162.196 162.196 0 0111.011-9.895l24.462 24.06a161.401 161.401 0 01-10.059 10.832c-3.191 3.132-7.433 4.944-11.943 5.101-4.487.157-8.827-1.332-12.219-4.191a.904.904 0 00-1.26.095.869.869 0 00.097 1.24c3.554 2.997 8.053 4.625 12.738 4.625.235 0 .471-.004.707-.012 4.963-.173 9.63-2.167 13.143-5.614a163.246 163.246 0 0010.151-10.93 3.53 3.53 0 003.387 0v19.1c0 .807.32 1.564.898 2.132.579.57 1.35.885 2.17.885 1.69 0 3.067-1.353 3.067-3.017v-7.004c0-.232.091-.45.26-.617a.885.885 0 01.627-.255.88.88 0 01.886.872V55.67c0 .773.306 1.5.864 2.05a2.956 2.956 0 002.082.847c1.624 0 2.946-1.3 2.946-2.897V42.645c0-.486-.4-.879-.894-.879a.886.886 0 00-.893.879V55.67a1.15 1.15 0 01-1.16 1.14c-.308 0-.6-.12-.817-.333a1.127 1.127 0 01-.34-.807V45.157c0-1.45-1.2-2.63-2.674-2.63-.716 0-1.388.275-1.89.77a2.587 2.587 0 00-.785 1.86v7.004c0 .694-.573 1.26-1.28 1.26a1.28 1.28 0 01-.905-.371 1.237 1.237 0 01-.375-.89V30.076l-.001-.01c0-.876-.34-1.752-1.018-2.419L33.153 13.075h7.362c10.31 0 18.698 8.25 18.698 18.391v7.663c0 .486.4.879.893.879zm-13.402-8.76c-.661.65-1.737.65-2.398 0l-25.63-25.21a1.65 1.65 0 010-2.359c.33-.325.764-.487 1.199-.487.434 0 .868.162 1.199.487l25.63 25.21a1.65 1.65 0 010 2.359z" fill="currentColor"/></g><defs><clipPath id="axclip0"><path fill="#fff" d="M0 0h61v60H0z"/></clipPath></defs></symbol><symbol fill="none" viewBox="0 0 60 60" id="mining-industry" xmlns="http://www.w3.org/2000/svg"><g clip-path="url(#ayclip0)"><path d="M47.577 12.12a3.218 3.218 0 003.214 3.214 3.218 3.218 0 003.215-3.215 3.218 3.218 0 00-3.215-3.214 3.218 3.218 0 00-3.214 3.214zm4.67 0a1.458 1.458 0 01-2.913 0 1.458 1.458 0 012.914 0zM6.174 21.745l-.404.098a.879.879 0 10.412 1.709l.404-.099a.878.878 0 10-.412-1.708z" fill="#9E6B36"/><path d="M57.283 14.253a.879.879 0 00.88-.879V5.561a.88.88 0 00-.357-.706l-6.492-4.8a.877.877 0 00-1.045 0l-6.492 4.8a.88.88 0 00-.357.706v2.034l-28.895 8.327a.878.878 0 10.486 1.69l28.41-8.188v4.909L6.645 24.93a2.362 2.362 0 01-2.92-1.613 2.345 2.345 0 01.203-1.794c.304-.551.806-.95 1.41-1.125l6.714-1.935a.879.879 0 00-.487-1.689L4.853 18.71a4.089 4.089 0 00-2.463 1.964 4.089 4.089 0 00-.352 3.13 4.123 4.123 0 003.957 2.977h.015v32.224a.88.88 0 001.758 0V26.436l16.74-4.824-4.455 36.513h-4.17a.879.879 0 100 1.758h32.678a.879.879 0 100-1.758h-4.17l-4.979-40.807 4.008-1.156v2.515c0 .279.133.54.357.707l6.135 4.536v6.134h-1.456a.879.879 0 00-.88.88v8.602c0 .485.394.879.88.879h4.67a.879.879 0 00.88-.879v-8.603a.879.879 0 00-.88-.878H51.67V23.92l6.136-4.537a.88.88 0 00.356-.706v-2.344a.879.879 0 10-1.758 0v1.9l-5.613 4.15-5.613-4.15V6.006l5.613-4.15 5.613 4.15v7.37c0 .485.394.878.88.878zM26.411 29.702l5.811-5.853 5.812 5.853H26.41zM37.66 31.46l-5.438 4.396-5.437-4.396H37.66zm-12.68.801l5.844 4.725-7.123 5.759L24.98 32.26zm.07 11.652l7.172-5.797 7.172 5.797H25.05zm13.957 1.758l-6.785 4.58-6.785-4.58h13.57zm-15.743.653l7.387 4.989-8.714 5.884 1.327-10.873zm8.958 6.05l8.518 5.751H23.703l8.519-5.752zm1.57-1.061l7.388-4.988 1.327 10.872-8.714-5.884zm-.172-14.327l5.845-4.725 1.279 10.484-7.124-5.76zm-.16-14.384l4.298-4.328 1.204 9.868-5.501-5.54zm1.496-4l-2.734 2.753-1.518-1.528 4.252-1.225zm-6.177 1.78l2.205 2.22-5.502 5.54.862-7.059 2.435-.701zm23.469 18.275h-2.913v-6.845h2.913v6.845z" fill="currentColor"/></g><defs><clipPath id="ayclip0"><path fill="#fff" d="M0 0h60v60H0z"/></clipPath></defs></symbol><symbol fill="none" viewBox="0 0 1280 101" id="mountains" xmlns="http://www.w3.org/2000/svg"><path opacity=".5" d="M1280 57.464h-88.69l-17.2-18.885a4.603 4.603 0 00-6.28-.5l-10.67 8.517-28.14-44.451a4.625 4.625 0 00-3.9-2.145c-1.58 0-3.05.81-3.89 2.145l-24.03 37.956-9.01-13.184a4.621 4.621 0 00-3.81-2.01c-1.52 0-2.95.752-3.81 2.01l-20.87 30.547H0v9.224h1053.39l-3.67 5.37a4.622 4.622 0 001.21 6.41c.79.544 1.7.804 2.6.804 1.47 0 2.92-.704 3.81-2.01l1.78-2.602 25.26-36.967 7.44 10.895-16.5 26.072-11.94 18.853a4.616 4.616 0 003.9 7.079c1.52 0 3.02-.76 3.9-2.146l2.19-3.462 51.75-81.75 42.05 66.417 1.05 1.658a4.608 4.608 0 006.36 1.43 4.616 4.616 0 001.75-5.767c-.1-.203-.2-.404-.32-.597l-13.89-21.938 8.08-6.452 27.7 30.417 3.23 3.545a4.6 4.6 0 003.41 1.507c1.11 0 2.22-.397 3.1-1.202a4.61 4.61 0 00.31-6.515l-8.24-9.05H1280V62v-4.536z" fill="#E5E5E5"/></symbol><symbol fill="none" viewBox="0 0 60 56" id="petrol" xmlns="http://www.w3.org/2000/svg"><path d="M60 37.417c0-1.404-.211-2.791-.627-4.121a.878.878 0 10-1.678.524c.363 1.16.547 2.37.547 3.597 0 5.663-3.986 10.545-9.423 11.752v-3.35c0-.957-.78-1.735-1.736-1.735h-1.657c-.958 0-1.736.778-1.736 1.735v3.373c-5.496-1.166-9.527-6.06-9.527-11.775 0-4.863 2.878-9.196 7.345-11.088h9.388a12.032 12.032 0 015.266 4.324.878.878 0 101.453-.99 13.838 13.838 0 00-3.227-3.354 2.391 2.391 0 002.092-2.369v-1.138a2.392 2.392 0 00-2.39-2.389h-9.978a.879.879 0 000 1.758h9.979c.347 0 .63.283.63.631v1.138a.632.632 0 01-.63.631H38.314a.632.632 0 01-.631-.63v-1.139c0-.348.283-.63.63-.63h2.053a.879.879 0 100-1.759h-2.052a2.392 2.392 0 00-2.39 2.39v1.137c0 1.215.913 2.219 2.087 2.368a13.742 13.742 0 00-5.606 11.109c0 2.485.665 4.835 1.834 6.867v9.457a1.7 1.7 0 001.698 1.698h1.734a1.7 1.7 0 001.697-1.698v-4.336a13.669 13.669 0 004.322 1.58v2.718c0 .957.778 1.736 1.736 1.736h1.657c.957 0 1.736-.779 1.736-1.736v-2.738a13.646 13.646 0 004.217-1.565v4.341a1.7 1.7 0 001.698 1.698h1.733a1.7 1.7 0 001.698-1.698v-9.468A13.72 13.72 0 0060 37.416zM37.61 53.681h-1.613v-6.985a13.885 13.885 0 001.613 1.515v5.47zm9.45 0h-1.612v-7.84h1.613v7.84zm9.347 0h-1.613v-5.479c.578-.462 1.117-.97 1.613-1.516v6.995z" fill="currentColor"/><path d="M32.403 45.455h-5.278v-4.819h2.81a.879.879 0 100-1.758h-2.81v-9.26h5.12a.879.879 0 100-1.758h-5.12V23.04h6.205a.879.879 0 100-1.757h-6.205v-4.131a3.373 3.373 0 013.37-3.37h4.186a3.373 3.373 0 013.37 3.37v.624a.879.879 0 101.758 0v-.625a5.136 5.136 0 00-4.043-5.01v-1.513c0-1.02-.83-1.85-1.85-1.85h-.45v-.997c0-3.982-3.238-7.221-7.22-7.221a7.226 7.226 0 00-6.342 3.77 7.227 7.227 0 00-6.341-3.77C9.58.56 6.342 3.8 6.342 7.78v.998h-.45c-1.02 0-1.85.83-1.85 1.85v1.513A5.136 5.136 0 000 17.152v15.513a.879.879 0 101.758 0v-3.047h10.926v9.26H1.758v-2.467a.879.879 0 10-1.758 0V54.56a.879.879 0 101.758 0v-7.348h10.926v7.348a.879.879 0 101.757 0v-7.348h10.926v7.348a.879.879 0 001.758 0v-7.348h5.278a.879.879 0 100-1.758zm-11.17-34.918c.05 0 .092.041.092.092v1.396h-2.841v-1.396c0-.051.041-.092.092-.092h2.657zm-3.422 3.246h4.186a3.373 3.373 0 013.37 3.37v4.13H14.441v-4.13a3.373 3.373 0 013.37-3.37zm-3.37 9.258h10.926v4.819H14.441V23.04zm10.926 6.577v9.26H14.441v-9.26h10.926zm8.641-18.99v1.397h-2.84v-1.396c0-.051.041-.092.092-.092h2.656c.05 0 .092.041.092.092zm-7.762-8.31a5.469 5.469 0 015.463 5.464v.997h-.45c-1.02 0-1.85.83-1.85 1.85v1.513a5.14 5.14 0 00-3.163 2.143 5.14 5.14 0 00-3.163-2.143v-1.513c0-1.02-.83-1.85-1.85-1.85h-.45v-.997a5.469 5.469 0 015.463-5.463zM8.1 7.783a5.469 5.469 0 015.462-5.463 5.469 5.469 0 015.463 5.463v.997h-.449c-1.02 0-1.85.83-1.85 1.85v1.513a5.14 5.14 0 00-3.164 2.143 5.14 5.14 0 00-3.163-2.143v-1.513c0-1.02-.83-1.85-1.85-1.85h-.45v-.997zm-2.208 2.755H8.55c.05 0 .092.041.092.092v1.396h-2.84v-1.396c0-.051.04-.092.091-.092zm-.764 3.246h4.186a3.373 3.373 0 013.37 3.37v4.13H1.758v-4.13a3.373 3.373 0 013.37-3.37zm-3.37 9.258h10.926v4.819H1.758V23.04zm0 17.595h10.926v4.819H1.758v-4.819zm12.683 0h10.926v4.819H14.441v-4.819z" fill="currentColor"/></symbol><symbol fill="none" viewBox="0 0 61 60" id="quality-control" xmlns="http://www.w3.org/2000/svg"><path d="M52.067 8.787C46.306 3.12 38.647 0 30.5 0S14.694 3.12 8.933 8.787C3.173 14.453 0 21.987 0 30c0 7.869 3.075 15.305 8.658 20.94a.904.904 0 001.264.015.869.869 0 00.016-1.243C4.682 44.41 1.787 37.408 1.787 30c0-7.544 2.987-14.636 8.41-19.97C15.62 4.695 22.83 1.758 30.5 1.758c7.67 0 14.88 2.937 20.303 8.272 5.423 5.334 8.41 12.426 8.41 19.97 0 7.544-2.987 14.636-8.41 19.97-5.423 5.335-12.634 8.272-20.303 8.272-6.424 0-12.498-2.04-17.564-5.898a.903.903 0 00-1.253.157.87.87 0 00.16 1.233C17.223 57.834 23.675 60 30.5 60c8.147 0 15.806-3.12 21.567-8.787C57.827 45.547 61 38.013 61 30c0-8.013-3.172-15.547-8.933-21.213z" fill="currentColor"/><path d="M9.566 30c0 11.354 9.39 20.591 20.934 20.591 11.543 0 20.934-9.237 20.934-20.591 0-3.228-.761-6.284-2.113-9.006l.588-.659a4.654 4.654 0 00-.432-6.636c-1.806-1.563-4.483-1.54-6.262-.045A21.051 21.051 0 0030.5 9.409c-11.543 0-20.934 9.237-20.934 20.59zM30.5 11.167c4.31 0 8.29 1.409 11.494 3.781l-4.772 5.35a.869.869 0 00.082 1.24.904.904 0 001.26-.082l5.507-6.171a3.032 3.032 0 014.225-.267 2.915 2.915 0 01.27 4.157L31.237 38.59c-.568.635-1.387 1-2.247 1h-.02a3.013 3.013 0 01-2.253-1.028l-7.786-8.935a2.909 2.909 0 01.325-4.152 3.003 3.003 0 012.177-.7c.798.06 1.523.423 2.044 1.02l4.872 5.591a.9.9 0 001.35.008l6.123-6.863a.869.869 0 00-.082-1.24.904.904 0 00-1.261.08l-5.444 6.102-4.201-4.822a4.777 4.777 0 00-3.264-1.628 4.8 4.8 0 00-3.477 1.118 4.646 4.646 0 00-1.656 3.21 4.622 4.622 0 001.137 3.42l7.786 8.935a4.812 4.812 0 003.599 1.642h.03a4.817 4.817 0 003.59-1.597l15.455-17.315A18.464 18.464 0 0149.647 30c0 10.385-8.59 18.833-19.147 18.833-10.558 0-19.147-8.448-19.147-18.833 0-10.385 8.59-18.833 19.147-18.833zM30.5 6.798a.886.886 0 00.894-.878c0-.486-.4-.88-.894-.88a.886.886 0 00-.894.88c0 .485.4.878.894.878zM30.5 54.96a.886.886 0 00.894-.88c0-.485-.4-.879-.894-.879a.886.886 0 00-.894.88c0 .485.4.878.894.878zM18.706 9.907a.871.871 0 00.327-1.2.902.902 0 00-1.22-.323.871.871 0 00-.327 1.201.901.901 0 001.22.322zM42.294 50.093a.871.871 0 00-.327 1.2.902.902 0 001.22.322.871.871 0 00.327-1.2.902.902 0 00-1.22-.322zM9.745 17.199a.902.902 0 00-1.22.321c-.247.42-.101.958.326 1.2a.902.902 0 001.22-.32.871.871 0 00-.326-1.201zM51.255 42.801a.902.902 0 001.22-.321.871.871 0 00-.326-1.2.902.902 0 00-1.221.32c-.247.421-.1.959.327 1.201zM5.125 30c0 .485.4.879.893.879A.886.886 0 006.912 30c0-.485-.4-.879-.894-.879a.886.886 0 00-.893.879zM54.982 30.879a.886.886 0 00.893-.879c0-.485-.4-.879-.893-.879a.886.886 0 00-.894.879c0 .485.4.879.894.879zM8.524 42.48a.902.902 0 001.221.321.871.871 0 00.327-1.2.902.902 0 00-1.22-.322.871.871 0 00-.328 1.2zM17.485 50.415c-.246.42-.1.958.327 1.2a.902.902 0 001.22-.321.871.871 0 00-.326-1.2.902.902 0 00-1.22.32zM43.515 9.585a.871.871 0 00-.328-1.2.901.901 0 00-1.22.321c-.247.42-.1.958.327 1.2a.902.902 0 001.22-.32z" fill="currentColor"/></symbol><symbol fill="none" viewBox="0 0 20 20" id="search" xmlns="http://www.w3.org/2000/svg"><path d="M14.294 12.579h-.91l-.314-.315a7.362 7.362 0 001.796-4.831A7.433 7.433 0 100 7.433a7.433 7.433 0 007.433 7.433 7.388 7.388 0 004.831-1.79l.315.314v.904L18.296 20 20 18.296l-5.706-5.717zm-6.861 0a5.146 5.146 0 110-10.293 5.146 5.146 0 010 10.293z" fill="#9E6B36"/></symbol><symbol fill="none" viewBox="0 0 10 10" id="spisok" xmlns="http://www.w3.org/2000/svg"><path d="M9.793 4.675L.507.39a.36.36 0 00-.427.1.355.355 0 00-.008.438L3.125 5 .072 9.07a.356.356 0 00.435.539l9.285-4.286a.357.357 0 000-.649z" fill="#9E6B36"/></symbol><symbol fill="none" viewBox="0 0 20 20" id="swipe" xmlns="http://www.w3.org/2000/svg"><g clip-path="url(#beclip0)" fill="#9F9F9F"><path d="M17.826 1.739H12.61a.435.435 0 000 .87h5.217a.435.435 0 000-.87z"/><path d="M18.134 1.866L16.395.127a.435.435 0 00-.615.615l1.432 1.431-1.433 1.433a.435.435 0 00.616.614l1.74-1.739a.435.435 0 000-.615zM6.522 1.739H1.304a.435.435 0 000 .87h5.218a.435.435 0 000-.87z"/><path d="M1.919 2.173L3.35.742a.435.435 0 00-.615-.615L.996 1.867a.435.435 0 000 .614l1.74 1.74a.437.437 0 00.614-.001.435.435 0 000-.615L1.92 2.173zM17.392 8.695c-.358 0-.69.109-.967.294a1.744 1.744 0 00-2.61-.87 1.743 1.743 0 00-1.641-1.163c-.316 0-.614.085-.87.234V4.347c0-.959-.78-1.739-1.739-1.739-.959 0-1.739.78-1.739 1.74v7.39l-1.511-1.132a2.28 2.28 0 00-2.965.21 1.305 1.305 0 000 1.845l6.193 6.193A3.89 3.89 0 0012.31 20h2.037a4.788 4.788 0 004.783-4.783v-4.783c0-.959-.78-1.739-1.74-1.739zm.87 6.522a3.918 3.918 0 01-3.914 3.913h-2.037a3.024 3.024 0 01-2.153-.89l-6.193-6.194a.435.435 0 010-.615 1.403 1.403 0 011.829-.13L8 12.957a.436.436 0 00.696-.348v-8.26a.87.87 0 011.739 0v6.521a.435.435 0 00.87 0V8.695a.87.87 0 011.739 0v2.174a.435.435 0 00.87 0V9.565a.87.87 0 011.738 0v1.304a.435.435 0 00.87 0v-.434a.87.87 0 011.74 0v4.782z"/></g><defs><clipPath id="beclip0"><path fill="#fff" d="M0 0h20v20H0z"/></clipPath></defs></symbol><symbol fill="none" viewBox="0 0 11 10" id="telegram" xmlns="http://www.w3.org/2000/svg"><path d="M10.268.081L.415 4.092c-.54.168-.523.74-.123.88l2.47.827.948 3.114c.115.343.213.466.41.475.204 0 .285-.08.498-.281.253-.256.63-.651 1.235-1.285L8.42 9.863c.474.282.818.132.932-.475L10.963.82c.164-.739-.245-.959-.695-.739zM3.146 5.614l5.61-3.791c.277-.202.36.026.237.176L4.332 6.503l-.237 2.252-.949-3.14z" fill="#fff"/></symbol><symbol fill="#fff" viewBox="0 0 19 18" id="thumbDown" xmlns="http://www.w3.org/2000/svg"><path d="M7.636 11.4v3.2c0 .637.273 1.247.758 1.697a2.7 2.7 0 001.833.703l3.454-7.2V1H3.94c-.417-.004-.821.131-1.138.381-.318.25-.527.598-.59.98L1.02 9.56c-.038.228-.021.463.048.685.07.223.192.43.356.604.164.175.368.315.596.41.229.095.477.143.727.14h4.889zM13.68 1h2.307c.488-.008.963.15 1.334.446.371.295.613.706.678 1.154v5.6c-.066.449-.307.86-.678 1.155-.37.295-.846.453-1.334.445h-2.306" fill="#FAFAFA"/><path d="M13.681 1h2.307c.488-.008.963.15 1.334.446.371.295.613.706.678 1.154v5.6c-.066.449-.307.86-.678 1.155-.37.295-.846.453-1.334.445h-2.306m-6.046 1.6v3.2c0 .637.273 1.247.758 1.697a2.7 2.7 0 001.833.703l3.454-7.2V1H3.94c-.417-.004-.821.131-1.138.381-.318.25-.527.598-.59.98L1.02 9.56c-.038.228-.021.463.048.685.07.223.192.43.356.604.164.175.368.315.596.41.229.095.477.143.727.14h4.889z" stroke="#A8A8A8" stroke-linecap="round" stroke-linejoin="round"/></symbol><symbol fill="#9E6B36" viewBox="0 0 19 18" id="thumbDownVoted" xmlns="http://www.w3.org/2000/svg"><path d="M7.636 11.4v3.2c0 .637.273 1.247.758 1.697a2.7 2.7 0 001.833.703l3.454-7.2V1H3.94c-.417-.004-.821.131-1.138.381-.318.25-.527.598-.59.98L1.02 9.56c-.038.228-.021.463.048.685.07.223.192.43.356.604.164.175.368.315.596.41.229.095.477.143.727.14h4.889zM13.68 1h2.307c.488-.008.963.15 1.334.446.371.295.613.706.678 1.154v5.6c-.066.449-.307.86-.678 1.155-.37.295-.846.453-1.334.445h-2.306" fill="#FAFAFA"/><path d="M13.681 1h2.307c.488-.008.963.15 1.334.446.371.295.613.706.678 1.154v5.6c-.066.449-.307.86-.678 1.155-.37.295-.846.453-1.334.445h-2.306m-6.046 1.6v3.2c0 .637.273 1.247.758 1.697a2.7 2.7 0 001.833.703l3.454-7.2V1H3.94c-.417-.004-.821.131-1.138.381-.318.25-.527.598-.59.98L1.02 9.56c-.038.228-.021.463.048.685.07.223.192.43.356.604.164.175.368.315.596.41.229.095.477.143.727.14h4.889z" stroke="#A8A8A8" stroke-linecap="round" stroke-linejoin="round"/></symbol><symbol fill="#fff" viewBox="0 0 19 18" id="thumbUp" xmlns="http://www.w3.org/2000/svg"><path d="M11.364 6.6V3.4c0-.637-.273-1.247-.759-1.697A2.7 2.7 0 008.773 1L5.32 8.2V17h9.742c.417.004.821-.131 1.138-.381.318-.25.527-.598.59-.98l1.191-7.2c.038-.228.021-.463-.049-.685a1.568 1.568 0 00-.355-.604 1.724 1.724 0 00-.596-.41 1.846 1.846 0 00-.727-.14h-4.889zM5.32 17H3.012a2.094 2.094 0 01-1.334-.446A1.814 1.814 0 011 15.4V9.8c.066-.449.307-.86.678-1.155A2.094 2.094 0 013.012 8.2H5.32" fill="#FAFAFA"/><path d="M5.319 17H3.012a2.094 2.094 0 01-1.334-.446A1.814 1.814 0 011 15.4V9.8c.066-.449.307-.86.678-1.155A2.094 2.094 0 013.012 8.2H5.32m6.045-1.6V3.4c0-.637-.273-1.247-.759-1.697A2.7 2.7 0 008.773 1L5.32 8.2V17h9.742c.417.004.821-.131 1.138-.381.318-.25.527-.598.59-.98l1.191-7.2c.038-.228.021-.463-.049-.685a1.568 1.568 0 00-.355-.604 1.724 1.724 0 00-.596-.41 1.846 1.846 0 00-.727-.14h-4.889z" stroke="#A8A8A8" stroke-linecap="round" stroke-linejoin="round"/></symbol><symbol fill="#9E6B36" viewBox="0 0 19 18" id="thumbUpVoted" xmlns="http://www.w3.org/2000/svg"><path d="M11.364 6.6V3.4c0-.637-.273-1.247-.759-1.697A2.7 2.7 0 008.773 1L5.32 8.2V17h9.742c.417.004.821-.131 1.138-.381.318-.25.527-.598.59-.98l1.191-7.2c.038-.228.021-.463-.049-.685a1.568 1.568 0 00-.355-.604 1.724 1.724 0 00-.596-.41 1.846 1.846 0 00-.727-.14h-4.889zM5.32 17H3.012a2.094 2.094 0 01-1.334-.446A1.814 1.814 0 011 15.4V9.8c.066-.449.307-.86.678-1.155A2.094 2.094 0 013.012 8.2H5.32" fill="#FAFAFA"/><path d="M5.319 17H3.012a2.094 2.094 0 01-1.334-.446A1.814 1.814 0 011 15.4V9.8c.066-.449.307-.86.678-1.155A2.094 2.094 0 013.012 8.2H5.32m6.045-1.6V3.4c0-.637-.273-1.247-.759-1.697A2.7 2.7 0 008.773 1L5.32 8.2V17h9.742c.417.004.821-.131 1.138-.381.318-.25.527-.598.59-.98l1.191-7.2c.038-.228.021-.463-.049-.685a1.568 1.568 0 00-.355-.604 1.724 1.724 0 00-.596-.41 1.846 1.846 0 00-.727-.14h-4.889z" stroke="#A8A8A8" stroke-linecap="round" stroke-linejoin="round"/></symbol><symbol viewBox="0 0 390 40" id="title1" xmlns="http://www.w3.org/2000/svg"><path fill="none" d="M-1-1h392v42H-1z"/><g><path fill-opacity="null" fill="#fff" d="M350.85 14.779h8V29.04h-8z"/><path fill="#fff" d="M33.97 9.061h320.364v21.455H33.97z"/><path fill-rule="evenodd" fill="#f39404" d="M15.793-.228c.89-.321.366-.176 0 0M5.797 11.427c3.278 5.087 7.146 11.087 8.595 13.333 1.449 2.246 4.012 6.22 5.695 8.834l3.06 4.75 3.943.044 3.943.045-1.32-2.045c-.725-1.124-1.904-2.944-2.62-4.044a709.97 709.97 0 01-2.313-3.584 1883.89 1883.89 0 00-2.736-4.25c-.948-1.466-2.373-3.68-3.167-4.916-.795-1.238-3.043-4.725-4.996-7.75a5587.154 5587.154 0 01-5.291-8.21L6.85.928H2.946C.799.927-.957.97-.957 1.02m16.223.28c.237.338 7.015 10.807 12.167 18.793 1.094 1.696 2.717 4.208 3.607 5.583.889 1.375 2.462 3.813 3.496 5.417 1.033 1.604 2.52 3.91 3.306 5.125l1.429 2.208h167.636c92.2 0 167.636-.038 167.636-.084 0-.046-1.512-2.427-3.36-5.292l-5.778-8.957c-1.33-2.063-3.145-4.875-4.033-6.25a9103.753 9103.753 0 01-9.91-15.375l-.985-1.542H15.002l.264.375m342.606 1.083a501.95 501.95 0 012.843 4.375 6933.79 6933.79 0 009.83 15.25c.888 1.375 3.208 4.975 5.157 8 1.948 3.025 3.966 6.155 4.483 6.956l.94 1.456 3.89.002 3.888.003-.384-.625c-.398-.648-8.848-13.77-16.717-25.958-2.485-3.85-5.08-7.88-5.764-8.956L364.793.933 360.849.93l-3.944-.003.967 1.458M-2.052 2.024c.407-.8.42-1.044.367-.93m64.002 14.715c3.374 1.768 3.373 8.045-.001 9.828-3.923 2.072-7.864-2.313-6.363-7.082.809-2.572 4.036-3.964 6.364-2.746m17.27.17c2.61 1.53 3.119 6.445.905 8.754-1.665 1.738-4.68 1.787-6.362.104-2.007-2.007-1.857-6.736.267-8.448 1.358-1.094 3.706-1.28 5.19-.41m83.185-.347c2.906.87 3.997 6.083 1.86 8.884-1.432 1.879-4.66 2.094-6.49.434-.374-.34-.46-.37-.374-.133.406 1.137.429 1.11-.945 1.11h-1.257l-.251-.875a44.273 44.273 0 01-.363-1.333c-.111-.454-.125-.46-1.488-.46h-1.375l-.38 1.335-.38 1.333h-1.226c-.675 0-1.227-.031-1.227-.068 0-.038.743-2.344 1.65-5.125l1.652-5.057h2.599l1.41 4.303 1.413 4.304.654-.765.654-.765.564.495c1.359 1.193 3.072.757 3.653-.931l.22-.641-1.91-.047-1.908-.047.05-1.036.049-1.037 1.792-.047c.985-.026 1.79-.09 1.79-.141 0-1.611-2.402-2.274-3.762-1.038-.344.312-.352.308-1.044-.512l-.698-.827.378-.357c1.109-1.047 3.06-1.444 4.69-.956m19.045.177c3.377 1.77 3.385 8.088.01 9.809-4.33 2.209-8.448-3.123-6.046-7.828 1.06-2.08 4.003-3.045 6.036-1.981m25.5 0c3.368 1.765 3.37 8.095.004 9.813-1.65.84-3.923.503-5.2-.774-1.946-1.947-1.93-6.431.03-8.286 1.186-1.121 3.748-1.495 5.166-.753m9.559.263c0 .626.02.649.676.754 4.63.74 4.59 6.99-.051 7.836-.598.108-.625.142-.625.773v.659h-2.167v-1.31l-.894-.186c-4.618-.958-4.1-7.838.59-7.838.244 0 .304-.133.304-.666v-.667h2.167v.645m20.514-.21c1.336.78 1.776 2.679.915 3.947l-.404.596.379.249c1.042.682 1.243 2.862.369 4.008-1.344 1.76-4.6 1.916-6.731.32-.685-.512-.676-.64.116-1.555l.648-.75.39.367c1.437 1.349 3.804 1.06 3.804-.464 0-.705-.57-.986-2-.986h-1.333v-2h.822c1.333 0 2.003-.357 2.008-1.071.008-.981-1.327-1.224-2.681-.487l-.812.442-.377-.474c-.974-1.223-.96-1.101-.211-1.671 1.28-.977 3.828-1.211 5.098-.47m35.607-.181c.662.277 1.712 1.022 1.712 1.215 0 .43-1.311 1.674-1.511 1.432-1.54-1.855-3.905-.383-3.905 2.43 0 2.785 1.856 4.043 3.735 2.533l.63-.507.624.745c.72.862.695 1.034-.257 1.724-2.491 1.804-6.14.515-7.01-2.477-1.291-4.441 2.258-8.651 5.982-7.095m10.848.119c.167.877-.302 2.068-.786 1.997-.522-.076-.753.175-1.59 1.735-.531.99-.613.729 1.064 3.382a195.02 195.02 0 011.492 2.387l.378.625h-2.649l-1.365-2.167c-1.143-1.814-1.432-2.166-1.773-2.166h-.407v4.333h-2.5V15.594h2.49l.047 1.958c.06 2.568.31 2.65 1.545.509 1.322-2.294 1.752-2.645 3.167-2.586.642.027.844.102.887.326m52.068-.2c3.884 1.079 4.263 8.053.546 10.046-1.486.797-3.9.409-5.152-.828-1.994-1.97-1.85-6.732.257-8.43 1.107-.892 2.842-1.206 4.349-.788M38.458 17.279c.34.927.77 2.146.957 2.708.186.563.392 1.083.458 1.157.066.073.563-1.127 1.103-2.667l.983-2.8 1.292-.05 1.292-.047V25.927h-2.325l-.046-2.458-.046-2.46-.57 1.585c-.9 2.508-.912 2.527-1.727 2.467l-.695-.051-.754-2.061-.754-2.061-.046 2.52-.046 2.519H35.376V15.594h2.463l.619 1.685m10.25.23v1.918h3.168v-3.833h2.5v10.348l-1.208-.05-1.21-.048-.045-2.125-.047-2.125H48.708v4.333h-2.332V15.594h2.333v1.916m23.967-.875l-.05 1.042-2.042.047-2.041.047v8.171l-1.21-.05-1.207-.048-.044-5.125-.044-5.125H72.725l-.05 1.04m12.868 3.043v4.083h3v-8.166h2.333v8.166h.583c.677 0 .674-.023.475 3.224l-.11 1.776H89.71v-2.833h-6.5V15.594h2.334v4.083m13.666-3v1.083h-4V19.415l1.709.048 1.708.047.05 1.042.049 1.042h-3.516v2.166h4.167v.61c0 .715.157.644.319-.143.097-.474.173-.543.553-.498.772.092 1.11-1.005 2.138-6.927l.21-1.208h5.947v10.333h-2.5V17.76h-.74c-.856 0-.796-.114-1.182 2.25-.986 6.05-1.002 6.063-7.037 5.954l-4.375-.08v-10.29h6.5v1.083m17.584 0v1l-2.042.047-2.042.047v1.656h3.5v2.167h-3.5v2.166h4.167v2.167h-6.667v-10.34l3.292.045 3.292.045v1m6.766-.891c1.849.627 2.574 2.844 1.368 4.177-.242.267-.217.34.325.94 1.485 1.645.67 4.1-1.58 4.77-.587.174-1.58.254-3.16.254h-2.303V15.594h2.392c1.367 0 2.635.082 2.958.192m5.984 1.617v1.809l1.144.096c3.092.259 4.543 2.357 3.314 4.79-.723 1.432-1.766 1.827-4.833 1.828h-2.125V15.595h2.5v1.809m8 3.357v5.167h-2.334V15.594h2.334v5.166m8.299-4.125l-.05 1.042-2.041.047-2.042.047v1.656h3.5v2.167h-3.5v2.166h4.334v2.174l-3.375-.045-3.375-.045-.045-4.915c-.024-2.703-.008-5.01.037-5.125.06-.16.87-.21 3.344-.21h3.263l-.05 1.04m26.583-.776c3.746 1.276 2.422 6.155-1.767 6.51l-1.282.108v3.451h-2.333V15.594h2.303c1.665 0 2.519.073 3.079.264m19.75.777l-.05 1.042-2.041.047-2.041.047v8.156h-2.334V15.594h6.516l-.05 1.04m7.534.043v1.083h-4.166V19.427h3.5v2.167h-3.5v2.166h4.333v2.167h-6.667V15.594h6.5v1.083m24.87 1.843l.047 2.927 1.607-2.885 1.607-2.885 1.27-.05 1.27-.047-.043 5.132-.044 5.132-1.205.049-1.204.048-.046-2.905-.045-2.906-1.585 2.857-1.584 2.857-1.207.049-1.208.049V15.594h2.326l.045 2.926m18.167-.03l.046 2.897 1.599-2.855 1.6-2.855 1.192-.05 1.192-.048v10.348h-2.326l-.045-2.911-.046-2.91-1.606 2.869-1.606 2.869-1.186.049-1.185.049V15.594h2.326l.045 2.896m9.489-1.168c.08 2.197.656 2.827 2.284 2.5l.523-.103v-4.125h2.5v10.333h-2.5v-4h-1.106c-3.02 0-4.061-1.204-4.061-4.697v-1.636h2.296l.064 1.728m13.606-.687l-.05 1.042-2.041.047-2.042.047v1.656h3.5v2.167h-3.5v2.166h4.167v2.174l-3.292-.045-3.291-.045-.044-5.125-.044-5.125H265.892l-.05 1.04m21.238 1.863l.046 2.903 1.6-2.862 1.602-2.861 1.19-.05 1.19-.048v10.348h-2.324l-.046-2.903-.045-2.904-1.596 2.862-1.596 2.862-1.196.049-1.196.049V15.594h2.326l.045 2.903m13.963-1.82v1.083h-4.167V19.427h3.5V21.582l-1.708.048-1.71.047-.048 1.042-.05 1.04h4.349v2.168h-6.666V15.594h6.5v1.083m9.583-.9c1.548.424 2.25 1.42 2.25 3.195 0 2.067-1.236 3.186-3.753 3.399l-1.247.105v3.466l-1.208-.05-1.21-.048-.043-4.915c-.024-2.703-.008-5.01.037-5.125.103-.27 4.205-.291 5.174-.026m8.85 4.774c.889 2.727 1.65 5.055 1.695 5.174.062.168-.213.205-1.23.167l-1.31-.05-.338-1.25-.34-1.25-1.363-.048-1.363-.048-.342 1.15c-.188.632-.342 1.235-.342 1.34 0 .125-.424.19-1.25.19-.75 0-1.25-.07-1.25-.172 0-.095.558-1.876 1.24-3.96.682-2.081 1.413-4.328 1.625-4.991l.385-1.207 1.285-.002 1.286-.001 1.613 4.958m9.066-3.875v1.083h-4.5v1.624l1.458.115c2.553.2 3.7 1.142 3.706 3.042.008 2.533-1.343 3.386-5.361 3.386h-2.303V15.594h7v1.083m18.5 0v1.083h-2.661l-.045 4.042-.044 4.042-1.21.049-1.207.049v-8.168l-1.375-.05-1.375-.047-.05-1.042-.05-1.041h8.017v1.083m3.333.726v1.809l1.262.096c2.809.212 4.22 1.885 3.565 4.224-.5 1.785-1.8 2.395-5.107 2.395h-2.053V15.594h2.333v1.809m8.127 3.316l-.044 5.125-1.208.049-1.208.049V15.594h2.504l-.044 5.125M58.962 18.14c-1.356 1.356-1.053 4.83.485 5.564 1.705.813 3.074-.84 2.887-3.485-.166-2.345-1.985-3.466-3.372-2.08m17.22-.171c-1.933 1.629-1.08 5.958 1.173 5.958 2.134 0 2.849-5.052.86-6.081-.705-.364-1.512-.315-2.033.123m44.527.625v1h.589c1.027 0 1.745-.404 1.745-.982 0-.67-.528-1.018-1.537-1.018h-.797v1m48.778-.89c-.061.062-.111.662-.111 1.334v1.222h.969c1.412 0 2.219-1.09 1.567-2.114-.275-.432-2.101-.765-2.425-.441m8.975.436c-1.356 1.356-1.053 4.83.485 5.564 1.7.81 3.074-.84 2.888-3.47-.168-2.37-1.975-3.492-3.373-2.094m25.594-.116c-.683.574-1.092 1.954-.947 3.192.477 4.053 4.486 3.353 4.237-.74-.151-2.476-1.801-3.705-3.29-2.452m103.82.879v1.356h.894c2.423 0 2.532-2.402.118-2.621l-1.012-.092v1.357m25.462-.935c-1.405 1.155-1.285 4.8.185 5.67 1.61.95 3.025-.487 3.016-3.065-.008-2.392-1.743-3.804-3.201-2.605m-180.206 1.737c-.151.534-.313 1.102-.36 1.263-.072.248.03.29.687.29.726 0 .766-.021.653-.374a33.24 33.24 0 01-.334-1.184c-.293-1.105-.332-1.105-.646.005m60.91-.828c-1.675.613-1.474 3.228.292 3.786.375.119.375.117.375-1.892 0-2.064-.023-2.13-.666-1.894m2.833 1.894c0 2.008 0 2.01.375 1.897 1.535-.465 1.904-2.772.574-3.583-.925-.564-.95-.52-.95 1.686m99.616-1.845c-.777 2.234-.775 2.333.052 2.333.425 0 .664-.075.66-.208-.014-.502-.633-2.351-.712-2.125m-186.113 4.932c1.116-.148 1.254-.213 1.475-.7.467-1.024-.146-1.732-1.5-1.732h-.81v1.27m194.5-.02v1.25h.755c2.813 0 2.848-2.424.036-2.483l-.791-.017v1.25m26.367-.042l.049 1.209.8-.028c2.305-.08 2.295-2.39-.011-2.39h-.887l.049 1.209m-229.701.148v1.19l1.092-.088c2.517-.202 2.476-2.291-.045-2.291h-1.047v1.189m272.873 18.253"/><path d="M36.18 39.052c0 .952.79 1.214.953 1.905.073.309.294 1.146.952 1.904.465.537.69.906.952 1.27.416.576.22-.343 0-1.27-.163-.69-.742-1.05-1.27-1.904-.471-.764-1.085-.768-1.587-1.27s-.952-.953-.952-1.588h-.318v-.317" fill="none"/></g></symbol><symbol fill="none" viewBox="0 0 13 9" id="tube" xmlns="http://www.w3.org/2000/svg"><path fill-rule="evenodd" clip-rule="evenodd" d="M11.574.269a1.63 1.63 0 011.153 1.14C13 2.408 13 4.5 13 4.5s0 2.09-.266 3.092c-.155.559-.59.994-1.152 1.14C10.562 9 6.5 9 6.5 9s-4.063 0-5.074-.269a1.631 1.631 0 01-1.153-1.14C0 6.592 0 4.5 0 4.5s0-2.09.266-3.092C.42.85.856.414 1.418.268 2.438 0 6.5 0 6.5 0s4.063 0 5.074.269zM8 4.5L5 6V3l3 1.5z" fill="#fff"/></symbol><symbol fill="none" viewBox="0 0 12 10" id="twitter" xmlns="http://www.w3.org/2000/svg"><path d="M12 1.185c-.441.2-.918.334-1.417.4a2.545 2.545 0 001.085-1.4A5.037 5.037 0 0110.106.8a2.444 2.444 0 00-1.8-.8C6.947 0 5.841 1.133 5.841 2.526c0 .2.022.393.065.578C3.86 3 2.046 1.993.831.467.621.837.5 1.274.5 1.733c0 .874.434 1.652 1.099 2.104a2.378 2.378 0 01-1.114-.318v.03c0 1.221.846 2.244 1.974 2.473a2.38 2.38 0 01-1.113.045c.31 1 1.221 1.733 2.298 1.755A4.897 4.897 0 01.586 8.904c-.203 0-.398-.015-.586-.037A6.834 6.834 0 003.773 10c4.533 0 7.013-3.844 7.013-7.185 0-.111 0-.215-.008-.326A4.83 4.83 0 0012 1.185z" fill="#fff"/></symbol><symbol fill="none" viewBox="0 0 11 12" id="viber" xmlns="http://www.w3.org/2000/svg"><path d="M9.782 1.112c-.446-.38-.976-.607-1.537-.75A11.34 11.34 0 003.93.095c-.738.099-1.453.288-2.106.652-.769.424-1.3 1.038-1.53 1.887a8.334 8.334 0 00-.277 1.848c-.046.925-.015 1.842.223 2.736.277 1.038.877 1.81 1.914 2.22.116.045.216.106.331.151.1.046.138.114.13.22-.007.72 0 1.44 0 2.19.27-.258.462-.447.593-.599.407-.454.792-.833 1.214-1.257.216-.22.123-.205.462-.205.392.008 1.007.023 1.399-.008.746-.06 1.484-.151 2.199-.363.915-.273 1.645-.75 2.014-1.66.1-.242.192-.485.254-.735.354-1.447.307-2.894.008-4.341-.139-.667-.431-1.266-.977-1.72zm-4.528.871c.008-.136.092-.19.223-.19 1.13.054 1.983.387 2.637 1.258.384.508.592 1.198.615 1.834 0 .099.008.19 0 .288-.008.106-.054.19-.177.19s-.184-.061-.192-.19a4.232 4.232 0 00-.308-1.371c-.353-.85-1.03-1.304-1.906-1.523a4.372 4.372 0 00-.7-.13c-.1 0-.2-.022-.192-.166zm1.145 1.19a3.708 3.708 0 00-.707-.175c-.115-.015-.2-.075-.177-.212.023-.129.108-.174.23-.167.793.076 1.408.357 1.83 1.031.2.318.316.765.3 1.099-.015.235-.046.295-.184.295-.2-.007-.17-.167-.185-.288a3.45 3.45 0 00-.115-.545A1.49 1.49 0 006.4 3.173zm.662 1.31c-.008.069-.008.114-.016.152-.023.083-.077.136-.169.144-.1 0-.146-.053-.177-.136-.015-.061-.023-.122-.03-.175-.062-.31-.247-.523-.562-.606l-.115-.023c-.1-.03-.223-.03-.23-.174 0-.121.091-.19.253-.197a.91.91 0 01.392.099c.415.19.607.47.654.916zm1.668 3.304c-.223.493-.592.81-1.123.962-.192.053-.376.008-.545-.068-2.4-1.008-4.129-2.66-5.105-5.054a1.291 1.291 0 01-.108-.515c0-.614.553-1.19 1.153-1.22a.566.566 0 01.43.16c.424.393.762.84 1.016 1.356.138.28.076.477-.162.674-.038.03-.084.06-.123.09-.323.236-.392.47-.238.834a3.02 3.02 0 001.222 1.417c.208.129.423.258.661.326.223.06.4-.008.539-.174.015-.023.03-.038.046-.06.307-.425.638-.493 1.084-.22.384.234.745.5 1.091.787.223.205.285.432.162.705z" fill="#fff"/></symbol><symbol fill="none" viewBox="0 0 12 10" id="views" xmlns="http://www.w3.org/2000/svg"><path d="M6 .824C3.707.824 1.628 2.286.094 4.66a.628.628 0 000 .661C1.628 7.7 3.707 9.161 6 9.161c2.293 0 4.372-1.462 5.906-3.837a.628.628 0 000-.66C10.372 2.285 8.293.823 6 .823zm.164 7.103c-1.521.112-2.778-1.35-2.683-3.126.079-1.465 1.098-2.652 2.355-2.744 1.521-.111 2.778 1.35 2.683 3.127-.081 1.462-1.1 2.649-2.355 2.743zm-.076-1.356c-.82.06-1.497-.726-1.443-1.682.042-.79.592-1.427 1.27-1.479.819-.06 1.496.727 1.442 1.682-.044.793-.594 1.43-1.269 1.48z" fill="#A8A8A8"/></symbol><symbol fill="none" viewBox="0 0 13 8" id="vk" xmlns="http://www.w3.org/2000/svg"><path fill-rule="evenodd" clip-rule="evenodd" d="M6.354 7.958h.777s.235-.026.356-.166c.113-.13.105-.367.105-.367s-.016-1.126.47-1.292c.477-.166 1.092 1.091 1.74 1.572.493.367.865.288.865.288l1.74-.026s.907-.061.478-.83c-.033-.061-.251-.568-1.295-1.616-1.093-1.091-.947-.916.372-2.803.801-1.153 1.117-1.851 1.02-2.157-.097-.288-.68-.21-.68-.21L10.344.37s-.146-.017-.251.052c-.105.07-.17.227-.17.227s-.308.891-.72 1.651c-.874 1.598-1.222 1.685-1.36 1.58-.332-.226-.25-.925-.25-1.423C7.592.91 7.81.264 7.17.098 6.961.046 6.8.002 6.257.002 5.56-.007 4.97.002 4.63.186c-.226.113-.396.384-.291.393.13.017.42.087.575.314.202.297.194.952.194.952S5.22 3.67 4.84 3.897c-.267.157-.623-.166-1.4-1.615-.397-.743-.696-1.564-.696-1.564S2.688.561 2.583.483c-.122-.097-.3-.131-.3-.131L.423.36S.138.37.041.5C-.048.614.034.858.034.858S1.49 4.535 3.14 6.386c1.497 1.677 3.213 1.572 3.213 1.572z" fill="#fff"/></symbol><symbol fill="none" viewBox="0 0 12 12" id="zen" xmlns="http://www.w3.org/2000/svg"><g clip-path="url(#bqclip0)"><path fill-rule="evenodd" clip-rule="evenodd" d="M1.949.29C3.248-.06 4.597.02 5.926 0c-.08 1.25 0 2.55-.42 3.75-.32.92-1.12 1.63-2.068 1.86-1.12.27-2.288.29-3.437.3.04-1.4-.06-2.85.38-4.2C.6.98 1.23.46 1.948.29zM6.095 0c1.38.03 2.798-.07 4.137.34.68.2 1.229.75 1.429 1.44.4 1.34.32 2.75.34 4.13-1.15-.01-2.319-.03-3.438-.3a2.926 2.926 0 01-2.088-1.93c-.38-1.19-.32-2.45-.38-3.68zM.001 6.09c1.019.01 2.048.05 3.057.22 1 .15 1.968.77 2.358 1.72.53 1.25.39 2.64.5 3.97-1.2-.01-2.408.03-3.587-.19-.67-.13-1.39-.42-1.739-1.05C.14 9.95.09 9 .04 8.09c-.01-.67-.05-1.33-.04-2zm8.732.26c1.07-.22 2.178-.25 3.268-.26-.02 1.38.07 2.79-.34 4.13-.2.68-.74 1.23-1.419 1.43-1.339.41-2.768.32-4.147.34.06-1.25 0-2.55.41-3.75.33-.98 1.22-1.69 2.228-1.89z" fill="#fff"/></g><defs><clipPath id="bqclip0"><path fill="#fff" d="M0 0h12v12H0z"/></clipPath></defs></symbol></svg>