<svg width="10" height="10" fill="none" xmlns="http://www.w3.org/2000/svg"><path d="M4.73.859c1.267 0 1.413.007 1.915.029.459.022.713.095.88.16.22.087.38.19.547.357.167.167.269.32.356.546.066.167.146.414.16.88.022.502.03.648.03 1.914 0 1.267-.008 1.412-.03 1.915-.021.458-.094.713-.16.88a1.502 1.502 0 01-.356.546c-.168.168-.32.27-.546.357-.168.065-.415.145-.88.16-.503.022-.649.03-1.915.03-1.267 0-1.412-.008-1.914-.03-.459-.022-.714-.095-.881-.16a1.511 1.511 0 01-.546-.357 1.452 1.452 0 01-.356-.546c-.066-.167-.146-.415-.16-.88-.022-.503-.03-.648-.03-1.915 0-1.266.008-1.412.03-1.914.021-.458.094-.713.16-.88.087-.219.189-.379.356-.546.168-.168.32-.27.546-.357.167-.065.415-.145.88-.16.503-.03.656-.03 1.915-.03zm0-.859C3.444 0 3.284.007 2.78.03c-.502.02-.85.1-1.15.216a2.342 2.342 0 00-.837.546 2.342 2.342 0 00-.546.837C.131 1.93.051 2.278.03 2.78.007 3.283 0 3.45 0 4.73c0 1.29.007 1.45.03 1.951.021.503.101.852.217 1.15.124.313.284.575.546.837.262.263.524.423.837.546.299.117.648.197 1.15.219.503.022.67.029 1.95.029 1.29 0 1.45-.007 1.951-.03.503-.021.852-.101 1.15-.218.313-.123.575-.284.837-.546a2.32 2.32 0 00.546-.837c.117-.298.197-.647.219-1.15.022-.502.029-.67.029-1.95 0-1.288-.007-1.448-.03-1.95-.021-.503-.101-.852-.218-1.15a2.342 2.342 0 00-.546-.838 2.342 2.342 0 00-.837-.546C7.533.131 7.184.051 6.681.03 6.18.007 6.02 0 4.731 0z" fill="#fff"/><path d="M4.73 2.307a2.43 2.43 0 102.432 2.431 2.426 2.426 0 00-2.431-2.43zm0 4.01a1.579 1.579 0 111.581-1.579 1.58 1.58 0 01-1.58 1.58zM7.264 2.78a.568.568 0 100-1.135.568.568 0 000 1.135z" fill="#fff"/></svg>