<svg width="328" height="60" fill="none" xmlns="http://www.w3.org/2000/svg"><g clip-path="url(#clip0)"><path d="M72.461 0v34.788h-2.308l-.064-5.277c-1.41 3.323-4.36 5.733-8.529 5.733-3.463 0-6.092-1.433-8.08-4.104-2.244-2.997-2.565-6.254-2.565-8.86 0-2.54.321-5.863 2.565-8.86 2.373-3.257 5.451-4.104 8.08-4.104 3.527 0 6.862 1.759 8.529 5.668V0h2.372zm-4.168 15.049c-1.218-1.824-3.27-3.453-6.54-3.453-3.72 0-5.644 2.15-6.541 3.453-1.732 2.606-1.796 6.189-1.796 7.231 0 2.41.513 5.342 1.732 7.231.897 1.369 2.95 3.453 6.605 3.453 2.95 0 4.937-1.172 6.476-3.583 1.475-2.215 1.924-4.495 1.924-7.166 0-1.824-.257-4.756-1.86-7.166zm14.3-5.147l.129 5.147c1.667-3.844 5.065-5.668 8.528-5.668 2.565 0 5.643.847 8.08 4.104 2.244 2.997 2.565 6.32 2.565 8.86 0 2.606-.321 5.864-2.565 8.86-1.924 2.606-4.617 4.104-8.08 4.104-4.232 0-7.118-2.41-8.528-5.732v15.179h-2.373V9.902h2.244zm1.924 19.544c1.539 2.41 3.591 3.583 6.477 3.583 3.655 0 5.643-2.084 6.605-3.453 1.282-1.954 1.73-4.886 1.73-7.23 0-1.108-.127-4.626-1.795-7.232-.897-1.368-2.821-3.453-6.54-3.453-3.27 0-5.323 1.629-6.541 3.453-1.603 2.41-1.86 5.342-1.86 7.231 0 2.606.45 4.886 1.924 7.101zm26.676-19.544l.064 4.69c.641-1.758 1.667-2.996 2.693-3.778a6.926 6.926 0 014.233-1.433c.962 0 1.988.26 2.821.521v2.41c-.898-.455-1.731-.65-2.821-.65-2.565 0-4.233 1.172-5.451 3.126-1.539 2.606-1.603 5.668-1.603 7.818v12.182h-2.437V9.902h2.501zm16.16 3.844c1.539-2.215 4.232-4.495 8.528-4.495 5.002 0 7.631 3.062 8.593 4.495 1.475 2.085 2.373 4.886 2.373 8.6 0 3.191-.642 5.993-2.437 8.599-1.539 2.15-4.168 4.495-8.529 4.495-4.296 0-7.054-2.346-8.528-4.495-1.988-2.867-2.373-6.124-2.373-8.6 0-2.475.385-5.733 2.373-8.6zm1.731 15.374c1.988 3.453 4.874 4.105 6.861 4.105 1.988 0 4.874-.652 6.862-4.105 1.282-2.215 1.539-4.82 1.539-6.84 0-2.02-.321-4.625-1.539-6.84-1.988-3.453-4.81-4.105-6.862-4.105-2.052 0-4.873.652-6.861 4.105-1.283 2.215-1.539 4.82-1.539 6.84 0 2.085.256 4.625 1.539 6.84zm27.125-19.218l.128 4.43c.834-1.89 2.052-2.931 2.565-3.387 1.283-1.043 2.822-1.564 4.617-1.63 3.399-.064 6.092 2.02 6.861 5.278.898-2.215 3.078-5.212 7.503-5.277 3.783-.065 5.771 1.759 6.797 3.518 1.411 2.41 1.283 5.472 1.283 7.427v14.527h-2.437V20.195c0-2.605-.192-4.56-.962-5.928-.898-1.563-2.757-2.671-5.13-2.606-2.757.13-4.232 1.76-4.873 2.606-1.347 1.954-1.411 4.3-1.411 5.928v14.593h-2.437V20.195c0-3.061-.128-4.69-.769-5.928-.513-1.107-1.732-2.671-4.489-2.606-1.988.065-4.104.912-5.515 3.192-1.475 2.28-1.603 5.277-1.603 7.688v12.247H153.9V9.902h2.309zm39.886 21.108v3.778h-2.822V31.01h2.822z" fill="#000"/><path d="M205.329 13.746c1.539-2.215 4.232-4.495 8.528-4.495 5.002 0 7.631 3.062 8.593 4.495 1.475 2.085 2.373 4.886 2.373 8.6 0 3.191-.642 5.993-2.437 8.599-1.539 2.15-4.168 4.495-8.529 4.495-4.296 0-7.053-2.346-8.528-4.495-1.988-2.867-2.373-6.124-2.373-8.6 0-2.475.385-5.733 2.373-8.6zm1.731 15.374c1.924 3.453 4.809 4.105 6.861 4.105 1.988 0 4.874-.652 6.862-4.105 1.282-2.215 1.539-4.82 1.539-6.84 0-2.02-.321-4.625-1.539-6.84-1.988-3.453-4.81-4.105-6.862-4.105-1.987 0-4.873.652-6.861 4.105-1.282 2.215-1.539 4.82-1.539 6.84-.064 2.085.257 4.625 1.539 6.84zm27.061-19.218l.128 4.69c.834-1.563 1.988-2.866 3.206-3.647 1.539-1.108 3.335-1.564 5.259-1.564 3.975 0 5.899 2.02 6.797 3.388 1.475 2.28 1.347 4.886 1.347 7.1v14.854h-2.565V19.935c0-2.15.064-4.17-.834-5.668-.706-1.172-2.18-2.606-5.066-2.606-2.116 0-4.617.717-6.413 3.192-1.795 2.41-1.859 5.017-1.859 7.688v12.247h-2.437V9.902h2.437zM261.118 0v34.788h-2.437V0h2.437zm11.414 0v3.974h-2.629V0h2.629zm-.064 9.902v24.821h-2.437V9.903h2.437zm10.837 0l.128 4.69c.834-1.563 1.988-2.866 3.206-3.647 1.539-1.108 3.335-1.564 5.259-1.564 3.975 0 5.899 2.02 6.797 3.388 1.475 2.28 1.346 4.886 1.346 7.1v14.854h-2.565V19.935c0-2.15.065-4.17-.833-5.668-.706-1.172-2.18-2.606-5.066-2.606-2.116 0-4.617.717-6.413 3.192-1.795 2.41-1.859 5.017-1.859 7.688v12.247h-2.437V9.902h2.437zm44.374 17.003c-.32 2.15-1.346 4.04-2.565 5.408-1.795 1.954-4.232 3.127-7.63 3.127h-.193c-3.783 0-6.669-1.564-8.593-4.365-1.859-2.671-2.308-5.928-2.308-8.73 0-2.931.449-6.058 2.373-8.795 2.052-2.996 4.873-4.3 8.528-4.3 4.81 0 7.31 2.411 8.721 4.43 1.924 2.867 2.052 6.06 2.052 8.405v.716h-19.109v.326c0 2.02.449 4.69 1.603 6.58 1.218 2.02 3.335 3.648 6.669 3.648h.192c2.95 0 4.746-1.173 5.836-2.345.705-.717 1.667-2.02 1.924-4.105h2.5zm-17.057-12.117c-.898 1.368-1.667 3.453-1.667 5.798v.196h16.544v-.521c0-1.955-.513-3.974-1.411-5.473-1.09-1.759-3.142-3.518-6.669-3.518h-.128c-3.206 0-5.258 1.368-6.669 3.518z" fill="#9E6B36"/><path d="M30.716 22.15l-8.529-10.49c-.064-.065-.128-.13-.192-.13s-.193.065-.193.13l-4.296 5.277c-.128.13-.064.326.064.391.128.13.32.065.385-.065l2.886-3.518-3.72 8.339h-3.59c-.129 0-.193.065-.257.195s0 .196.064.326l8.464 10.423c.065.065.129.13.193.13s.192-.065.192-.13l4.232-5.277c.129-.13.065-.325-.064-.39-.128-.13-.32-.065-.384.065l-2.886 3.518 3.848-8.34h3.59c.129 0 .257-.13.257-.26 0-.065 0-.13-.064-.195zm-8.721-9.642l4.296 9.577h-8.593l4.297-9.577zm-7.888 10.098h3.014l3.72 8.339-6.734-8.34zm7.888 9.576l-4.297-9.51h8.593l-4.296 9.51zm4.938-10.097l-3.72-8.339 6.733 8.339h-3.014z" fill="#000"/><path d="M21.995 3.844c-10.068 0-18.212 8.273-18.212 18.501h1.924c0-9.12 7.31-16.547 16.288-16.547 8.977 0 16.288 7.427 16.288 16.547 0 9.12-7.31 16.548-16.288 16.548v1.954c10.068 0 18.211-8.274 18.211-18.502S32.063 3.844 21.995 3.844z" fill="#000"/><path d="M34.5 22.345c0 7.036-5.644 12.704-12.505 12.704-6.926 0-12.504-5.733-12.504-12.704 0-7.036 5.643-12.703 12.504-12.703V7.687c-7.952 0-14.428 6.58-14.428 14.658s6.476 14.658 14.428 14.658c7.951 0 14.428-6.58 14.428-14.658H34.5z" fill="#9E6B36"/><path d="M37.577 6.515C33.41 2.345 27.894 0 21.995 0v1.954c11.094 0 20.135 9.12 20.135 20.391 0 11.27-9.041 20.456-20.071 20.456-11.158 0-20.135-9.185-20.135-20.456H0v22.346h21.995c5.9 0 11.414-2.346 15.582-6.515 4.169-4.235 6.413-9.837 6.413-15.83a22.62 22.62 0 00-6.413-15.831z" fill="#9E6B36"/><path d="M21.995 0c5.9 0 11.414 2.345 15.582 6.515 4.169 4.234 6.413 9.837 6.413 15.83V0H21.995z" fill="#000"/><path d="M77.912 39.023h-27.06v1.433h27.06v-1.433zm250.088 0H85.094v1.433H328v-1.433z" fill="#9E6B36"/><path d="M5.515 51.857v7.948h-.577v-7.427H.578v7.492H0v-8.013h5.515zm7.182 1.237a2.906 2.906 0 012.5-1.368c.706 0 1.732.196 2.502 1.368.577.912.705 2.02.705 2.737 0 .716-.064 1.824-.706 2.736-.769 1.172-1.86 1.368-2.5 1.368-.642 0-1.732-.196-2.501-1.368-.577-.912-.706-2.02-.706-2.736 0-.717.065-1.825.706-2.737zm.449 5.212c.577.977 1.474 1.173 2.052 1.173.577 0 1.41-.196 2.052-1.173.513-.782.577-1.759.577-2.41 0-.652-.064-1.629-.577-2.41-.578-.978-1.475-1.173-2.052-1.173-.578 0-1.411.195-2.052 1.172-.513.782-.578 1.76-.578 2.41 0 .587.065 1.564.578 2.411zm13.723-6.449c.705 0 1.474 0 2.18.52.705.522.833 1.304.833 1.89 0 .586-.128 1.303-.833 1.89-.706.52-1.475.52-2.18.52h-1.411v3.128h-.577v-7.948h1.988zm-1.411 4.3h1.475c.513 0 1.218 0 1.667-.391.32-.261.641-.717.641-1.499 0-.912-.385-1.303-.641-1.498-.513-.391-1.219-.391-1.667-.391h-1.475v3.778zm15.775-4.3v.52h-2.566v7.493h-.577v-7.492h-2.5v-.521h5.642zm9.105 0l2.822 7.948h-.577l-.898-2.671h-3.591l-.962 2.67h-.577l2.821-7.947h.962zm-2.052 4.82h3.142l-1.539-4.364h-.128l-1.475 4.364zm13.915-4.82l2.758 7.948h-.577l-2.565-7.557h-.129l-2.565 7.557h-.577l2.758-7.948h.897zm19.174 0l2.693 7.426v.522h-6.284v-.522l2.693-7.426h.898zm-2.95 7.426h5.066l-2.5-7.035h-.13l-2.436 7.035zm14.749-7.426l2.757 7.948h-.577l-2.565-7.557h-.128l-2.565 7.557h-.577l2.757-7.948h.898zm13.851 8.013h-.577v-3.648h-2.052c-.193 0-.385 0-.641.13-.385.195-.514.456-.578.716l-1.218 2.802h-.641l1.282-2.932c.257-.521.449-.717.77-.912a2.157 2.157 0 01-.77-.39c-.513-.392-.705-.913-.705-1.564v-.066c0-1.042.577-1.563.962-1.758.577-.391 1.346-.391 2.18-.391h1.988v8.013zm-2.437-7.492h-.064c-.449 0-.898 0-1.347.326-.32.26-.641.651-.641 1.303v.065c0 .716.385 1.107.641 1.303.449.325.962.325 1.347.325h1.924v-3.322h-1.86zm17.186-.521v3.518h4.36v-3.518h.577v7.948h-.577V55.83h-4.36v3.974h-.577v-7.948h.577zm16.352 0v.52h-4.169v2.998h4.04v.52h-4.04v3.388h4.297v.522h-4.874v-7.948h4.746zm9.554 0l2.693 7.426v.522h-6.284v-.522l2.693-7.426h.898zm-3.014 7.426h5.066l-2.501-7.035h-.128l-2.437 7.035zm13.723-7.426c.705 0 1.475 0 2.18.52.706.522.834 1.304.834 1.89 0 .586-.128 1.303-.834 1.89-.641.52-1.475.52-2.18.52h-1.411v3.128h-.577v-7.948h1.988zm-1.411 4.3h1.475c.513 0 1.219 0 1.667-.391.321-.261.642-.717.642-1.499 0-.912-.385-1.303-.642-1.498-.513-.391-1.218-.391-1.667-.391h-1.475v3.778zm11.286-3.063c.77-1.172 1.86-1.368 2.501-1.368.706 0 1.732.196 2.501 1.368.577.912.705 2.02.705 2.737 0 .716-.064 1.824-.705 2.736-.769 1.172-1.86 1.368-2.501 1.368-.641 0-1.731-.196-2.501-1.368-.577-.912-.705-2.02-.705-2.736 0-.717.128-1.825.705-2.737zm.449 5.212c.577.977 1.475 1.173 2.052 1.173s1.411-.196 2.052-1.173c.513-.782.577-1.759.577-2.41 0-.652-.064-1.629-.577-2.41-.577-.978-1.475-1.173-2.052-1.173s-1.411.195-2.052 1.172c-.513.782-.577 1.76-.577 2.41.064.587.128 1.564.577 2.411zm17.25-6.449v7.948h-.577v-7.427h-4.361v7.492h-.577v-8.013h5.515zm7.182 1.237c.769-1.172 1.859-1.368 2.501-1.368.641 0 1.731.196 2.501 1.368.577.912.705 2.02.705 2.737 0 .716-.064 1.824-.705 2.736-.77 1.172-1.86 1.368-2.501 1.368-.642 0-1.732-.196-2.501-1.368-.577-.912-.706-2.02-.706-2.736.065-.717.129-1.825.706-2.737zm.513 5.212c.577.977 1.475 1.173 2.052 1.173s1.411-.196 2.052-1.173c.513-.782.577-1.759.577-2.41 0-.652-.064-1.629-.577-2.41-.577-.978-1.475-1.173-2.052-1.173s-1.411.195-2.052 1.172c-.513.782-.577 1.76-.577 2.41 0 .587.064 1.564.577 2.411zm14.749-6.449l2.757 7.948h-.577l-2.565-7.557h-.128l-2.565 7.557h-.578l2.758-7.948h.898zm9.362 0v3.127h1.731c.449 0 1.347 0 1.988.586.385.326.77.912.77 1.824s-.385 1.498-.77 1.824c-.641.521-1.475.587-2.244.587h-2.052v-7.948h.577zm0 7.426h1.86c.384 0 .897 0 1.346-.325.257-.196.641-.652.641-1.499 0-.912-.384-1.303-.641-1.498-.449-.326-1.154-.391-1.539-.391h-1.731v3.713h.064zm13.594-3.843c.385 0 .962-.066 1.347-.326.321-.195.641-.586.641-1.303 0-.456-.128-.912-.577-1.238-.513-.39-1.09-.39-1.411-.39-.384 0-.961.065-1.41.455-.449.391-.706.978-.77 1.629h-.577c.064-.782.385-1.498.898-1.954.577-.456 1.218-.587 1.795-.587h.064c.642 0 1.283.196 1.796.587.385.325.705.781.769 1.563 0 .912-.577 1.629-1.474 1.824.833.196 1.539.847 1.603 1.955v.065c0 .847-.385 1.368-.706 1.629-.513.456-1.282.65-1.988.65a3.17 3.17 0 01-1.859-.585c-.641-.522-.962-1.238-1.026-2.02h.577c.064.717.385 1.303.834 1.629.32.195.769.39 1.41.39.257 0 .962 0 1.539-.455.321-.261.577-.717.577-1.303v-.066c0-.586-.256-1.042-.769-1.368a2.952 2.952 0 00-1.411-.325h-.769v-.522h.897v.066zm9.683-2.346c.77-1.172 1.86-1.368 2.501-1.368.706 0 1.732.196 2.501 1.368.577.912.705 2.02.705 2.737 0 .716-.064 1.824-.705 2.736-.769 1.172-1.86 1.368-2.501 1.368-.641 0-1.731-.196-2.501-1.368-.577-.912-.705-2.02-.705-2.736 0-.717.128-1.825.705-2.737zm.449 5.212c.577.977 1.475 1.173 2.052 1.173s1.411-.196 2.052-1.173c.513-.782.577-1.759.577-2.41 0-.652-.064-1.629-.577-2.41-.577-.978-1.475-1.173-2.052-1.173s-1.411.195-2.052 1.172c-.513.782-.577 1.76-.577 2.41.064.587.128 1.564.577 2.411zm14.364-6.449h.193c.448 0 1.026 0 1.603.39.449.326.769.782.769 1.564 0 .912-.513 1.564-1.346 1.824.833.26 1.474.912 1.474 1.955v.065c0 .847-.384 1.433-.833 1.759-.577.39-1.283.456-1.86.456h-2.565v-8.013h2.565zm-2.052 3.518h1.988c.513 0 .962 0 1.411-.261.32-.195.577-.586.577-1.238 0-.586-.257-1.042-.641-1.237-.385-.261-.898-.261-1.411-.261h-1.988v2.997h.064zm0 3.908h1.988c.513 0 1.026 0 1.411-.26.385-.196.705-.652.705-1.368 0-.587-.192-1.043-.705-1.434-.513-.325-.962-.325-1.347-.325h-1.988v3.387h-.064zm14.3-7.426l2.822 7.948h-.578l-.961-2.671h-3.527l-.962 2.67h-.577l2.821-7.947h.962zm-2.052 4.82h3.142l-1.539-4.364h-.128l-1.475 4.364zm15.839-4.82v.52h-2.565v7.493h-.577v-7.492h-2.501v-.521h5.643zm10.837 0v.52h-4.168v2.998h4.04v.52h-4.04v3.388h4.296v.522h-4.873v-7.948h4.745zm9.619 0l2.757 7.948h-.577l-2.565-7.557h-.128l-2.565 7.557h-.577l2.757-7.948h.898zm13.53 0v.52h-4.168v2.998h4.04v.52h-4.04v3.388h4.297v.522h-4.874v-7.948h4.745zm7.182 0v5.211l4.361-3.387v-1.89H328v7.948h-.577v-5.472l-4.361 3.388v2.084h-.577v-7.882h.577zm.962-1.694c0 .195.128.39.321.651.256.196.577.326.898.326.384 0 .641-.13.897-.326a.796.796 0 00.321-.651h.577a1.815 1.815 0 01-.513.977 1.94 1.94 0 01-1.282.456c-.449 0-.898-.13-1.283-.456-.321-.326-.513-.651-.513-.977h.577z" fill="#000"/></g><defs><clipPath id="clip0"><path fill="#fff" d="M0 0h328v60H0z"/></clipPath></defs></svg>