<svg width="13" height="8" fill="none" xmlns="http://www.w3.org/2000/svg"><path fill-rule="evenodd" clip-rule="evenodd" d="M6.354 7.958h.777s.235-.026.356-.166c.113-.13.105-.367.105-.367s-.016-1.126.47-1.292c.477-.166 1.092 1.091 1.74 1.572.493.367.865.288.865.288l1.74-.026s.907-.061.478-.83c-.033-.061-.251-.568-1.295-1.616-1.093-1.091-.947-.916.372-2.803.801-1.153 1.117-1.851 1.02-2.157-.097-.288-.68-.21-.68-.21L10.344.37s-.146-.017-.251.052c-.105.07-.17.227-.17.227s-.308.891-.72 1.651c-.874 1.598-1.222 1.685-1.36 1.58-.332-.226-.25-.925-.25-1.423C7.592.91 7.81.264 7.17.098 6.961.046 6.8.002 6.257.002 5.56-.007 4.97.002 4.63.186c-.226.113-.396.384-.291.393.13.017.42.087.575.314.202.297.194.952.194.952S5.22 3.67 4.84 3.897c-.267.157-.623-.166-1.4-1.615-.397-.743-.696-1.564-.696-1.564S2.688.561 2.583.483c-.122-.097-.3-.131-.3-.131L.423.36S.138.37.041.5C-.048.614.034.858.034.858S1.49 4.535 3.14 6.386c1.497 1.677 3.213 1.572 3.213 1.572z" fill="#fff"/></svg>