<svg width="12" height="12" fill="none" xmlns="http://www.w3.org/2000/svg"><g clip-path="url(#clip0)"><path fill-rule="evenodd" clip-rule="evenodd" d="M1.949.29C3.248-.06 4.597.02 5.926 0c-.08 1.25 0 2.55-.42 3.75-.32.92-1.12 1.63-2.068 1.86-1.12.27-2.288.29-3.437.3.04-1.4-.06-2.85.38-4.2C.6.98 1.23.46 1.948.29zM6.095 0c1.38.03 2.798-.07 4.137.34.68.2 1.229.75 1.429 1.44.4 1.34.32 2.75.34 4.13-1.15-.01-2.319-.03-3.438-.3a2.926 2.926 0 01-2.088-1.93c-.38-1.19-.32-2.45-.38-3.68zM.001 6.09c1.019.01 2.048.05 3.057.22 1 .15 1.968.77 2.358 1.72.53 1.25.39 2.64.5 3.97-1.2-.01-2.408.03-3.587-.19-.67-.13-1.39-.42-1.739-1.05C.14 9.95.09 9 .04 8.09c-.01-.67-.05-1.33-.04-2zm8.732.26c1.07-.22 2.178-.25 3.268-.26-.02 1.38.07 2.79-.34 4.13-.2.68-.74 1.23-1.419 1.43-1.339.41-2.768.32-4.147.34.06-1.25 0-2.55.41-3.75.33-.98 1.22-1.69 2.228-1.89z" fill="#fff"/></g><defs><clipPath id="clip0"><path fill="#fff" d="M0 0h12v12H0z"/></clipPath></defs></svg>