<svg id="coal2" width="60" height="60" viewBox="0 0 60 60" fill="white" xmlns="http://www.w3.org/2000/svg">
<g clip-path="url(#clip0)" fill="white">
<path d="M18.3144 46.6399C16.7175 46.6399 15.4183 47.939 15.4183 49.5359C15.4183 51.1329 16.7175 52.432 18.3144 52.432C19.9113 52.432 21.2104 51.1329 21.2104 49.5359C21.2104 47.939 19.9113 46.6399 18.3144 46.6399ZM18.3144 50.6742C17.6868 50.6742 17.1761 50.1636 17.1761 49.5359C17.1761 48.9083 17.6867 48.3977 18.3144 48.3977C18.942 48.3977 19.4526 48.9083 19.4526 49.5359C19.4526 50.1636 18.942 50.6742 18.3144 50.6742Z" fill="white"/>
<path d="M41.5737 52.432C43.1706 52.432 44.4697 51.1329 44.4697 49.5359C44.4697 47.939 43.1706 46.6399 41.5737 46.6399C39.9768 46.6399 38.6776 47.939 38.6776 49.5359C38.6776 51.1329 39.9768 52.432 41.5737 52.432ZM41.5737 48.3977C42.2013 48.3977 42.7119 48.9083 42.7119 49.5359C42.7119 50.1636 42.2013 50.6742 41.5737 50.6742C40.946 50.6742 40.4354 50.1636 40.4354 49.5359C40.4354 48.9083 40.946 48.3977 41.5737 48.3977Z" fill="white"/>
<path d="M56.8135 53.6258H45.7485C46.7827 52.5705 47.422 51.1269 47.422 49.5361C47.422 47.8904 46.7376 46.4024 45.6398 45.3388C48.7296 43.0946 50.7894 40.7668 51.7887 39.5105C52.2217 38.9653 52.5408 38.3238 52.7113 37.6562C52.9232 36.8294 53.1178 35.9801 53.2898 35.1316C53.3862 34.6558 53.0786 34.192 52.6029 34.0957C52.1268 33.9994 51.6634 34.3069 51.567 34.7825C51.4009 35.6018 51.2131 36.4217 51.0084 37.2205C50.8986 37.6506 50.6925 38.0644 50.4127 38.4166C49.4192 39.666 47.3094 42.0412 44.1116 44.2682C43.3438 43.8969 42.4831 43.6885 41.5746 43.6885C39.6865 43.6885 38.0055 44.5889 36.9357 45.982H22.9543C21.8845 44.5889 20.2034 43.6885 18.3153 43.6885C17.4068 43.6885 16.5461 43.8969 15.7783 44.2682C12.5803 42.0404 10.4712 39.6655 9.47746 38.4159C9.19457 38.061 8.99383 37.6582 8.88109 37.22C7.13711 30.4037 7.21504 24.4103 7.31371 22.3106H52.5773C52.6473 23.7804 52.7084 27.1573 52.1397 31.3732C52.0748 31.8542 52.4121 32.2969 52.8932 32.3617C52.933 32.3671 52.9726 32.3696 53.0118 32.3696C53.445 32.3696 53.8223 32.0492 53.8817 31.6082C54.4628 27.3005 54.4135 23.8941 54.3391 22.3105H54.9214C56.3866 22.3105 57.5786 21.1185 57.5786 19.6533V18.629C57.5786 17.1639 56.3866 15.9718 54.9214 15.9718H52.9683L48.6775 6.05741C48.4893 5.62241 47.9897 5.41487 47.5487 5.58878L42.9403 7.40518L37.4252 1.88893C37.1694 1.63311 36.7831 1.5601 36.4514 1.70506L31.8827 3.70346L26.0393 0.129362C25.6504 -0.108646 25.1438 -0.00950558 24.8733 0.357526L19.8089 7.2253L14.5059 5.27049C14.1147 5.12635 13.6763 5.27671 13.4559 5.63038L11.0289 9.52569C10.7723 9.93772 10.8981 10.4797 11.3102 10.7365C11.7221 10.9932 12.2642 10.8673 12.5209 10.4553L13.7223 8.52702L14.9855 15.9723H9.08183L10.6609 13.4391C10.9177 13.0271 10.792 12.485 10.38 12.2283C9.96812 11.9714 9.42601 12.0974 9.16926 12.5092L7.01066 15.9722H4.96844C3.50324 15.9722 2.31121 17.1642 2.31121 18.6294V19.6536C2.31121 21.1188 3.50324 22.3108 4.96844 22.3108H5.55062C5.44152 24.5927 5.38246 30.637 7.17836 37.6573C7.35355 38.3379 7.66445 38.9619 8.10215 39.511C9.10082 40.7667 11.1602 43.0939 14.25 45.3389C13.1522 46.4025 12.4679 47.8905 12.4679 49.5362C12.4679 51.1269 13.1071 52.5705 14.1413 53.6259H3.18801C1.43066 53.6259 0.000976562 55.0556 0.000976562 56.8131C0.000976562 58.5705 1.43066 60.0002 3.18801 60.0002H56.8135C58.5708 60.0002 60.0005 58.5705 60.0005 56.8131C60.0005 55.0556 58.5709 53.6258 56.8135 53.6258ZM28.1328 8.38194L26.8825 2.70573L30.5557 4.95245L28.1328 8.38194ZM26.6344 9.75069L23.0246 10.1597L21.2598 8.21952L25.1386 2.95956L26.6344 9.75069ZM23.1783 11.9113L27.8015 11.3876C28.0489 11.3596 28.2728 11.2278 28.4175 11.0253C28.4182 11.0243 28.4188 11.0232 28.4195 11.0222C28.4198 11.0219 28.4201 11.0217 28.4202 11.0215L32.3923 5.39928L35.3697 4.09698L32.9073 11.7498C32.8285 11.9948 32.8611 12.2621 32.9964 12.4812C33.1318 12.7002 33.3564 12.8488 33.6108 12.8878L39.8264 13.8404L39.0516 15.9723H20.4345L23.1783 11.9113ZM40.4389 12.1557L34.8966 11.3064L37.1995 4.14936L41.7094 8.66014L40.4389 12.1557ZM43.4175 9.10651L46.7125 7.80807L45.1738 15.9722H40.922L43.4175 9.10651ZM48.2035 9.38788L51.053 15.9721H46.9626L48.2035 9.38788ZM15.3216 7.44467L19.6198 9.02905L21.5617 11.164L18.3129 15.9722H16.7683L15.3216 7.44467ZM4.06902 19.6535V18.6293C4.06902 18.1333 4.4725 17.7299 4.96844 17.7299H54.9215C55.4174 17.7299 55.8209 18.1333 55.8209 18.6293V19.6535C55.8209 20.1494 55.4174 20.5529 54.9215 20.5529H4.96844C4.4725 20.5528 4.06902 20.1494 4.06902 19.6535ZM41.5745 45.4464C43.8296 45.4464 45.6641 47.281 45.6641 49.5361C45.6641 51.7911 43.8296 53.6258 41.5745 53.6258C39.3195 53.6258 37.4848 51.7911 37.4848 49.5361C37.4848 47.281 39.3195 45.4464 41.5745 45.4464ZM36.0105 47.7398C35.8272 48.3062 35.727 48.9095 35.727 49.5361C35.727 51.1268 36.3662 52.5704 37.4004 53.6258H22.4893C23.5234 52.5705 24.1627 51.1269 24.1627 49.5361C24.1627 48.9095 24.0625 48.3062 23.8792 47.7398H36.0105ZM14.2255 49.5361C14.2255 47.281 16.0601 45.4464 18.3152 45.4464C20.5702 45.4464 22.4049 47.281 22.4049 49.5361C22.4049 51.7911 20.5702 53.6258 18.3152 53.6258C16.0601 53.6258 14.2255 51.7911 14.2255 49.5361ZM56.8135 58.2422H3.18801C2.39992 58.2422 1.75879 57.601 1.75879 56.8128C1.75879 56.0246 2.39992 55.3835 3.18801 55.3835H56.8135C57.6016 55.3835 58.2427 56.0246 58.2427 56.8128C58.2427 57.601 57.6017 58.2422 56.8135 58.2422Z" fill="white"/>
</g>
<defs>
<clipPath id="clip0">
<rect width="60" height="60" fill="white"/>
</clipPath>
</defs>
</svg>
