<svg width="205" height="254" viewBox="0 0 205 254" fill="none" xmlns="http://www.w3.org/2000/svg">
<path opacity="0.05" d="M204.25 124.705L104.53 1.53011C103.78 0.765051 103.03 0 102.28 0C101.531 0 100.031 0.765051 100.031 1.53011L49.7959 63.5C48.2964 65.0301 49.0461 67.3253 50.5457 68.0904C52.0453 69.6205 54.2946 68.8554 55.0444 67.3253L88.7844 26.012L45.2973 123.94H3.30968C1.81012 123.94 1.06035 124.705 0.310571 126.235C-0.439207 127.765 0.310559 128.53 1.06034 130.06L100.031 252.47C100.781 253.235 101.531 254 102.28 254C103.03 254 104.53 253.235 104.53 252.47L154.015 190.5C155.515 188.97 154.765 186.675 153.265 185.91C151.766 184.38 149.516 185.145 148.767 186.675L115.027 227.988L160.013 130.06H202.001C203.5 130.06 205 128.53 205 127C205 126.235 205 125.47 204.25 124.705ZM102.28 11.4759L152.516 123.94H52.0453L102.28 11.4759ZM10.0577 130.06H45.2973L88.7844 227.988L10.0577 130.06ZM102.28 242.524L52.0453 130.825H152.516L102.28 242.524ZM160.013 123.94L116.526 26.012L195.253 123.94H160.013Z" fill="white"/>
</svg>
