<svg width="10" height="10" viewBox="0 0 10 10" fill="none" xmlns="http://www.w3.org/2000/svg">
<path d="M4.73091 0.858845C5.99734 0.858845 6.14291 0.866125 6.64511 0.88796C7.10364 0.909795 7.35838 0.982575 7.52578 1.04808C7.74413 1.13542 7.90426 1.23732 8.07166 1.40472C8.23906 1.57212 8.34096 1.72497 8.4283 1.95059C8.4938 2.11799 8.57386 2.36546 8.58842 2.83127C8.61025 3.33347 8.61753 3.47904 8.61753 4.74547C8.61753 6.0119 8.61025 6.15746 8.58842 6.65966C8.56658 7.1182 8.4938 7.37294 8.4283 7.54035C8.34096 7.7587 8.23906 7.91882 8.07166 8.08622C7.90426 8.25362 7.75141 8.35551 7.52578 8.44285C7.35838 8.50836 7.11092 8.58841 6.64511 8.60297C6.14291 8.62481 5.99734 8.63209 4.73091 8.63209C3.46448 8.63209 3.31892 8.62481 2.81672 8.60297C2.35818 8.58113 2.10343 8.50836 1.93603 8.44285C1.71768 8.35551 1.55756 8.25362 1.39016 8.08622C1.22276 7.91882 1.12087 7.76597 1.03353 7.54035C0.968022 7.37294 0.887955 7.12547 0.873398 6.65966C0.851563 6.15746 0.844283 6.0119 0.844283 4.74547C0.844283 3.47904 0.851563 3.33347 0.873398 2.83127C0.895233 2.37273 0.968022 2.11799 1.03353 1.95059C1.12087 1.73224 1.22276 1.57212 1.39016 1.40472C1.55756 1.23732 1.7104 1.13542 1.93603 1.04808C2.10343 0.982575 2.3509 0.902517 2.81672 0.88796C3.31892 0.858847 3.47176 0.858845 4.73091 0.858845ZM4.73091 0C3.44265 0 3.28253 0.0072801 2.78032 0.0291151C2.27812 0.05095 1.92876 0.131012 1.63035 0.247465C1.31738 0.371196 1.05536 0.531319 0.793339 0.793339C0.531319 1.05536 0.371196 1.31738 0.247465 1.63035C0.131012 1.92876 0.05095 2.27812 0.0291151 2.78032C0.0072801 3.28253 0 3.44992 0 4.73091C0 6.01917 0.0072801 6.1793 0.0291151 6.6815C0.05095 7.1837 0.131012 7.53307 0.247465 7.83148C0.371196 8.14445 0.531319 8.40647 0.793339 8.66849C1.05536 8.9305 1.31738 9.09063 1.63035 9.21436C1.92876 9.33081 2.27812 9.41087 2.78032 9.43271C3.28253 9.45454 3.44992 9.46181 4.73091 9.46181C6.01917 9.46181 6.1793 9.45454 6.6815 9.43271C7.1837 9.41087 7.53306 9.33081 7.83147 9.21436C8.14444 9.09063 8.40646 8.9305 8.66848 8.66849C8.9305 8.40647 9.09062 8.14445 9.21435 7.83148C9.3308 7.53307 9.41086 7.1837 9.4327 6.6815C9.45454 6.1793 9.46181 6.01189 9.46181 4.73091C9.46181 3.44265 9.45454 3.28253 9.4327 2.78032C9.41086 2.27812 9.3308 1.92876 9.21435 1.63035C9.09062 1.31738 8.9305 1.05536 8.66848 0.793339C8.40646 0.531319 8.14444 0.371196 7.83147 0.247465C7.53306 0.131012 7.1837 0.05095 6.6815 0.0291151C6.1793 0.0072801 6.01917 0 4.73091 0Z" fill="white"/>
<path d="M4.73077 2.30713C3.38428 2.30713 2.2998 3.39888 2.2998 4.73809C2.2998 6.08458 3.39155 7.16904 4.73077 7.16904C6.07725 7.16904 7.16173 6.0773 7.16173 4.73809C7.169 3.39888 6.07725 2.30713 4.73077 2.30713ZM4.73077 6.31748C3.85737 6.31748 3.15137 5.61149 3.15137 4.73809C3.15137 3.86469 3.85737 3.15869 4.73077 3.15869C5.60416 3.15869 6.31017 3.86469 6.31017 4.73809C6.31017 5.61149 5.60416 6.31748 4.73077 6.31748Z" fill="white"/>
<path d="M7.26364 2.78044C7.57717 2.78044 7.83134 2.52626 7.83134 2.21272C7.83134 1.89919 7.57717 1.64502 7.26364 1.64502C6.9501 1.64502 6.69592 1.89919 6.69592 2.21272C6.69592 2.52626 6.9501 2.78044 7.26364 2.78044Z" fill="white"/>
</svg>
