<svg width="135" height="103" viewBox="0 0 135 103" fill="none" xmlns="http://www.w3.org/2000/svg">
<path d="M134.631 72.3584C134.631 81.0956 131.68 88.4176 125.779 94.3244C119.877 100.108 112.439 103 103.463 103C94.4877 103 86.9877 100.108 80.9631 94.3244C75.0615 88.4176 72.1107 81.0956 72.1107 72.3584C72.1107 67.6822 73.2172 62.9444 75.4303 58.1452L102.541 0H135L115.082 43.7473C120.984 45.9624 125.717 49.6541 129.283 54.8226C132.848 59.868 134.631 65.7133 134.631 72.3584ZM62.5205 72.3584C62.5205 81.0956 59.5697 88.4176 53.668 94.3244C47.7664 100.108 40.3279 103 31.3525 103C22.3771 103 14.8771 100.108 8.85246 94.3244C2.95082 88.4176 0 81.0956 0 72.3584C0 67.6822 1.10656 62.9444 3.31967 58.1452L30.4303 0H62.8893L42.9713 43.7473C48.873 45.9624 53.6066 49.6541 57.1721 54.8226C60.7377 59.868 62.5205 65.7133 62.5205 72.3584Z" fill="#B1987D"/>
</svg>
