<svg width="328" height="60" viewBox="0 0 328 60" fill="none" xmlns="http://www.w3.org/2000/svg">
<g clip-path="url(#clip0)">
<path d="M72.4614 0V34.7883H70.1529L70.0888 29.5114C68.6781 32.8339 65.7283 35.2443 61.5602 35.2443C58.0974 35.2443 55.4683 33.8111 53.4804 31.1401C51.236 28.1433 50.9154 24.886 50.9154 22.2801C50.9154 19.7394 51.236 16.4169 53.4804 13.4202C55.853 10.1629 58.931 9.31596 61.5602 9.31596C65.0871 9.31596 68.4216 11.0749 70.0888 14.9837V0H72.4614ZM68.2933 15.0489C67.0749 13.2248 65.0229 11.5961 61.7526 11.5961C58.0333 11.5961 56.1095 13.7459 55.2118 15.0489C53.4804 17.6547 53.4163 21.2378 53.4163 22.2801C53.4163 24.6906 53.9293 27.6222 55.1477 29.5114C56.0454 30.8795 58.0974 32.9642 61.7526 32.9642C64.7023 32.9642 66.6902 31.7915 68.2292 29.3811C69.7041 27.1661 70.1529 24.886 70.1529 22.215C70.1529 20.3909 69.8964 17.4593 68.2933 15.0489Z" fill="black"/>
<path d="M82.5933 9.90228L82.7215 15.0489C84.3888 11.2052 87.7874 9.3811 91.2502 9.3811C93.8152 9.3811 96.8932 10.228 99.3299 13.4853C101.574 16.4821 101.895 19.8046 101.895 22.3453C101.895 24.9511 101.574 28.2085 99.3299 31.2052C97.4062 33.8111 94.7129 35.3094 91.2502 35.3094C87.0179 35.3094 84.1323 32.899 82.7215 29.5765V44.7557H80.3489V9.90228H82.5933ZM84.517 29.4463C86.056 31.8567 88.108 33.0293 90.9936 33.0293C94.6488 33.0293 96.6367 30.9446 97.5985 29.5765C98.881 27.6221 99.3299 24.6905 99.3299 22.3453C99.3299 21.2378 99.2017 17.7199 97.5344 15.114C96.6367 13.7459 94.7129 11.6612 90.9936 11.6612C87.7233 11.6612 85.6713 13.2899 84.4529 15.114C82.8498 17.5244 82.5933 20.456 82.5933 22.3453C82.5933 24.9511 83.0421 27.2313 84.517 29.4463Z" fill="black"/>
<path d="M111.193 9.90228L111.257 14.5928C111.898 12.8339 112.924 11.5961 113.95 10.8143C115.233 9.83713 116.708 9.3811 118.183 9.3811C119.145 9.3811 120.171 9.64169 121.004 9.90228V12.3127C120.106 11.8567 119.273 11.6612 118.183 11.6612C115.618 11.6612 113.95 12.8339 112.732 14.7883C111.193 17.3941 111.129 20.456 111.129 22.6059V34.7883H108.692V9.90228H111.193Z" fill="black"/>
<path d="M127.353 13.7458C128.892 11.5309 131.585 9.25073 135.881 9.25073C140.883 9.25073 143.512 12.3126 144.474 13.7458C145.949 15.8305 146.847 18.6318 146.847 22.3452C146.847 25.5374 146.205 28.3387 144.41 30.9445C142.871 33.0944 140.242 35.4397 135.881 35.4397C131.585 35.4397 128.827 33.0944 127.353 30.9445C125.365 28.0781 124.98 24.8208 124.98 22.3452C124.98 19.8696 125.365 16.6123 127.353 13.7458ZM129.084 29.1204C131.072 32.5732 133.958 33.2247 135.945 33.2247C137.933 33.2247 140.819 32.5732 142.807 29.1204C144.089 26.9055 144.346 24.2996 144.346 22.28C144.346 20.2605 144.025 17.6546 142.807 15.4397C140.819 11.9869 137.997 11.3354 135.945 11.3354C133.893 11.3354 131.072 11.9869 129.084 15.4397C127.801 17.6546 127.545 20.2605 127.545 22.28C127.545 24.3647 127.801 26.9055 129.084 29.1204Z" fill="black"/>
<path d="M156.209 9.90222L156.337 14.3322C157.171 12.4429 158.389 11.4006 158.902 10.9446C160.185 9.90222 161.724 9.38105 163.519 9.3159C166.918 9.25076 169.611 11.3354 170.38 14.5928C171.278 12.3778 173.458 9.38105 177.883 9.3159C181.666 9.25076 183.654 11.0749 184.68 12.8338C186.091 15.2442 185.963 18.3061 185.963 20.2605V34.7882H183.526V20.1954C183.526 17.5895 183.334 15.6351 182.564 14.267C181.666 12.7035 179.807 11.596 177.434 11.6612C174.677 11.7915 173.202 13.4201 172.561 14.267C171.214 16.2214 171.15 18.5667 171.15 20.1954V34.7882H168.713V20.1954C168.713 17.1335 168.585 15.5048 167.944 14.267C167.431 13.1596 166.212 11.596 163.455 11.6612C161.467 11.7263 159.351 12.5732 157.94 14.8534C156.465 17.1335 156.337 20.1302 156.337 22.5407V34.7882H153.9V9.90222H156.209Z" fill="black"/>
<path d="M196.095 31.0098V34.7883H193.273V31.0098H196.095Z" fill="black"/>
<path d="M205.329 13.7458C206.868 11.5309 209.561 9.25073 213.857 9.25073C218.859 9.25073 221.488 12.3126 222.45 13.7458C223.925 15.8305 224.823 18.6318 224.823 22.3452C224.823 25.5374 224.181 28.3387 222.386 30.9445C220.847 33.0944 218.218 35.4397 213.857 35.4397C209.561 35.4397 206.804 33.0944 205.329 30.9445C203.341 28.0781 202.956 24.8208 202.956 22.3452C202.956 19.8696 203.341 16.6123 205.329 13.7458ZM207.06 29.1204C208.984 32.5732 211.869 33.2247 213.921 33.2247C215.909 33.2247 218.795 32.5732 220.783 29.1204C222.065 26.9055 222.322 24.2996 222.322 22.28C222.322 20.2605 222.001 17.6546 220.783 15.4397C218.795 11.9869 215.973 11.3354 213.921 11.3354C211.934 11.3354 209.048 11.9869 207.06 15.4397C205.778 17.6546 205.521 20.2605 205.521 22.28C205.457 24.3647 205.778 26.9055 207.06 29.1204Z" fill="#9E6B36"/>
<path d="M234.121 9.90228L234.249 14.5928C235.083 13.0293 236.237 11.7264 237.455 10.9446C238.994 9.83713 240.79 9.3811 242.714 9.3811C246.689 9.3811 248.613 11.4006 249.511 12.7687C250.986 15.0489 250.858 17.6547 250.858 19.8697V34.7231H248.293V19.9349C248.293 17.785 248.357 15.7655 247.459 14.2671C246.753 13.0945 245.279 11.6612 242.393 11.6612C240.277 11.6612 237.776 12.3778 235.98 14.8534C234.185 17.2638 234.121 19.8697 234.121 22.5407V34.7883H231.684V9.90228H234.121Z" fill="#9E6B36"/>
<path d="M261.118 0V34.7883H258.681V0H261.118Z" fill="#9E6B36"/>
<path d="M272.532 0V3.97394H269.903V0H272.532ZM272.468 9.90228V34.7231H270.031V9.90228H272.468Z" fill="#9E6B36"/>
<path d="M283.305 9.90228L283.433 14.5928C284.267 13.0293 285.421 11.7264 286.639 10.9446C288.178 9.83713 289.974 9.3811 291.898 9.3811C295.873 9.3811 297.797 11.4006 298.695 12.7687C300.17 15.0489 300.041 17.6547 300.041 19.8697V34.7231H297.476V19.9349C297.476 17.785 297.541 15.7655 296.643 14.2671C295.937 13.0945 294.463 11.6612 291.577 11.6612C289.461 11.6612 286.96 12.3778 285.164 14.8534C283.369 17.2638 283.305 19.8697 283.305 22.5407V34.7883H280.868V9.90228H283.305Z" fill="#9E6B36"/>
<path d="M327.679 26.9055C327.359 29.0553 326.333 30.9445 325.114 32.3126C323.319 34.267 320.882 35.4397 317.484 35.4397H317.291C313.508 35.4397 310.622 33.8761 308.698 31.0748C306.839 28.4038 306.39 25.1465 306.39 22.3452C306.39 19.4136 306.839 16.2866 308.763 13.5504C310.815 10.5537 313.636 9.25073 317.291 9.25073C322.101 9.25073 324.601 11.6612 326.012 13.6807C327.936 16.5472 328.064 19.7393 328.064 22.0846V22.8012H308.955V23.127C308.955 25.1465 309.404 27.8175 310.558 29.7068C311.776 31.7263 313.893 33.355 317.227 33.355H317.419C320.369 33.355 322.165 32.1823 323.255 31.0097C323.96 30.2931 324.922 28.9901 325.179 26.9055H327.679ZM310.622 14.7882C309.724 16.1563 308.955 18.241 308.955 20.5862V20.7817H325.499V20.2605C325.499 18.3061 324.986 16.2866 324.088 14.7882C322.998 13.0292 320.946 11.2703 317.419 11.2703H317.291C314.085 11.2703 312.033 12.6384 310.622 14.7882Z" fill="#9E6B36"/>
<path d="M30.7159 22.1499L22.1873 11.6613C22.1231 11.5962 22.059 11.531 21.9949 11.531C21.9308 11.531 21.8025 11.5962 21.8025 11.6613L17.5061 16.9382C17.3779 17.0685 17.442 17.2639 17.5703 17.3291C17.6985 17.4593 17.8909 17.3942 17.955 17.2639L20.8406 13.746L17.1214 22.0848H13.5304C13.4021 22.0848 13.338 22.1499 13.2739 22.2802C13.2098 22.4105 13.2739 22.4756 13.338 22.6059L21.8025 33.0294C21.8666 33.0945 21.9308 33.1597 21.9949 33.1597C22.059 33.1597 22.1873 33.0945 22.1873 33.0294L26.4195 27.7525C26.5478 27.6222 26.4836 27.4268 26.3554 27.3616C26.2271 27.2313 26.0348 27.2965 25.9706 27.4268L23.085 30.9447L26.9325 22.6059H30.5235C30.6518 22.6059 30.78 22.4756 30.78 22.3453C30.78 22.2802 30.78 22.215 30.7159 22.1499ZM21.9949 12.5082L26.2913 22.0848H17.6985L21.9949 12.5082ZM14.1075 22.6059H17.1214L20.8406 30.9447L14.1075 22.6059ZM21.9949 32.1825L17.6985 22.6711H26.2913L21.9949 32.1825ZM26.9325 22.0848L23.2133 13.746L29.9464 22.0848H26.9325Z" fill="black"/>
<path d="M21.995 3.84375C11.9273 3.84375 3.78345 12.1174 3.78345 22.3454H5.7072C5.7072 13.2249 13.0175 5.79815 21.995 5.79815C30.9725 5.79815 38.2828 13.2249 38.2828 22.3454C38.2828 31.4659 30.9725 38.8926 21.995 38.8926V40.847C32.0626 40.847 40.2065 32.5734 40.2065 22.3454C40.2065 12.1174 32.0626 3.84375 21.995 3.84375Z" fill="black"/>
<path d="M34.4993 22.3452C34.4993 29.3811 28.8563 35.0488 21.9949 35.0488C15.0694 35.0488 9.49053 29.3159 9.49053 22.3452C9.49053 15.3094 15.1335 9.64165 21.9949 9.64165V7.68726C14.0434 7.68726 7.56677 14.2671 7.56677 22.3452C7.56677 30.4234 14.0434 37.0032 21.9949 37.0032C29.9464 37.0032 36.4231 30.4234 36.4231 22.3452H34.4993Z" fill="#9E6B36"/>
<path d="M37.5773 6.51466C33.4092 2.34528 27.8944 0 21.9949 0V1.9544C33.0886 1.9544 42.1302 11.0749 42.1302 22.3453C42.1302 33.6156 33.0886 42.8013 22.059 42.8013C10.9013 42.8013 1.92375 33.6156 1.92375 22.3453H0V44.6906H21.9949C27.8944 44.6906 33.4092 42.3453 37.5773 38.1759C41.7455 33.9414 43.9898 28.3388 43.9898 22.3453C43.9898 16.3518 41.6813 10.7492 37.5773 6.51466Z" fill="#9E6B36"/>
<path d="M21.995 0C27.8945 0 33.4093 2.34528 37.5774 6.51466C41.7455 10.7492 43.9899 16.3518 43.9899 22.3453V0H21.995Z" fill="black"/>
<path d="M77.9121 39.0229H50.8513V40.4562H77.9121V39.0229Z" fill="#9E6B36"/>
<path d="M328 39.0229H85.0941V40.4562H328V39.0229Z" fill="#9E6B36"/>
<path d="M5.51476 51.8567V59.8046H4.93763V52.3779H0.577126V59.8697H0V51.8567H5.51476Z" fill="black"/>
<path d="M12.6967 53.0944C13.4662 51.9218 14.5563 51.7263 15.1976 51.7263C15.903 51.7263 16.929 51.9218 17.6985 53.0944C18.2756 54.0064 18.4038 55.1139 18.4038 55.8306C18.4038 56.5472 18.3397 57.6547 17.6985 58.5667C16.929 59.7393 15.8388 59.9348 15.1976 59.9348C14.5563 59.9348 13.4662 59.7393 12.6967 58.5667C12.1196 57.6547 11.9913 56.5472 11.9913 55.8306C11.9913 55.1139 12.0555 54.0064 12.6967 53.0944ZM13.1456 58.3061C13.7227 59.2833 14.6205 59.4788 15.1976 59.4788C15.7747 59.4788 16.6083 59.2833 17.2496 58.3061C17.7626 57.5244 17.8267 56.5472 17.8267 55.8957C17.8267 55.2442 17.7626 54.267 17.2496 53.4853C16.6725 52.5081 15.7747 52.3126 15.1976 52.3126C14.6205 52.3126 13.7868 52.5081 13.1456 53.4853C12.6326 54.267 12.5685 55.2442 12.5685 55.8957C12.5685 56.482 12.6326 57.4592 13.1456 58.3061Z" fill="black"/>
<path d="M26.8685 51.8567C27.5739 51.8567 28.3434 51.8567 29.0487 52.3779C29.7541 52.899 29.8824 53.6808 29.8824 54.2671C29.8824 54.8534 29.7541 55.57 29.0487 56.1564C28.3434 56.6775 27.5739 56.6775 26.8685 56.6775H25.4577V59.8046H24.8806V51.8567H26.8685ZM25.4577 56.1564H26.9326C27.4456 56.1564 28.151 56.1564 28.5999 55.7655C28.9205 55.5049 29.2411 55.0489 29.2411 54.2671C29.2411 53.3551 28.8564 52.9642 28.5999 52.7687C28.0869 52.3779 27.3815 52.3779 26.9326 52.3779H25.4577V56.1564Z" fill="black"/>
<path d="M41.2325 51.8567V52.3779H38.6675V59.8697H38.0904V52.3779H35.5895V51.8567H41.2325Z" fill="black"/>
<path d="M50.3382 51.8567L53.1597 59.8046H52.5826L51.6848 57.1336H48.0938L47.1319 59.8046H46.5548L49.3763 51.8567H50.3382ZM48.2862 56.6775H51.4283L49.8893 52.3127H49.7611L48.2862 56.6775Z" fill="black"/>
<path d="M62.2014 51.8567L64.9588 59.8046H64.3816L61.8166 52.2476H61.6884L59.1234 59.8046H58.5463L61.3036 51.8567H62.2014Z" fill="black"/>
<path d="M81.3748 51.8567L84.0681 59.2834V59.8046H77.7838V59.2834L80.4771 51.8567H81.3748ZM78.4251 59.2834H83.4909L80.9901 52.2476H80.8618L78.4251 59.2834Z" fill="black"/>
<path d="M93.1738 51.8567L95.9312 59.8046H95.3541L92.7891 52.2476H92.6608L90.0958 59.8046H89.5187L92.276 51.8567H93.1738Z" fill="black"/>
<path d="M107.025 59.8697H106.448V56.2215H104.588H104.396C104.203 56.2215 104.011 56.2215 103.755 56.3518C103.37 56.5472 103.241 56.8078 103.177 57.0684L101.959 59.8697H101.318L102.6 56.9381C102.857 56.417 103.049 56.2215 103.37 56.0261C103.113 55.9609 102.857 55.8306 102.6 55.6352C102.087 55.2443 101.895 54.7231 101.895 54.0717V54.0065C101.895 52.9642 102.472 52.443 102.857 52.2476C103.434 51.8567 104.203 51.8567 105.037 51.8567H107.025V59.8697ZM104.588 52.3779H104.524C104.075 52.3779 103.626 52.3779 103.177 52.7036C102.857 52.9642 102.536 53.3551 102.536 54.0065V54.0717C102.536 54.7883 102.921 55.1792 103.177 55.3746C103.626 55.7003 104.139 55.7003 104.524 55.7003H104.588H106.448V52.3779H104.588Z" fill="black"/>
<path d="M121.774 51.8567V55.3746H126.134V51.8567H126.711V59.8046H126.134V55.8306H121.774V59.8046H121.197V51.8567H121.774Z" fill="black"/>
<path d="M138.126 51.8567V52.3779H133.957V55.3746H137.997V55.8958H133.957V59.2834H138.254V59.8046H133.38V51.8567H138.126Z" fill="black"/>
<path d="M147.68 51.8567L150.373 59.2834V59.8046H144.089V59.2834L146.782 51.8567H147.68ZM144.666 59.2834H149.732L147.231 52.2476H147.103L144.666 59.2834Z" fill="black"/>
<path d="M158.389 51.8567C159.094 51.8567 159.864 51.8567 160.569 52.3779C161.275 52.899 161.403 53.6808 161.403 54.2671C161.403 54.8534 161.275 55.57 160.569 56.1564C159.928 56.6775 159.094 56.6775 158.389 56.6775H156.978V59.8046H156.401V51.8567H158.389ZM156.978 56.1564H158.453C158.966 56.1564 159.672 56.1564 160.12 55.7655C160.441 55.5049 160.762 55.0489 160.762 54.2671C160.762 53.3551 160.377 52.9642 160.12 52.7687C159.607 52.3779 158.902 52.3779 158.453 52.3779H156.978V56.1564Z" fill="black"/>
<path d="M168.264 53.0944C169.034 51.9218 170.124 51.7263 170.765 51.7263C171.471 51.7263 172.497 51.9218 173.266 53.0944C173.843 54.0064 173.971 55.1139 173.971 55.8306C173.971 56.5472 173.907 57.6547 173.266 58.5667C172.497 59.7393 171.406 59.9348 170.765 59.9348C170.124 59.9348 169.034 59.7393 168.264 58.5667C167.687 57.6547 167.559 56.5472 167.559 55.8306C167.559 55.1139 167.687 54.0064 168.264 53.0944ZM168.713 58.3061C169.29 59.2833 170.188 59.4788 170.765 59.4788C171.342 59.4788 172.176 59.2833 172.817 58.3061C173.33 57.5244 173.394 56.5472 173.394 55.8957C173.394 55.2442 173.33 54.267 172.817 53.4853C172.24 52.5081 171.342 52.3126 170.765 52.3126C170.188 52.3126 169.354 52.5081 168.713 53.4853C168.2 54.267 168.136 55.2442 168.136 55.8957C168.2 56.482 168.264 57.4592 168.713 58.3061Z" fill="black"/>
<path d="M185.963 51.8567V59.8046H185.386V52.3779H181.025V59.8697H180.448V51.8567H185.963Z" fill="black"/>
<path d="M193.145 53.0944C193.914 51.9218 195.004 51.7263 195.646 51.7263C196.287 51.7263 197.377 51.9218 198.147 53.0944C198.724 54.0064 198.852 55.1139 198.852 55.8306C198.852 56.5472 198.788 57.6547 198.147 58.5667C197.377 59.7393 196.287 59.9348 195.646 59.9348C195.004 59.9348 193.914 59.7393 193.145 58.5667C192.568 57.6547 192.439 56.5472 192.439 55.8306C192.504 55.1139 192.568 54.0064 193.145 53.0944ZM193.658 58.3061C194.235 59.2833 195.133 59.4788 195.71 59.4788C196.287 59.4788 197.121 59.2833 197.762 58.3061C198.275 57.5244 198.339 56.5472 198.339 55.8957C198.339 55.2442 198.275 54.267 197.762 53.4853C197.185 52.5081 196.287 52.3126 195.71 52.3126C195.133 52.3126 194.299 52.5081 193.658 53.4853C193.145 54.267 193.081 55.2442 193.081 55.8957C193.081 56.482 193.145 57.4592 193.658 58.3061Z" fill="black"/>
<path d="M208.407 51.8567L211.164 59.8046H210.587L208.022 52.2476H207.894L205.329 59.8046H204.751L207.509 51.8567H208.407Z" fill="black"/>
<path d="M217.769 51.8567V54.9837H219.5C219.949 54.9837 220.847 54.9837 221.488 55.57C221.873 55.8958 222.258 56.4821 222.258 57.3942C222.258 58.3062 221.873 58.8925 221.488 59.2183C220.847 59.7394 220.013 59.8046 219.244 59.8046H217.192V51.8567H217.769ZM217.769 59.2834H219.5H219.629C220.013 59.2834 220.526 59.2834 220.975 58.9577C221.232 58.7622 221.616 58.3062 221.616 57.4593C221.616 56.5472 221.232 56.1564 220.975 55.9609C220.526 55.6352 219.821 55.57 219.436 55.57H217.705V59.2834H217.769Z" fill="black"/>
<path d="M231.363 55.4397C231.748 55.4397 232.325 55.3745 232.71 55.1139C233.031 54.9185 233.351 54.5276 233.351 53.811C233.351 53.355 233.223 52.899 232.774 52.5732C232.261 52.1823 231.684 52.1823 231.363 52.1823C230.979 52.1823 230.402 52.2475 229.953 52.6384C229.504 53.0293 229.247 53.6156 229.183 54.267H228.606C228.67 53.4853 228.991 52.7687 229.504 52.3126C230.081 51.8566 230.722 51.7263 231.299 51.7263H231.363C232.005 51.7263 232.646 51.9218 233.159 52.3126C233.544 52.6384 233.864 53.0944 233.928 53.8762C233.928 54.7882 233.351 55.5048 232.454 55.7003C233.287 55.8957 233.993 56.5472 234.057 57.6547V57.7198C234.057 58.5667 233.672 59.0879 233.351 59.3485C232.838 59.8045 232.069 59.9999 231.363 59.9999C230.594 59.9999 229.953 59.7393 229.504 59.4136C228.863 58.8924 228.542 58.1758 228.478 57.3941H229.055C229.119 58.1107 229.44 58.697 229.889 59.0227C230.209 59.2182 230.658 59.4136 231.299 59.4136C231.556 59.4136 232.261 59.4136 232.838 58.9576C233.159 58.697 233.415 58.241 233.415 57.6547V57.5895C233.415 57.0032 233.159 56.5472 232.646 56.2214C232.133 55.9608 231.684 55.8957 231.235 55.8957H230.466V55.3745H231.363V55.4397Z" fill="black"/>
<path d="M241.046 53.0944C241.816 51.9218 242.906 51.7263 243.547 51.7263C244.253 51.7263 245.279 51.9218 246.048 53.0944C246.625 54.0064 246.753 55.1139 246.753 55.8306C246.753 56.5472 246.689 57.6547 246.048 58.5667C245.279 59.7393 244.188 59.9348 243.547 59.9348C242.906 59.9348 241.816 59.7393 241.046 58.5667C240.469 57.6547 240.341 56.5472 240.341 55.8306C240.341 55.1139 240.469 54.0064 241.046 53.0944ZM241.495 58.3061C242.072 59.2833 242.97 59.4788 243.547 59.4788C244.124 59.4788 244.958 59.2833 245.599 58.3061C246.112 57.5244 246.176 56.5472 246.176 55.8957C246.176 55.2442 246.112 54.267 245.599 53.4853C245.022 52.5081 244.124 52.3126 243.547 52.3126C242.97 52.3126 242.136 52.5081 241.495 53.4853C240.982 54.267 240.918 55.2442 240.918 55.8957C240.982 56.482 241.046 57.4592 241.495 58.3061Z" fill="black"/>
<path d="M255.859 51.8567H256.052C256.5 51.8567 257.078 51.8567 257.655 52.2476C258.104 52.5733 258.424 53.0293 258.424 53.8111C258.424 54.7231 257.911 55.3746 257.078 55.6352C257.911 55.8958 258.552 56.5472 258.552 57.5896V57.6547C258.552 58.5016 258.168 59.088 257.719 59.4137C257.142 59.8046 256.436 59.8697 255.859 59.8697H253.294V51.8567H255.859ZM253.807 55.3746H255.795C256.308 55.3746 256.757 55.3746 257.206 55.114C257.526 54.9186 257.783 54.5277 257.783 53.8762C257.783 53.2899 257.526 52.8339 257.142 52.6385C256.757 52.3779 256.244 52.3779 255.731 52.3779H253.743V55.3746H253.807ZM253.807 59.2834H255.795C256.308 59.2834 256.821 59.2834 257.206 59.0228C257.591 58.8274 257.911 58.3713 257.911 57.6547C257.911 57.0684 257.719 56.6124 257.206 56.2215C256.693 55.8958 256.244 55.8958 255.859 55.8958H253.871V59.2834H253.807Z" fill="black"/>
<path d="M268.107 51.8567L270.929 59.8046H270.351L269.39 57.1336H265.863L264.901 59.8046H264.324L267.145 51.8567H268.107ZM266.055 56.6775H269.197L267.658 52.3127H267.53L266.055 56.6775Z" fill="black"/>
<path d="M281.894 51.8567V52.3779H279.329V59.8697H278.752V52.3779H276.251V51.8567H281.894Z" fill="black"/>
<path d="M292.731 51.8567V52.3779H288.563V55.3746H292.603V55.8958H288.563V59.2834H292.859V59.8046H287.986V51.8567H292.731Z" fill="black"/>
<path d="M302.35 51.8567L305.107 59.8046H304.53L301.965 52.2476H301.837L299.272 59.8046H298.695L301.452 51.8567H302.35Z" fill="black"/>
<path d="M315.88 51.8567V52.3779H311.712V55.3746H315.752V55.8958H311.712V59.2834H316.009V59.8046H311.135V51.8567H315.88Z" fill="black"/>
<path d="M323.062 51.8567V57.0684L327.423 53.6808V51.7915H328V59.7394H327.423V54.2671L323.062 57.6547V59.7394H322.485V51.8567H323.062ZM324.024 50.1628C324.024 50.3583 324.152 50.5537 324.345 50.8143C324.601 51.0097 324.922 51.14 325.243 51.14C325.627 51.14 325.884 51.0097 326.14 50.8143C326.397 50.6189 326.461 50.3583 326.461 50.1628H327.038C326.974 50.4886 326.846 50.8143 326.525 51.14C326.14 51.4658 325.692 51.5961 325.243 51.5961C324.794 51.5961 324.345 51.4658 323.96 51.14C323.639 50.8143 323.447 50.4886 323.447 50.1628H324.024Z" fill="black"/>
</g>
<defs>
<clipPath id="clip0">
<rect width="328" height="60" fill="white"/>
</clipPath>
</defs>
</svg>
