<svg width="61" height="58" viewBox="0 0 61 58" fill="none" xmlns="http://www.w3.org/2000/svg">
<path d="M60.1065 39.008C60.6001 39.008 61.0001 38.6145 61.0001 38.1291V30.4661C61.0001 19.3557 51.8104 10.3168 40.5149 10.3168H31.3659L22.3372 1.43623C21.6794 0.789231 20.8049 0.432861 19.8746 0.432861C18.9444 0.432861 18.0699 0.789231 17.4121 1.43623C16.7543 2.08323 16.392 2.94339 16.392 3.8584C16.392 4.45067 16.5446 5.01962 16.8301 5.52306C12.9759 8.68328 9.24019 12.0379 5.71956 15.5084C2.26147 18.917 0.237139 23.4459 0.0194674 28.2609C-0.196655 33.0448 1.38137 37.7031 4.46297 41.3779C4.63966 41.5886 4.89522 41.6976 5.1528 41.6976C5.35296 41.6976 5.55443 41.6317 5.72087 41.4967C6.10152 41.1878 6.15562 40.6339 5.84156 40.2595C3.04209 36.9208 1.60846 32.6873 1.80504 28.3389C2.00282 23.9631 3.84236 19.8475 6.98472 16.7501C10.4737 13.3107 14.1761 9.98641 17.9964 6.85514L42.4579 30.9157C39.2826 34.6651 35.9032 38.3069 32.3993 41.7467C29.2078 44.8789 24.9662 46.6906 20.4556 46.8481C15.9686 47.0055 11.6285 45.5164 8.23714 42.6567C7.86244 42.3409 7.29842 42.3834 6.97722 42.7519C6.65601 43.1205 6.69926 43.6753 7.07408 43.9912C10.6284 46.9885 15.1273 48.6173 19.812 48.6173C20.047 48.6173 20.2832 48.6132 20.5191 48.605C25.4822 48.4316 30.1497 46.4379 33.6617 42.9911C37.1977 39.5198 40.608 35.8451 43.8133 32.0619C44.3375 32.3482 44.9211 32.4923 45.505 32.4923C46.0901 32.4923 46.6749 32.3476 47.2 32.0601V51.1606C47.2 51.9676 47.5197 52.7255 48.0982 53.2929C48.6769 53.8639 49.4475 54.1782 50.2679 54.1782C51.9589 54.1782 53.3346 52.8245 53.3346 51.1606V44.1574C53.3346 43.9245 53.4265 43.7061 53.5958 43.5403C53.7621 43.376 53.9846 43.2855 54.2222 43.2855C54.711 43.2855 55.1085 43.6766 55.1085 44.1574V54.6704C55.1085 55.4429 55.4142 56.17 55.9717 56.7202C56.5289 57.2664 57.2683 57.5673 58.0537 57.5673C59.6784 57.5673 61.0001 56.2678 61.0001 54.6704V41.6449C61.0001 41.1595 60.6001 40.766 60.1065 40.766C59.6129 40.766 59.2129 41.1595 59.2129 41.6449V54.6704C59.2129 55.2985 58.6929 55.8094 58.0537 55.8094C57.7445 55.8094 57.4532 55.6907 57.2355 55.4773C57.0163 55.261 56.8956 54.9743 56.8956 54.6704V44.1574C56.8956 42.7073 55.6963 41.5277 54.2222 41.5277C53.506 41.5277 52.8341 41.8018 52.3321 42.2973C51.8262 42.7932 51.5475 43.4538 51.5475 44.1574V51.1606C51.5475 51.8553 50.9735 52.4203 50.2679 52.4203C49.9258 52.4203 49.6048 52.2894 49.3619 52.0499C49.1203 51.813 48.9871 51.4971 48.9871 51.1606V29.0752C48.9871 29.0718 48.9862 29.0693 48.9859 29.0659C48.9853 28.1895 48.6459 27.3134 47.9676 26.6463L33.153 12.0746H40.5149C50.825 12.0746 59.2129 20.325 59.2129 30.4661V38.1291C59.2129 38.6145 59.6129 39.008 60.1065 39.008ZM46.7038 30.2477C46.0427 30.898 44.9672 30.898 44.3061 30.2477L18.6757 5.03755C18.0147 4.38727 18.0147 3.32929 18.6757 2.67913C19.0062 2.35405 19.4404 2.19151 19.8746 2.19151C20.3088 2.19151 20.743 2.35405 21.0736 2.67913L46.7038 27.8892C47.3649 28.5393 47.3649 29.5974 46.7038 30.2477Z" fill="#9E6B36"/>
</svg>
