<svg width="59" height="56" viewBox="0 0 59 56" fill="none" xmlns="http://www.w3.org/2000/svg">
<path d="M16.1543 52.0552C17.2039 52.0552 18.0548 51.192 18.0548 50.1272C18.0548 49.0624 17.2039 48.1992 16.1543 48.1992C15.1048 48.1992 14.2539 49.0624 14.2539 50.1272C14.2539 51.192 15.1048 52.0552 16.1543 52.0552Z" fill="#9E6B36"/>
<path d="M36.1075 52.0552C37.157 52.0552 38.0079 51.192 38.0079 50.1272C38.0079 49.0624 37.157 48.1992 36.1075 48.1992C35.0579 48.1992 34.207 49.0624 34.207 50.1272C34.207 51.192 35.0579 52.0552 36.1075 52.0552Z" fill="#9E6B36"/>
<path d="M48.461 52.0552C49.5105 52.0552 50.3614 51.192 50.3614 50.1272C50.3614 49.0624 49.5105 48.1992 48.461 48.1992C47.4114 48.1992 46.5605 49.0624 46.5605 50.1272C46.5605 51.192 47.4114 52.0552 48.461 52.0552Z" fill="#9E6B36"/>
<path d="M7.60156 37.5955H11.4024V39.5234H7.60156V37.5955Z" fill="#9E6B36"/>
<path d="M57.9629 36.6314C58.4884 36.6314 58.9131 36.2005 58.9131 35.6674V23.1356H58.8979C58.897 22.8059 58.7449 22.484 58.4447 22.3047L31.8083 6.40184L32.2511 5.14384C32.407 4.70234 32.2274 4.21263 31.8264 3.98128L25.1322 0.125344C24.6941 -0.125291 24.142 0.0106302 23.8665 0.437675L22.0088 3.32962C21.8682 3.54941 21.8216 3.8174 21.8786 4.07285C21.9375 4.32831 22.0953 4.5481 22.3157 4.68305L26.3988 7.1682L21.9109 19.8774C21.8729 19.9844 21.8549 20.0942 21.8549 20.2032V20.2061V20.209V32.7754C21.3294 32.7754 20.9047 33.2063 20.9047 33.7394V37.5954H19.9544V24.0726C19.9544 23.0093 19.1021 22.1446 18.054 22.1446H11.6325C10.6319 22.1446 9.65225 22.5563 8.94529 23.2735L3.01407 29.2916C2.29571 30.0213 1.90042 30.9882 1.90042 32.0187V34.8808C0.797228 35.2799 0 36.3403 0 37.5954C0 38.8505 0.797228 39.9109 1.90042 40.3099V42.4153V45.3072C1.90042 47.4338 3.6051 49.1632 5.70127 49.1632H8.55191C9.07737 49.1632 9.50212 48.7323 9.50212 48.1992V47.2352H11.2239C10.7364 48.0873 10.4523 49.0735 10.4523 50.1271C10.4523 53.317 13.0094 55.911 16.1536 55.911C19.2979 55.911 21.8549 53.317 21.8549 50.1271C21.8549 49.7888 21.8207 49.4591 21.7646 49.1362H23.9301C24.3235 50.2553 25.3688 51.0641 26.6059 51.0641C27.8431 51.0641 28.8883 50.2553 29.2817 49.1362H30.4971C30.441 49.4591 30.4068 49.7888 30.4068 50.1271C30.4068 53.317 32.9638 55.911 36.1081 55.911C39.2523 55.911 41.8093 53.317 41.8093 50.1271C41.8093 49.7888 41.7751 49.4591 41.7191 49.1362H42.8489C42.7937 49.4591 42.7595 49.7888 42.7595 50.1271C42.7595 53.317 45.3166 55.911 48.4608 55.911C51.2829 55.911 53.6262 53.8182 54.0775 51.0824L54.1877 51.0815C55.7461 51.067 57.0127 49.7705 57.0127 48.1895V43.3793H57.9629C58.4884 43.3793 58.9131 42.9484 58.9131 42.4153V38.5593C58.9131 38.0263 58.4884 37.5954 57.9629 37.5954H52.4536L54.0024 35.2384C54.1459 35.0196 54.1953 34.7506 54.1402 34.4952C54.0832 34.2388 53.9264 34.0171 53.705 33.8802L53.0931 33.5033L54.1621 31.6466V32.7754C54.1621 34.902 55.8668 36.6314 57.9629 36.6314ZM56.0625 32.7754V28.3459L57.0127 26.6956V34.4441C56.4445 34.1115 56.0625 33.4878 56.0625 32.7754ZM56.6649 23.4788L56.092 24.4736L30.8296 9.18486L31.1584 8.24979L56.6649 23.4788ZM46.605 29.5066L50.3033 23.2166L51.9357 24.2047L48.229 30.5072L46.605 29.5066ZM30.1778 11.0367L32.3519 12.3525L28.7363 18.5008L27.7614 17.9002L30.1778 11.0367ZM33.9824 13.3387L35.6149 14.3267L31.9841 20.5011L30.3593 19.5004L33.9824 13.3387ZM37.2464 15.3139L38.8798 16.3019L35.2339 22.5013L33.608 21.4997L37.2464 15.3139ZM40.5104 17.29L42.1438 18.2781L38.4836 24.5035L36.8578 23.5019L40.5104 17.29ZM43.7753 19.2652L45.4078 20.2533L41.7324 26.5047L40.1075 25.5041L43.7753 19.2652ZM47.0383 21.2404L48.6718 22.2285L44.9811 28.506L43.3563 27.5044L47.0383 21.2404ZM28.4503 7.07277C28.6033 6.63994 28.4332 6.15795 28.0446 5.92081L24.1392 3.54363L24.9706 2.24996L30.193 5.25855L25.7108 17.9918C25.5588 18.4227 25.727 18.9028 26.1128 19.1399L51.8702 35.0051L51.0226 36.2949L23.9624 19.7838L28.4503 7.07277ZM23.7553 21.9075L24.7055 22.4869V32.7754H23.7553V21.9075ZM22.8051 34.7034H23.7553H25.6557V37.5954H22.8051V34.7034ZM11.6325 24.0726H18.054V38.5593V41.4513H13.4778C13.8712 40.3321 14.9164 39.5233 16.1536 39.5233C16.6791 39.5233 17.1038 39.0924 17.1038 38.5593V35.6674V26.9915C17.1038 25.9283 16.2515 25.0636 15.2034 25.0636H9.8689L10.2889 24.6375C10.6424 24.2789 11.1327 24.0726 11.6325 24.0726ZM7.6017 44.3432H3.80085V43.3793H7.6017V44.3432ZM8.55191 41.4513H3.80085V40.4873H4.75106C5.27653 40.4873 5.70127 40.0564 5.70127 39.5233V36.6314H15.2034V37.6927C13.3457 38.0774 11.8862 39.5677 11.5071 41.4513H8.55191ZM4.35767 30.6556L7.96848 26.9915H15.2034V34.7034H4.75106H3.80085V32.0187C3.80085 31.504 3.99849 31.02 4.35767 30.6556ZM2.85064 36.6314H3.80085V38.5593H2.85064C2.32612 38.5593 1.90042 38.1275 1.90042 37.5954C1.90042 37.0632 2.32612 36.6314 2.85064 36.6314ZM5.70127 47.2352C5.00097 47.2352 4.39473 46.8448 4.06501 46.2712H7.6017V47.2352H5.70127ZM16.1536 53.9831C14.0574 53.9831 12.3528 52.2537 12.3528 50.1271C12.3528 48.0006 14.0574 46.2712 16.1536 46.2712C18.2498 46.2712 19.9544 48.0006 19.9544 50.1271C19.9544 52.2537 18.2498 53.9831 16.1536 53.9831ZM27.5561 48.1722C27.5561 48.7043 27.1304 49.1362 26.6059 49.1362C26.0814 49.1362 25.6557 48.7043 25.6557 48.1722V47.2082H27.5561V48.1722ZM36.1081 53.9831C34.0119 53.9831 32.3072 52.2537 32.3072 50.1271C32.3072 48.0006 34.0119 46.2712 36.1081 46.2712C38.2042 46.2712 39.9089 48.0006 39.9089 50.1271C39.9089 52.2537 38.2042 53.9831 36.1081 53.9831ZM48.4608 53.9831C46.3646 53.9831 44.66 52.2537 44.66 50.1271C44.66 48.0006 46.3646 46.2712 48.4608 46.2712C50.557 46.2712 52.2617 48.0006 52.2617 50.1271C52.2617 52.2537 50.557 53.9831 48.4608 53.9831ZM55.1123 48.1895C55.1123 48.7168 54.6904 49.1487 54.1706 49.1535L54.0756 49.1545C53.6167 46.4274 51.2772 44.3432 48.4608 44.3432C46.3675 44.3432 44.5383 45.4971 43.5473 47.2082H41.0216C40.0305 45.4971 38.2014 44.3432 36.1081 44.3432C34.0147 44.3432 32.1856 45.4971 31.1945 47.2082H29.4566V46.2442C29.4566 45.7111 29.0318 45.2802 28.5064 45.2802H24.7055C24.18 45.2802 23.7553 45.7111 23.7553 46.2442V47.2082H21.0671C20.0761 45.4971 18.2469 44.3432 16.1536 44.3432C14.9915 44.3432 13.9111 44.699 13.0084 45.3072H9.50212V43.3793H19.0042H55.1123V48.1895ZM57.0127 41.4513H19.9544V39.5233H57.0127V41.4513ZM27.5561 37.5954V33.7394C27.5561 33.2063 27.1314 32.7754 26.6059 32.7754V23.6465L49.4671 37.5954H27.5561ZM49.8529 31.5078L53.5672 25.1928L55.1322 26.1404L51.4673 32.5036L49.8529 31.5078Z" fill="#9E6B36"/>
</svg>
