<svg width="57" height="57" viewBox="0 0 57 57" fill="none" xmlns="http://www.w3.org/2000/svg">
<g clip-path="url(#clip0)">
<path d="M53.1996 32.775C53.1982 31.4641 52.1355 30.4014 50.8246 30.4H48.4496V26.6H46.5496V30.4H44.6496V26.6H42.7496V30.4H40.8496V26.6H38.9496V30.4H37.0496V26.6H35.1496V30.4H32.7746C31.4637 30.4014 30.401 31.4641 30.3996 32.775V35.15H26.5996V37.05H30.3996V38.95H26.5996V40.85H30.3996V42.75H26.5996V44.65H30.3996V46.55H26.5996V48.45H30.3996V50.825C30.401 52.1359 31.4637 53.1986 32.7746 53.2H35.1496V57H37.0496V53.2H38.9496V57H40.8496V53.2H42.7496V57H44.6496V53.2H46.5496V57H48.4496V53.2H50.8246C52.1355 53.1986 53.1982 52.1359 53.1996 50.825V48.45H56.9996V46.55H53.1996V44.65H56.9996V42.75H53.1996V40.85H56.9996V38.95H53.1996V37.05H56.9996V35.15H53.1996V32.775ZM51.2996 50.825C51.2996 51.0871 51.0867 51.3 50.8246 51.3H32.7746C32.5125 51.3 32.2996 51.0871 32.2996 50.825V32.775C32.2996 32.5129 32.5125 32.3 32.7746 32.3H50.8246C51.0867 32.3 51.2996 32.5129 51.2996 32.775V50.825Z" fill="#9E6B36"/>
<path d="M1.90039 55.1H3.80039V57H1.90039V55.1Z" fill="#9E6B36"/>
<path d="M9.02539 13.3C9.28748 13.3 9.50039 13.513 9.50039 13.775V17.1C8.45159 17.101 7.60132 17.9512 7.60039 19V20.9C7.60132 21.9489 8.45159 22.7991 9.50039 22.8H11.4004C12.4492 22.7991 13.2995 21.9489 13.3004 20.9V19C13.2995 17.9512 12.4492 17.101 11.4004 17.1V13.775C11.399 12.4642 10.3363 11.4014 9.02539 11.4C8.76331 11.4 8.55039 11.1871 8.55039 10.925V3.80005H6.65039V10.925C6.65178 12.2359 7.7145 13.2987 9.02539 13.3ZM11.4004 19V20.9H9.50039V19H11.4004Z" fill="#9E6B36"/>
<path d="M6.65039 0H8.55039V1.9H6.65039V0Z" fill="#9E6B36"/>
<path d="M1.90039 0H3.80039V1.9H1.90039V0Z" fill="#9E6B36"/>
<path d="M1.9 35.15V53.2H3.8V35.15C4.8488 35.149 5.69907 34.2988 5.7 33.25V31.35C5.69907 30.3011 4.8488 29.4509 3.8 29.45H1.9C0.851196 29.4509 0.000927734 30.3011 0 31.35V33.25C0.000927734 34.2988 0.851196 35.149 1.9 35.15ZM1.9 31.35H3.8V33.25H1.9V31.35Z" fill="#9E6B36"/>
<path d="M1.9 27.55H3.8C4.8488 27.5491 5.69907 26.6989 5.7 25.65V23.75C5.69907 22.7012 4.8488 21.851 3.8 21.85V3.80005H1.9V21.85C0.851196 21.851 0.000927734 22.7012 0 23.75V25.65C0.000927734 26.6989 0.851196 27.5491 1.9 27.55ZM1.9 23.75H3.8V25.65H1.9V23.75Z" fill="#9E6B36"/>
<path d="M7.59961 52.725C7.601 54.0359 8.66372 55.0986 9.97461 55.1H17.0996C17.1005 56.1488 17.9508 56.9991 18.9996 57H20.8996C21.9484 56.9991 22.7987 56.1488 22.7996 55.1V53.2C22.7987 52.1512 21.9484 51.3009 20.8996 51.3H18.9996C17.9508 51.3009 17.1005 52.1512 17.0996 53.2H9.97461C9.71252 53.2 9.49961 52.9871 9.49961 52.725V49.875C9.49961 49.6129 9.71252 49.4 9.97461 49.4H18.9996V47.5H9.97461C8.66372 47.5014 7.601 48.5641 7.59961 49.875V52.725ZM18.9996 53.2H20.8996V55.1H18.9996V53.2Z" fill="#9E6B36"/>
<path d="M20.9004 47.5H22.8004V49.4H20.9004V47.5Z" fill="#9E6B36"/>
<path d="M7.59961 43.7C7.60054 44.7488 8.45081 45.599 9.49961 45.6H11.3996C12.4484 45.599 13.2987 44.7488 13.2996 43.7H20.4246C21.7355 43.6986 22.7982 42.6359 22.7996 41.325V38.475C22.7982 37.1641 21.7355 36.1014 20.4246 36.1H11.3996V38H20.4246C20.6867 38 20.8996 38.2129 20.8996 38.475V41.325C20.8996 41.5871 20.6867 41.8 20.4246 41.8H13.2996C13.2987 40.7512 12.4484 39.9009 11.3996 39.9H9.49961C8.45081 39.9009 7.60054 40.7512 7.59961 41.8V43.7ZM9.49961 41.8H11.3996V43.7H9.49961V41.8Z" fill="#9E6B36"/>
<path d="M7.59961 36.1H9.49961V38H7.59961V36.1Z" fill="#9E6B36"/>
<path d="M8.55078 27.075V29.925C8.55217 31.2358 9.61489 32.2986 10.9258 32.3H17.1008C17.1017 33.3488 17.952 34.199 19.0008 34.2H20.9008C21.9496 34.199 22.7999 33.3488 22.8008 32.3V30.4C22.7999 29.3511 21.9496 28.5009 20.9008 28.5H19.0008C17.952 28.5009 17.1017 29.3511 17.1008 30.4H10.9258C10.6637 30.4 10.4508 30.187 10.4508 29.925V27.075C10.4508 26.8129 10.6637 26.6 10.9258 26.6H19.0008V24.7H10.9258C9.61489 24.7013 8.55217 25.7641 8.55078 27.075ZM19.0008 30.4H20.9008V32.3H19.0008L18.9994 30.4H19.0008Z" fill="#9E6B36"/>
<path d="M20.9004 24.7H22.8004V26.6H20.9004V24.7Z" fill="#9E6B36"/>
<path d="M15.1992 20.9H17.0992V22.8H15.1992V20.9Z" fill="#9E6B36"/>
<path d="M12.8242 9.5H14.7242C14.9863 9.5 15.1992 9.71292 15.1992 9.975V19H17.0992V9.975C17.0978 8.66411 16.0351 7.60139 14.7242 7.6H12.8242C12.5621 7.6 12.3492 7.38708 12.3492 7.125V4.275C12.3492 4.01292 12.5621 3.8 12.8242 3.8H16.1492C16.1501 4.8488 17.0004 5.69907 18.0492 5.7H19.9492C20.998 5.69907 21.8483 4.8488 21.8492 3.8V1.9C21.8483 0.851196 20.998 0.000927734 19.9492 0H18.0492C17.0004 0.000927734 16.1501 0.851196 16.1492 1.9H12.8242C11.5133 1.90139 10.4506 2.96411 10.4492 4.275V7.125C10.4506 8.43589 11.5133 9.49861 12.8242 9.5ZM18.0492 1.9H19.9492L19.9506 3.8H18.0492V1.9Z" fill="#9E6B36"/>
<path d="M28.4996 14.725C28.4996 14.4629 28.7125 14.25 28.9746 14.25C30.2855 14.2486 31.3482 13.1859 31.3496 11.875V5.7C32.3984 5.69907 33.2487 4.8488 33.2496 3.8V1.9C33.2487 0.851196 32.3984 0.000927734 31.3496 0H29.4496C28.4008 0.000927734 27.5505 0.851196 27.5496 1.9V3.8C27.5505 4.8488 28.4008 5.69907 29.4496 5.7V11.875C29.4496 12.1371 29.2367 12.35 28.9746 12.35C27.6637 12.3514 26.601 13.4141 26.5996 14.725V19H28.4996V14.725ZM29.4496 1.9H31.3496V3.8H29.4496V1.9Z" fill="#9E6B36"/>
<path d="M26.5996 20.9H28.4996V22.8H26.5996V20.9Z" fill="#9E6B36"/>
<path d="M20.9 9.97505V17.1C19.8512 17.101 19.0009 17.9512 19 19V20.9C19.0009 21.9489 19.8512 22.7991 20.9 22.8H22.8C23.8488 22.7991 24.6991 21.9489 24.7 20.9V19C24.6991 17.9512 23.8488 17.101 22.8 17.1V9.97505C22.8 9.71296 23.0129 9.50005 23.275 9.50005C24.5859 9.49866 25.6486 8.43594 25.65 7.12505V3.80005H23.75V7.12505C23.75 7.38713 23.5371 7.60005 23.275 7.60005C21.9641 7.60144 20.9014 8.66416 20.9 9.97505ZM22.8 20.9H20.9V19H22.8V20.9Z" fill="#9E6B36"/>
<path d="M23.75 0H25.65V1.9H23.75V0Z" fill="#9E6B36"/>
<path d="M55.1008 17.1V10.45H53.2008V17.1C52.152 17.1009 51.3017 17.9511 51.3008 19V20.9C51.3017 21.9488 52.152 22.799 53.2008 22.8H55.1008C56.1496 22.799 56.9999 21.9488 57.0008 20.9V19C56.9999 17.9511 56.1496 17.1009 55.1008 17.1ZM55.1008 20.9H53.2008L53.1994 19H55.1008V20.9Z" fill="#9E6B36"/>
<path d="M53.1992 6.65002H55.0992V8.55002H53.1992V6.65002Z" fill="#9E6B36"/>
<path d="M47.5004 18.525C47.5004 18.787 47.2875 19 47.0254 19H36.1004C36.0995 17.9511 35.2492 17.1009 34.2004 17.1H32.3004C31.2516 17.1009 30.4013 17.9511 30.4004 19V20.9C30.4013 21.9488 31.2516 22.799 32.3004 22.8H34.2004C35.2492 22.799 36.0995 21.9488 36.1004 20.9H47.0254C48.3363 20.8986 49.399 19.8358 49.4004 18.525V10.45H47.5004V18.525ZM32.3004 20.9V19H34.2004L34.2018 20.9H32.3004Z" fill="#9E6B36"/>
<path d="M47.5 6.65002H49.4V8.55002H47.5V6.65002Z" fill="#9E6B36"/>
<path d="M33.25 12.825C33.2514 14.1359 34.3141 15.1987 35.625 15.2H39.9C39.9009 16.2489 40.7512 17.0991 41.8 17.1H43.7C44.7488 17.0991 45.5991 16.2489 45.6 15.2V13.3C45.5991 12.2512 44.7488 11.401 43.7 11.4H41.8C40.7512 11.401 39.9009 12.2512 39.9 13.3H35.625C35.3629 13.3 35.15 13.0871 35.15 12.825V9.97505C35.15 9.71296 35.3629 9.50005 35.625 9.50005C36.9359 9.49866 37.9986 8.43594 38 7.12505V3.80005H36.1V7.12505C36.1 7.38713 35.8871 7.60005 35.625 7.60005C34.3141 7.60144 33.2514 8.66416 33.25 9.97505V12.825ZM41.8 13.3H43.7V15.2H41.8L41.7986 13.3H41.8Z" fill="#9E6B36"/>
<path d="M36.0996 0H37.9996V1.9H36.0996V0Z" fill="#9E6B36"/>
<path d="M55.1008 0H53.2008C52.152 0.000927734 51.3017 0.851196 51.3008 1.9H44.1758C42.8649 1.90139 41.8022 2.96411 41.8008 4.275V5.7H43.7008V4.275C43.7008 4.01292 43.9137 3.8 44.1758 3.8H51.3008C51.3017 4.8488 52.152 5.69907 53.2008 5.7H55.1008C56.1496 5.69907 56.9998 4.8488 57.0008 3.8V1.9C56.9998 0.851196 56.1496 0.000927734 55.1008 0ZM53.2008 3.8V1.9H55.1008L55.1022 3.8H53.2008Z" fill="#9E6B36"/>
<path d="M41.8008 7.59998H43.7008V9.49998H41.8008V7.59998Z" fill="#9E6B36"/>
</g>
<defs>
<clipPath id="clip0">
<rect width="57" height="57" fill="white"/>
</clipPath>
</defs>
</svg>
