<svg width="57" height="57" viewBox="0 0 57 57" fill="none" xmlns="http://www.w3.org/2000/svg">
<path d="M54.15 25.65H54.112C53.7517 15.1178 46.9567 5.88952 37.0063 2.4187C36.794 1.03146 35.6034 0.00534375 34.2 0H22.8C21.3966 0.00534375 20.206 1.03146 19.9937 2.4187C10.0433 5.88952 3.24829 15.1178 2.888 25.65H2.85C1.27597 25.65 0 26.926 0 28.5V30.4C0 31.974 1.27597 33.25 2.85 33.25H54.15C55.724 33.25 57 31.974 57 30.4V28.5C57 26.926 55.724 25.65 54.15 25.65ZM19.95 4.45645V20.9C19.95 21.4246 20.3754 21.85 20.9 21.85C21.4246 21.85 21.85 21.4246 21.85 20.9V2.85C21.85 2.32536 22.2754 1.9 22.8 1.9H27.55V22.8C27.55 23.3246 27.9754 23.75 28.5 23.75C29.0246 23.75 29.45 23.3246 29.45 22.8V1.9H34.2C34.7246 1.9 35.15 2.32536 35.15 2.85V20.9C35.15 21.4246 35.5754 21.85 36.1 21.85C36.6246 21.85 37.05 21.4246 37.05 20.9V4.45645C45.8936 7.84534 51.8604 16.1859 52.212 25.65H4.788C5.13962 16.1859 11.1065 7.84534 19.95 4.45645ZM55.1 30.4C55.1 30.9246 54.6746 31.35 54.15 31.35H2.85C2.32536 31.35 1.9 30.9246 1.9 30.4V28.5C1.9 27.9754 2.32536 27.55 2.85 27.55H54.15C54.6746 27.55 55.1 27.9754 55.1 28.5V30.4Z" fill="#9E6B36"/>
<path d="M23.7508 41.8H11.4008C9.82675 41.8 8.55078 43.076 8.55078 44.65V48.45C8.55078 48.9746 8.97614 49.4 9.50078 49.4C10.0254 49.4 10.4508 48.9746 10.4508 48.45V44.65C10.4508 44.1253 10.8761 43.7 11.4008 43.7H23.7508C24.2754 43.7 24.7008 43.2746 24.7008 42.75C24.7008 42.2254 24.2754 41.8 23.7508 41.8Z" fill="#9E6B36"/>
<path d="M56.05 41.8H52.155C51.7005 39.5899 49.7564 38.0028 47.5 38H9.5C6.878 38.0031 4.75309 40.128 4.75 42.75H0.95C0.425362 42.75 0 43.1754 0 43.7V51.3C0 51.8246 0.425362 52.25 0.95 52.25H5.035C5.87682 55.0638 8.46296 56.9937 11.4 57H17.1C21.4472 56.9876 25.4713 54.7028 27.7096 50.976C27.9822 50.5395 28.5572 50.4068 28.9938 50.6794C29.1139 50.7545 29.2154 50.8559 29.2904 50.976C31.5287 54.7028 35.5528 56.9876 39.9 57H45.6C48.9028 56.9961 51.7022 54.5688 52.174 51.3H56.05C56.5746 51.3 57 50.8746 57 50.35V42.75C57 42.2254 56.5746 41.8 56.05 41.8ZM4.75 50.35H1.9V47.5H4.75V50.35ZM4.75 45.6H1.9V44.65H4.75V45.6ZM50.35 50.35C50.3469 52.972 48.222 55.0969 45.6 55.1H39.9C36.2208 55.0892 32.815 53.1553 30.9206 50.0013C30.1116 48.6634 28.371 48.2347 27.0332 49.0437C26.6412 49.2808 26.3126 49.6094 26.0756 50.0013C24.1819 53.1542 20.7778 55.0879 17.1 55.1H11.4C8.778 55.0969 6.65309 52.972 6.65 50.35V42.75C6.65 41.176 7.92597 39.9 9.5 39.9H47.5C49.074 39.9 50.35 41.176 50.35 42.75V50.35ZM55.1 49.4H52.25V46.55H55.1V49.4ZM55.1 44.65H52.25V43.7H55.1V44.65Z" fill="#9E6B36"/>
<path d="M29.4496 41.8H27.5496C27.025 41.8 26.5996 42.2253 26.5996 42.75C26.5996 43.2746 27.025 43.7 27.5496 43.7H29.4496C29.9742 43.7 30.3996 43.2746 30.3996 42.75C30.3996 42.2253 29.9742 41.8 29.4496 41.8Z" fill="#9E6B36"/>
</svg>
