<svg width="1280" height="101" viewBox="0 0 1280 101" fill="none" xmlns="http://www.w3.org/2000/svg">
<path opacity="0.5" d="M1280 57.4642H1191.31L1174.11 38.5793C1172.48 36.7818 1169.73 36.5635 1167.83 38.0797L1157.16 46.5962L1129.02 2.14501C1128.17 0.809631 1126.7 0 1125.12 0C1123.54 0 1122.07 0.809631 1121.23 2.14501L1097.2 40.1007L1088.19 26.9166C1087.33 25.6591 1085.9 24.9069 1084.38 24.9069C1082.86 24.9069 1081.43 25.6591 1080.57 26.9166L1059.7 57.4642H0C0 60.7961 -5.24521e-06 59.7489 -5.24521e-06 62.2961C-5.24521e-06 64.8434 0 64.2961 0 66.6878H1053.39L1049.72 72.0575C1048.29 74.1605 1048.83 77.0301 1050.93 78.4674C1051.72 79.0116 1052.63 79.2719 1053.53 79.2719C1055 79.2719 1056.45 78.5684 1057.34 77.2617L1059.12 74.6596L1084.38 37.6928L1091.82 48.5875L1075.32 74.6601L1063.38 93.5132C1062.02 95.6654 1062.66 98.5139 1064.81 99.8765C1065.58 100.361 1066.43 100.592 1067.28 100.592C1068.8 100.592 1070.3 99.8329 1071.18 98.4463L1073.37 94.9844L1125.12 13.2344L1167.17 79.6506L1168.22 81.3088C1169.58 83.4604 1172.43 84.1005 1174.58 82.7384C1176.54 81.4984 1177.24 79.0285 1176.33 76.9722C1176.23 76.7692 1176.13 76.5684 1176.01 76.3752L1162.12 54.4368L1170.2 47.9849L1197.9 78.4018L1201.13 81.9468C1202.04 82.9465 1203.29 83.4538 1204.54 83.4538C1205.65 83.4538 1206.76 83.0567 1207.64 82.2522C1209.53 80.5371 1209.66 77.6204 1207.95 75.7372L1199.71 66.6878H1280C1280 63 1280 64.5473 1280 62C1280 59.4527 1280 61.5 1280 57.4642Z" fill="#E5E5E5"/>
</svg>
