<svg width="20" height="20" viewBox="0 0 20 20" fill="none" xmlns="http://www.w3.org/2000/svg">
<g clip-path="url(#clip0)">
<path d="M17.8264 1.73853H12.6089C12.3689 1.73853 12.1741 1.93333 12.1741 2.17334C12.1741 2.41334 12.3689 2.60815 12.6089 2.60815H17.8264C18.0665 2.60815 18.2613 2.41334 18.2613 2.17334C18.2613 1.93333 18.0665 1.73853 17.8264 1.73853Z" fill="#9F9F9F"/>
<path d="M18.1342 1.86638L16.395 0.127178C16.2254 -0.0423927 15.9497 -0.0423927 15.7801 0.127178C15.6106 0.296749 15.6106 0.572423 15.7801 0.741994L17.2115 2.17336L15.7793 3.60558C15.6097 3.77515 15.6097 4.05082 15.7793 4.22039C15.8645 4.30473 15.9758 4.34737 16.0871 4.34737C16.1984 4.34737 16.3097 4.30477 16.395 4.22039L18.1342 2.48119C18.3037 2.31158 18.3037 2.03595 18.1342 1.86638Z" fill="#9F9F9F"/>
<path d="M6.522 1.73853H1.30444C1.06443 1.73853 0.869629 1.93333 0.869629 2.17334C0.869629 2.41334 1.06443 2.60815 1.30444 2.60815H6.522C6.762 2.60815 6.95681 2.41334 6.95681 2.17334C6.95681 1.93333 6.762 1.73853 6.522 1.73853Z" fill="#9F9F9F"/>
<path d="M1.91869 2.17336L3.35005 0.741994C3.51962 0.572423 3.51962 0.296749 3.35005 0.127178C3.18048 -0.0423927 2.9048 -0.0423927 2.73523 0.127178L0.996074 1.86642C0.826504 2.03599 0.826504 2.31166 0.996074 2.48123L2.73527 4.22043C2.82051 4.30477 2.93179 4.34741 3.04311 4.34741C3.15443 4.34741 3.26571 4.30481 3.35009 4.21958C3.51966 4.05001 3.51966 3.77433 3.35009 3.60476L1.91869 2.17336Z" fill="#9F9F9F"/>
<path d="M17.3916 8.69529C17.0342 8.69529 16.7011 8.804 16.4246 8.98923C16.1863 8.3127 15.5402 7.82571 14.7828 7.82571C14.4254 7.82571 14.0923 7.93442 13.8158 8.11965C13.5776 7.44312 12.9314 6.95613 12.174 6.95613C11.8575 6.95613 11.5601 7.04137 11.3045 7.19007V4.34735C11.3045 3.38818 10.5244 2.60815 9.56525 2.60815C8.60608 2.60815 7.82605 3.38818 7.82605 4.34735V11.7389L6.31471 10.6058C5.41905 9.9336 4.14421 10.0232 3.35028 10.8163C2.84157 11.325 2.84157 12.152 3.35028 12.6607L9.54267 18.8539C10.2818 19.5931 11.2653 20 12.3106 20H14.348C16.9847 20 19.1308 17.8548 19.1308 15.2173V10.4345C19.1308 9.47532 18.3508 8.69529 17.3916 8.69529ZM18.2612 15.2172C18.2612 17.3747 16.5055 19.1304 14.348 19.1304H12.3106C11.4966 19.1304 10.7323 18.8139 10.1575 18.2391L3.9651 12.0459C3.79553 11.8763 3.79553 11.6006 3.9651 11.431C4.23466 11.1623 4.59467 11.0241 4.95644 11.0241C5.25037 11.0241 5.54602 11.1154 5.79385 11.3015L8.00002 12.9563C8.13222 13.0554 8.30961 13.0702 8.4557 12.9972C8.60265 12.9233 8.69571 12.7728 8.69571 12.6085V4.34735C8.69571 3.86819 9.08528 3.47777 9.56529 3.47777C10.0453 3.47777 10.4349 3.86824 10.4349 4.34735V10.8693C10.4349 11.1093 10.6297 11.3041 10.8697 11.3041C11.1097 11.3041 11.3045 11.1093 11.3045 10.8693V8.69533C11.3045 8.21617 11.6941 7.82575 12.1741 7.82575C12.6541 7.82575 13.0436 8.21621 13.0436 8.69533V10.8693C13.0436 11.1093 13.2385 11.3041 13.4785 11.3041C13.7185 11.3041 13.9133 11.1093 13.9133 10.8693V9.56491C13.9133 9.08575 14.3028 8.69533 14.7828 8.69533C15.2629 8.69533 15.6524 9.08579 15.6524 9.56491V10.8693C15.6524 11.1093 15.8472 11.3041 16.0872 11.3041C16.3272 11.3041 16.522 11.1093 16.522 10.8693V10.4345C16.522 9.95533 16.9116 9.56491 17.3916 9.56491C17.8716 9.56491 18.2612 9.95537 18.2612 10.4345V15.2172Z" fill="#9F9F9F"/>
</g>
<defs>
<clipPath id="clip0">
<rect width="20" height="20" fill="white"/>
</clipPath>
</defs>
</svg>
