<svg width="11" height="10" viewBox="0 0 11 10" fill="none" xmlns="http://www.w3.org/2000/svg">
<path d="M10.2682 0.0812719L0.415084 4.09249C-0.124589 4.25962 -0.108235 4.8314 0.292431 4.97214L2.76184 5.79903L3.71036 8.913C3.82483 9.25607 3.92295 9.37921 4.1192 9.38801C4.32362 9.38801 4.40539 9.30884 4.61799 9.10652C4.87147 8.85142 5.24761 8.45559 5.85269 7.82224L8.42023 9.86304C8.89449 10.1445 9.23791 9.99497 9.35239 9.38801L10.9632 0.820174C11.1268 0.0812634 10.7179 -0.138642 10.2682 0.0812719ZM3.14616 5.6143L8.75548 1.82297C9.03349 1.62065 9.11526 1.84936 8.99261 1.9989L4.3318 6.50276L4.09467 8.75466L3.14616 5.6143Z" fill="white"/>
</svg>
