<svg width="19" height="18" viewBox="0 0 19 18" fill="currentColor" xmlns="http://www.w3.org/2000/svg">
<path d="M11.3645 6.5999L11.3645 3.39996C11.3645 2.76345 11.0915 2.15301 10.6055 1.70293C10.1196 1.25285 9.46055 0.999999 8.77335 0.999999L5.31853 8.19987L5.31853 16.9997L15.0611 16.9997C15.4777 17.0041 15.882 16.8688 16.1994 16.6189C16.5168 16.369 16.7261 16.0213 16.7885 15.6397L17.9804 8.43987C18.018 8.21056 18.0013 7.97642 17.9315 7.75368C17.8617 7.53094 17.7404 7.32492 17.5761 7.1499C17.4118 6.97488 17.2084 6.83504 16.9799 6.74007C16.7514 6.6451 16.5034 6.59727 16.253 6.5999L11.3645 6.5999ZM5.31853 16.9997L3.01243 16.9997C2.52361 17.0077 2.04863 16.8492 1.67765 16.5543C1.30668 16.2593 1.06553 15.8485 1 15.3997L1 9.79984C1.06554 9.3511 1.30668 8.94026 1.67765 8.64532C2.04863 8.35037 2.52361 8.19186 3.01243 8.19987L5.31853 8.19987" fill="#FAFAFA"/>
<path d="M5.31852 16.9997L3.01243 16.9997C2.52361 17.0077 2.04863 16.8492 1.67765 16.5543C1.30668 16.2593 1.06553 15.8485 1 15.3997L1 9.79984C1.06553 9.35109 1.30668 8.94026 1.67765 8.64532C2.04863 8.35037 2.52361 8.19186 3.01243 8.19987L5.31853 8.19987M11.3645 6.5999L11.3645 3.39996C11.3645 2.76345 11.0915 2.15301 10.6055 1.70293C10.1196 1.25285 9.46055 0.999999 8.77335 0.999999L5.31853 8.19987L5.31852 16.9997L15.0611 16.9997C15.4777 17.0041 15.882 16.8688 16.1994 16.6189C16.5168 16.369 16.7261 16.0213 16.7885 15.6397L17.9804 8.43987C18.018 8.21056 18.0013 7.97642 17.9315 7.75368C17.8617 7.53094 17.7404 7.32492 17.5761 7.1499C17.4118 6.97488 17.2084 6.83504 16.9799 6.74007C16.7514 6.6451 16.5034 6.59727 16.253 6.5999L11.3645 6.5999Z" stroke="#A8A8A8" stroke-linecap="round" stroke-linejoin="round"/>
</svg>
