<svg width="19" height="18" viewBox="0 0 19 18" fill="currentColor" xmlns="http://www.w3.org/2000/svg">
<path d="M7.63554 11.4001V14.6C7.63554 15.2366 7.90853 15.847 8.39446 16.2971C8.88039 16.7471 9.53945 17 10.2267 17L13.6815 9.80013V1.00029H3.93888C3.52229 0.995927 3.11804 1.13116 2.8006 1.38108C2.48317 1.63099 2.27394 1.97875 2.21147 2.36026L1.01956 9.56013C0.981983 9.78944 0.998681 10.0236 1.0685 10.2463C1.13832 10.4691 1.25958 10.6751 1.4239 10.8501C1.58821 11.0251 1.79164 11.165 2.0201 11.2599C2.24856 11.3549 2.49658 11.4027 2.74697 11.4001H7.63554ZM13.6815 1.00029H15.9876C16.4764 0.992282 16.9514 1.15079 17.3223 1.44574C17.6933 1.74068 17.9345 2.15152 18 2.60026V8.20016C17.9345 8.6489 17.6933 9.05974 17.3223 9.35468C16.9514 9.64962 16.4764 9.80814 15.9876 9.80013H13.6815" fill="#FAFAFA"/>
<path d="M13.6815 1.00029H15.9876C16.4764 0.992282 16.9514 1.15079 17.3223 1.44574C17.6933 1.74068 17.9345 2.15152 18 2.60026V8.20016C17.9345 8.6489 17.6933 9.05974 17.3223 9.35468C16.9514 9.64962 16.4764 9.80814 15.9876 9.80013H13.6815M7.63554 11.4001V14.6C7.63554 15.2366 7.90853 15.847 8.39446 16.2971C8.88039 16.7471 9.53945 17 10.2267 17L13.6815 9.80013V1.00029H3.93888C3.52229 0.995927 3.11804 1.13116 2.8006 1.38108C2.48317 1.63099 2.27394 1.97875 2.21147 2.36026L1.01956 9.56013C0.981983 9.78944 0.998681 10.0236 1.0685 10.2463C1.13832 10.4691 1.25958 10.6751 1.4239 10.8501C1.58821 11.0251 1.79164 11.165 2.0201 11.2599C2.24856 11.3549 2.49658 11.4027 2.74697 11.4001H7.63554Z" stroke="#A8A8A8" stroke-linecap="round" stroke-linejoin="round"/>
</svg>
