<svg width="13" height="9" viewBox="0 0 13 9" fill="none" xmlns="http://www.w3.org/2000/svg">
<path fill-rule="evenodd" clip-rule="evenodd" d="M11.5744 0.268548C12.1358 0.420968 12.579 0.856452 12.7267 1.40806C13 2.40968 13 4.5 13 4.5C13 4.5 13 6.59032 12.7341 7.59194C12.579 8.15081 12.1432 8.58629 11.5818 8.73145C10.5625 9 6.5 9 6.5 9C6.5 9 2.4375 9 1.42557 8.73145C0.864204 8.57903 0.421021 8.14355 0.273293 7.59194C0 6.59032 0 4.5 0 4.5C0 4.5 0 2.40968 0.265907 1.40806C0.421021 0.849194 0.856819 0.41371 1.41818 0.268548C2.4375 0 6.5 0 6.5 0C6.5 0 10.5625 0 11.5744 0.268548ZM8 4.5L5 6V3L8 4.5Z" fill="white"/>
</svg>
