<svg width="12" height="10" viewBox="0 0 12 10" fill="none" xmlns="http://www.w3.org/2000/svg">
<path d="M12 1.18518C11.559 1.38518 11.0819 1.51852 10.5831 1.58519C11.0892 1.27407 11.4795 0.777778 11.6675 0.185185C11.1904 0.474074 10.6627 0.681481 10.106 0.8C9.65783 0.311111 9.01446 0 8.30603 0C6.94699 0 5.84097 1.13333 5.84097 2.52593C5.84097 2.72593 5.86265 2.91852 5.90602 3.1037C3.86024 3 2.04578 1.99259 0.831325 0.466667C0.621687 0.837037 0.498797 1.27407 0.498797 1.73333C0.498797 2.60741 0.932528 3.38519 1.59759 3.83704C1.19277 3.82222 0.816864 3.71111 0.484334 3.51852C0.484334 3.52593 0.484334 3.54074 0.484334 3.54815C0.484334 4.77037 1.33012 5.79259 2.45783 6.02222C2.24819 6.08148 2.03133 6.11111 1.80723 6.11111C1.64819 6.11111 1.49638 6.0963 1.34458 6.06667C1.65542 7.06667 2.56627 7.8 3.64338 7.82222C2.79759 8.4963 1.73494 8.9037 0.58554 8.9037C0.383131 8.9037 0.187952 8.88889 0 8.86667C1.09157 9.58519 2.38554 10 3.77349 10C8.30602 10 10.7855 6.15556 10.7855 2.81481C10.7855 2.7037 10.7855 2.6 10.7783 2.48889C11.2554 2.14074 11.6747 1.6963 12 1.18518Z" fill="white"/>
</svg>
