<svg width="11" height="12" viewBox="0 0 11 12" fill="none" xmlns="http://www.w3.org/2000/svg">
<path d="M9.78217 1.11163C9.33625 0.732771 8.80577 0.505455 8.24453 0.361489C6.82221 -0.00221449 5.38451 -0.0931403 3.93144 0.0962885C3.19337 0.194791 2.47837 0.384228 1.82487 0.747931C1.05605 1.17225 0.525563 1.78599 0.294916 2.63463C0.125776 3.24081 0.0488938 3.85456 0.018141 4.48346C-0.0279883 5.40787 0.00276438 6.32471 0.241099 7.21881C0.517874 8.25688 1.11755 9.02975 2.15546 9.43892C2.27079 9.48438 2.37073 9.545 2.48606 9.59046C2.586 9.63593 2.62444 9.70412 2.61676 9.8102C2.60907 10.53 2.61676 11.2499 2.61676 12C2.88584 11.7424 3.07805 11.5529 3.20875 11.4014C3.61622 10.9468 4.00063 10.5679 4.42348 10.1436C4.63875 9.92386 4.5465 9.93901 4.88478 9.93901C5.27688 9.94659 5.89193 9.96174 6.28403 9.93143C7.02979 9.87082 7.76786 9.77989 8.48286 9.56773C9.39776 9.29495 10.1281 8.8176 10.4972 7.90834C10.5971 7.66587 10.6894 7.4234 10.7509 7.17335C11.1045 5.72611 11.0584 4.27888 10.7586 2.83165C10.6202 2.16486 10.328 1.56626 9.78217 1.11163ZM5.25381 1.983C5.2615 1.84661 5.34607 1.79357 5.47677 1.79357C6.60694 1.84661 7.46033 2.18001 8.11383 3.05138C8.49824 3.55905 8.70582 4.24857 8.72888 4.88505C8.72888 4.98356 8.73657 5.07448 8.72888 5.17298C8.7212 5.27906 8.67507 5.36241 8.55205 5.36241C8.42904 5.36241 8.36754 5.30179 8.35985 5.17298C8.3291 4.7032 8.23684 4.24099 8.05232 3.80152C7.69866 2.95288 7.0221 2.49825 6.14565 2.27851C5.915 2.21789 5.68435 2.17244 5.44602 2.1497C5.34607 2.1497 5.24612 2.12697 5.25381 1.983ZM6.39935 3.17262C6.16871 3.09685 5.93806 3.02865 5.69204 2.99834C5.57672 2.98319 5.49215 2.92257 5.51521 2.78618C5.53828 2.65737 5.62285 2.61191 5.74586 2.61948C6.53774 2.69526 7.1528 2.97561 7.57565 3.64997C7.77555 3.96821 7.89087 4.41527 7.87549 4.74866C7.86012 4.98355 7.82936 5.04417 7.69097 5.04417C7.49108 5.03659 7.52183 4.87747 7.50646 4.75624C7.48339 4.57438 7.44495 4.39254 7.39113 4.21069C7.23737 3.69544 6.90678 3.34689 6.39935 3.17262ZM7.06054 4.48346C7.05285 4.55166 7.05285 4.59712 7.04517 4.635C7.0221 4.71835 6.96828 4.77139 6.87603 4.77897C6.77608 4.77897 6.72995 4.72593 6.6992 4.64258C6.68382 4.58196 6.67613 4.52135 6.66844 4.46831C6.60694 4.15765 6.42242 3.94549 6.1072 3.86214C6.06876 3.85456 6.03032 3.84698 5.99188 3.8394C5.89193 3.80909 5.76892 3.8091 5.76123 3.66513C5.76123 3.5439 5.85349 3.4757 6.01494 3.46812C6.13027 3.46054 6.29941 3.51359 6.40704 3.56663C6.82221 3.75606 7.01441 4.03641 7.06054 4.48346ZM8.72888 7.7871C8.50593 8.27961 8.13689 8.59786 7.60641 8.7494C7.4142 8.80244 7.22968 8.75698 7.06054 8.6812C4.66182 7.67344 2.93197 6.02163 1.95557 3.62725C1.88638 3.45297 1.84025 3.27112 1.84793 3.112C1.84793 2.49825 2.40149 1.92239 3.00117 1.89208C3.17031 1.8845 3.3087 1.93754 3.43171 2.0512C3.85456 2.44521 4.19284 2.89226 4.44655 3.40751C4.58494 3.68786 4.52343 3.88487 4.2851 4.08188C4.24666 4.11219 4.20053 4.14249 4.16209 4.1728C3.83918 4.40769 3.76999 4.64258 3.92375 5.00629C4.17746 5.60488 4.58494 6.07466 5.14618 6.42321C5.35376 6.55202 5.56903 6.68084 5.80736 6.74903C6.03032 6.80965 6.20715 6.74145 6.34554 6.57475C6.36091 6.55202 6.37629 6.53687 6.39167 6.51414C6.6992 6.08982 7.02979 6.02162 7.4757 6.2944C7.86012 6.52929 8.22146 6.7945 8.56743 7.08243C8.79039 7.28701 8.85189 7.51432 8.72888 7.7871Z" fill="white"/>
</svg>
