<svg width="12" height="12" viewBox="0 0 12 12" fill="none" xmlns="http://www.w3.org/2000/svg">
<g clip-path="url(#clip0)">
<path fill-rule="evenodd" clip-rule="evenodd" d="M1.94891 0.29C3.24782 -0.06 4.5967 0.02 5.92559 0C5.84566 1.25 5.92559 2.55 5.50594 3.75C5.18621 4.67 4.38687 5.38 3.43767 5.61C2.3186 5.88 1.14957 5.9 0.000529688 5.91C0.0404964 4.51 -0.0594204 3.06 0.380213 1.71C0.60003 0.98 1.22951 0.46 1.94891 0.29ZM6.09545 0C7.4743 0.03 8.89312 -0.07 10.232 0.34C10.9114 0.54 11.461 1.09 11.6608 1.78C12.0605 3.12 11.9805 4.53 12.0005 5.91C10.8515 5.9 9.68246 5.88 8.56339 5.61C7.5942 5.38 6.77488 4.63 6.47513 3.68C6.09545 2.49 6.1554 1.23 6.09545 0ZM0.000529688 6.09C1.01968 6.1 2.04882 6.14 3.05798 6.31C4.05715 6.46 5.02634 7.08 5.41602 8.03C5.94557 9.28 5.80569 10.67 5.9156 12C4.7166 11.99 3.50761 12.03 2.32859 11.81C1.65915 11.68 0.939747 11.39 0.590038 10.76C0.140413 9.95 0.0904547 9 0.0404964 8.09C0.0305047 7.42 -0.00946198 6.76 0.000529688 6.09ZM8.73325 6.35C9.80236 6.13 10.9114 6.1 12.0005 6.09C11.9805 7.47 12.0705 8.88 11.6608 10.22C11.461 10.9 10.9214 11.45 10.242 11.65C8.90311 12.06 7.4743 11.97 6.09545 11.99C6.1554 10.74 6.09545 9.44 6.50511 8.24C6.83483 7.26 7.72409 6.55 8.73325 6.35Z" fill="white"/>
</g>
<defs>
<clipPath id="clip0">
<rect width="12" height="12" fill="white"/>
</clipPath>
</defs>
</svg>
