<svg width="20" height="20" fill="none" xmlns="http://www.w3.org/2000/svg"><path d="M10.833 5a.833.833 0 11-1.666 0 .833.833 0 011.666 0zM10 15.833a.625.625 0 01-.625-.625V8.75h-.833a.625.625 0 010-1.25H10c.345 0 .625.28.625.625v7.083c0 .345-.28.625-.625.625z" fill="#000"/><path d="M10 20C4.486 20 0 15.514 0 10S4.486 0 10 0s10 4.486 10 10-4.486 10-10 10zm0-18.75c-4.825 0-8.75 3.925-8.75 8.75s3.925 8.75 8.75 8.75 8.75-3.925 8.75-8.75S14.825 1.25 10 1.25z" fill="#000"/><path d="M11.875 15.833h-3.75a.625.625 0 010-1.25h3.75a.625.625 0 010 1.25z" fill="#000"/></svg>