<svg width="135" height="103" fill="none" xmlns="http://www.w3.org/2000/svg"><path d="M134.631 72.358c0 8.738-2.951 16.06-8.852 21.966-5.902 5.784-13.34 8.676-22.316 8.676-8.975 0-16.475-2.892-22.5-8.676-5.901-5.906-8.852-13.228-8.852-21.966 0-4.676 1.106-9.414 3.32-14.213L102.54 0H135l-19.918 43.747c5.902 2.215 10.635 5.907 14.201 11.076 3.565 5.045 5.348 10.89 5.348 17.535zm-72.11 0c0 8.738-2.951 16.06-8.853 21.966-5.902 5.784-13.34 8.676-22.316 8.676-8.975 0-16.475-2.892-22.5-8.676C2.951 88.418 0 81.096 0 72.358c0-4.676 1.107-9.414 3.32-14.213L30.43 0h32.46L42.97 43.747c5.902 2.215 10.636 5.907 14.201 11.076 3.566 5.045 5.349 10.89 5.349 17.535z" fill="#B1987D"/></svg>