<svg width="19" height="19" viewBox="0 0 19 19" fill="none" xmlns="http://www.w3.org/2000/svg">
<path d="M5.48837 5.3814C3.34116 7.46941 3.32019 10.923 5.44146 13.1044L5.85176 12.7055C3.96017 10.7603 3.979 7.66015 5.89371 5.79823C7.80842 3.9363 10.9078 4.00412 12.7994 5.94933C14.691 7.89454 14.6722 10.9946 12.7575 12.8566L13.1628 13.2734C15.31 11.1854 15.331 7.73176 13.2097 5.55035C11.0884 3.36893 7.63559 3.29338 5.48837 5.3814Z" fill="#9E6B36"/>
<path d="M11.9924 6.73406C13.4517 8.23465 13.4236 10.6138 11.9602 12.0369C10.4832 13.4732 8.1043 13.4075 6.65859 11.9208C5.19937 10.4203 5.22742 8.0411 6.6908 6.61805L6.28547 6.20122C4.58958 7.85036 4.5729 10.5969 6.2483 12.3198C7.9237 14.0427 10.6697 14.1028 12.3656 12.4537C14.0614 10.8045 14.0781 8.05797 12.4027 6.33507L11.9924 6.73406Z" fill="#9E6B36"/>
<path d="M9.36556 2.71948C7.61186 2.69471 5.94928 3.33827 4.69104 4.56182L5.09638 4.97865C7.46241 2.67784 11.2824 2.74783 13.6198 5.15155C15.9573 7.55527 15.934 11.3896 13.5817 13.6771C11.2019 15.9912 7.38213 15.894 5.04468 13.4903L4.63438 13.8893L9.26876 18.6551L13.9598 14.0933C15.218 12.8698 15.9078 11.2258 15.9321 9.47214C15.9428 7.70454 15.2595 6.04415 14.0165 4.76586C12.7734 3.48758 11.1191 2.77145 9.36556 2.71948Z" fill="#9E6B36"/>
</svg>
