<svg id="coal-factory" width="56" height="55" viewBox="0 0 56 55" fill="none" xmlns="http://www.w3.org/2000/svg">
<g clip-path="url(#clip0)">
<path d="M55.0667 32.0833H53.2V22C53.2 21.4938 52.7821 21.0833 52.2667 21.0833H48.5333C48.2672 21.0833 48.0133 21.1952 47.8361 21.3904L41.0667 28.8669V22C41.0667 21.4938 40.6488 21.0833 40.1333 21.0833H37.3333C37.0986 21.0833 36.873 21.1702 36.7003 21.3264L26.168 30.8753L23.3511 12.8772L24.2389 9.39404C24.3104 9.11967 24.2484 8.82784 24.0716 8.60405C23.8943 8.38025 23.6218 8.24955 23.3333 8.25H14C13.7124 8.25 13.4413 8.38025 13.264 8.6027C13.0872 8.82516 13.0247 9.11564 13.0945 9.38957L13.9813 12.8727L11.2287 29.9998L11.102 30.0916L9.75033 29.4251C9.45137 29.2787 9.09544 29.3007 8.81699 29.4828L7.84675 30.118L3.92018 29.3517C3.50729 29.2702 3.0903 29.4703 2.90163 29.8405L1.96829 31.6738C1.83704 31.9316 1.83704 32.2351 1.96829 32.4929L3.15638 34.8333H2.8C2.5334 34.8333 2.27956 34.9452 2.10273 35.1408C1.92546 35.3364 1.84206 35.5974 1.87305 35.8574L3.73971 51.4408C3.79531 51.9022 4.19362 52.25 4.66667 52.25H5.73262C5.82148 52.5718 5.95456 52.8802 6.12819 53.1667H0V55H55.0667C55.5821 55 56 54.5896 56 54.0833V33C56 32.4938 55.5821 32.0833 55.0667 32.0833ZM48.9526 22.9167H51.3333V25.6667H46.462L48.9526 22.9167ZM41.0667 31.625L44.8 27.5H51.3333V32.0833H41.0667V31.625ZM37.6984 22.9167H39.2V25.6667H34.665L37.6984 22.9167ZM32.6667 27.4781V27.5H39.2V32.0833H27.5876L32.6667 27.4781ZM25.6995 33.9167H32.6667V42.1667H25.3709L26.127 35.8574C26.1579 35.5974 26.0745 35.3364 25.8973 35.1408C25.7204 34.9452 25.4666 34.8333 25.2 34.8333H25.077L25.6995 33.9167ZM26.1333 53.1667H21.8718C22.0454 52.8802 22.1785 52.5718 22.2674 52.25H23.3333C23.8064 52.25 24.2047 51.9022 24.2603 51.4408L25.1517 44H26.1333V53.1667ZM16.8 51.3333C16.8 50.3209 17.6358 49.5 18.6667 49.5C19.6975 49.5 20.5333 50.3209 20.5333 51.3333C20.5333 52.3458 19.6975 53.1667 18.6667 53.1667C17.6358 53.1667 16.8 52.3458 16.8 51.3333ZM22.138 10.0833L21.6713 11.9167H15.662L15.1954 10.0833H22.138ZM15.7304 13.75H16.8V15.5833H18.6667V13.75H19.6V17.4167H21.4667V13.75H21.5993L24.2667 30.7862L23.0608 29.6019C22.7577 29.3042 22.2874 29.2478 21.9201 29.4645L19.5439 30.865L15.5176 27.701C15.1849 27.4391 14.7141 27.432 14.3732 27.6835L13.372 28.4167L15.7304 13.75ZM23.9987 33.1164L22.8339 34.8333H19.3398L18.8535 33.4078L22.2533 31.4039L23.9987 33.1164ZM14.9146 29.5764L17.8359 31.868L17.2525 32.2118C16.8779 32.4329 16.7098 32.8796 16.8474 33.2869L17.371 34.8333H14V32.0833C14.0018 31.7342 13.8018 31.4142 13.4837 31.2584L12.9678 31.0055L14.9146 29.5764ZM7.46667 32.5739L9.40033 31.3077L12.1333 32.65V34.8333H7.46667V32.5739ZM4.24967 31.2902L5.75951 31.5874C5.65833 31.7338 5.60273 31.9061 5.6 32.0833V34.8333H5.24362L3.84362 32.0833L4.24967 31.2902ZM3.85 36.6667H24.15L23.9308 38.5H4.06921L3.85 36.6667ZM5.49655 50.4167L4.29342 40.3333H23.7161L22.5035 50.4167H22.2674C21.8486 48.7995 20.3656 47.6676 18.6667 47.6676C16.9677 47.6676 15.4848 48.7995 15.066 50.4167H12.934C12.5152 48.7995 11.0323 47.6676 9.33333 47.6676C7.63437 47.6676 6.15143 48.7995 5.73262 50.4167H5.49655ZM15.4615 53.1667H12.5385C12.7121 52.8802 12.8452 52.5718 12.934 52.25H15.066C15.1548 52.5718 15.2879 52.8802 15.4615 53.1667ZM7.46667 51.3333C7.46667 50.3209 8.30247 49.5 9.33333 49.5C10.3642 49.5 11.2 50.3209 11.2 51.3333C11.2 52.3458 10.3642 53.1667 9.33333 53.1667C8.30247 53.1667 7.46667 52.3458 7.46667 51.3333ZM28 53.1667V44H32.6667V45.8333H30.8V47.6667H32.6667V49.5H30.8V51.3333H32.6667V53.1667H28ZM46.6667 53.1667H42V47.6667H46.6667V53.1667ZM54.1333 53.1667H48.5333V46.75C48.5333 46.2438 48.1154 45.8333 47.6 45.8333H41.0667C40.5512 45.8333 40.1333 46.2438 40.1333 46.75V53.1667H34.5333V33.9167H54.1333V53.1667Z" fill="currentColor"/>
<path d="M41.0667 35.75H37.3334C36.8179 35.75 36.4 36.1604 36.4 36.6667V40.3333C36.4 40.8396 36.8179 41.25 37.3334 41.25H41.0667C41.5821 41.25 42 40.8396 42 40.3333V36.6667C42 36.1604 41.5821 35.75 41.0667 35.75ZM40.1334 39.4167H38.2667V37.5833H40.1334V39.4167Z" fill="currentColor"/>
<path d="M47.6001 41.25H51.3334C51.8488 41.25 52.2667 40.8396 52.2667 40.3333V36.6667C52.2667 36.1604 51.8488 35.75 51.3334 35.75H47.6001C47.0847 35.75 46.6667 36.1604 46.6667 36.6667V40.3333C46.6667 40.8396 47.0847 41.25 47.6001 41.25ZM48.5334 37.5833H50.4001V39.4167H48.5334V37.5833Z" fill="currentColor"/>
<path d="M42.9333 49.5H44.8V51.3333H42.9333V49.5Z" fill="currentColor"/>
<path d="M19.6 5.49996V7.33329H21.4666V6.41663H23.3333C23.8487 6.41663 24.2666 6.00619 24.2666 5.49996V3.66663H22.4V4.58329H20.5333C20.0179 4.58329 19.6 4.99373 19.6 5.49996Z" fill="currentColor"/>
<path d="M17.7332 5.5V3.66667H19.5999C20.1153 3.66667 20.5332 3.25623 20.5332 2.75V0H18.6666V1.83333H16.7999C16.2845 1.83333 15.8666 2.24377 15.8666 2.75V7.33333H17.7332V5.5Z" fill="currentColor"/>
<path d="M22.4 0H24.2667V1.83333H22.4V0Z" fill="currentColor"/>
</g>
<defs>
<clipPath id="clip0">
<rect width="56" height="55" fill="white"/>
</clipPath>
</defs>
</svg>
