<svg width="26" height="26" xmlns="http://www.w3.org/2000/svg">
  <path id="svg_1" fill="black" d="m17.9634,13.3825l-4.8644,-6.30419c-0.0366,-0.03915 -0.0731,-0.07831 -0.1097,-0.07831c-0.0366,0 -0.1097,0.03916 -0.1097,0.07831l-2.4505,3.17169c-0.0732,0.0783 -0.0366,0.1958 0.0365,0.2349c0.0732,0.0784 0.1829,0.0392 0.2195,-0.0391l1.6458,-2.11447l-2.1213,5.01207l-2.04815,0c-0.07315,0 -0.10973,0.0391 -0.1463,0.1174c-0.03657,0.0784 0,0.1175 0.03657,0.1958l4.82788,6.2651c0.0365,0.0391 0.0731,0.0783 0.1097,0.0783c0.0366,0 0.1097,-0.0392 0.1097,-0.0783l2.4139,-3.1717c0.0732,-0.0783 0.0366,-0.1958 -0.0365,-0.2349c-0.0732,-0.0784 -0.1829,-0.0392 -0.2195,0.0391l-1.6458,2.1145l2.1944,-5.0121l2.0482,0c0.0732,0 0.1463,-0.0783 0.1463,-0.1566c0,-0.0392 0,-0.0783 -0.0366,-0.1175zm-4.9741,-5.79515l2.4505,5.75605l-4.901,0l2.4505,-5.75605zm-4.49868,6.06925l1.71898,0l2.1213,5.0121l-3.84028,-5.0121zm4.49868,5.7561l-2.4505,-5.7169l4.901,0l-2.4505,5.7169zm2.8162,-6.0693l-2.1213,-5.01207l3.8403,5.01207l-1.719,0z"/>
  <path id="svg_2" fill="black" d="m13,2c-6.08099,0 -11,4.88985 -11,10.93478l1.16197,0c0,-5.39039 4.41549,-9.7797 9.83803,-9.7797c5.4225,0 9.838,4.38932 9.838,9.7797c0,5.39043 -4.4155,9.77965 -9.838,9.77965l0,1.15513c6.081,0 11,-4.88983 11,-10.93478c0,-6.04494 -4.919,-10.93478 -11,-10.93478z"/>
  <path id="svg_3" fill="#9E6B36" d="m20.29272,13.13047c0,4.2574 -3.34997,7.68697 -7.42316,7.68697c-4.11131,0 -7.42319,-3.46899 -7.42319,-7.68697c0,-4.2574 3.34995,-7.68697 7.42319,-7.68697l0,-1.18261c-4.72039,0 -8.56522,3.98146 -8.56522,8.86958c0,4.88813 3.84483,8.86958 8.56522,8.86958c4.7204,0 8.56522,-3.98146 8.56522,-8.86958l-1.14207,0z"/>
  <path id="svg_4" fill="#9E6B36" d="m22.2099,3.79009c-2.4635,-2.42566 -5.723,-3.79009 -9.2099,-3.79009l0,1.13703c6.5569,0 11.9009,5.30612 11.9009,11.86297c0,6.5569 -5.344,11.9009 -11.863,11.9009c-6.59475,0 -11.90087,-5.344 -11.90087,-11.9009l-1.13703,0l0,13l13,0c3.4869,0 6.7464,-1.3644 9.2099,-3.7901c2.4636,-2.4635 3.7901,-5.723 3.7901,-9.2099c0,-3.48688 -1.3644,-6.74636 -3.7901,-9.20991z"/>
  <path id="svg_5" fill="black" d="m13,0c3.4869,0 6.7464,1.36443 9.2099,3.79009c2.4636,2.46355 3.7901,5.72303 3.7901,9.20991l0,-13l-13,0z"/>s
</svg>