<svg width="26" height="26" viewBox="0 0 26 26" fill="none" xmlns="http://www.w3.org/2000/svg">
<path d="M17.9634 13.3825L13.099 7.07831C13.0624 7.03916 13.0259 7 12.9893 7C12.9527 7 12.8796 7.03916 12.8796 7.07831L10.4291 10.25C10.3559 10.3283 10.3925 10.4458 10.4656 10.4849C10.5388 10.5633 10.6485 10.5241 10.6851 10.4458L12.3309 8.33133L10.2096 13.3434H8.16145C8.0883 13.3434 8.05172 13.3825 8.01515 13.4608C7.97858 13.5392 8.01515 13.5783 8.05172 13.6566L12.8796 19.9217C12.9161 19.9608 12.9527 20 12.9893 20C13.0259 20 13.099 19.9608 13.099 19.9217L15.5129 16.75C15.5861 16.6717 15.5495 16.5542 15.4764 16.5151C15.4032 16.4367 15.2935 16.4759 15.2569 16.5542L13.6111 18.6687L15.8055 13.6566H17.8537C17.9269 13.6566 18 13.5783 18 13.5C18 13.4608 18 13.4217 17.9634 13.3825ZM12.9893 7.58735L15.4398 13.3434H10.5388L12.9893 7.58735ZM8.49062 13.6566H10.2096L12.3309 18.6687L8.49062 13.6566ZM12.9893 19.4127L10.5388 13.6958H15.4398L12.9893 19.4127ZM15.8055 13.3434L13.6842 8.33133L17.5245 13.3434H15.8055Z" fill="black"/>
<path d="M13 2C6.91901 2 2 6.69542 2 12.5H3.16197C3.16197 7.32394 7.57746 3.10915 13 3.10915C18.4225 3.10915 22.838 7.32394 22.838 12.5C22.838 17.6761 18.4225 21.8908 13 21.8908V23C19.081 23 24 18.3046 24 12.5C24 6.69542 19.081 2 13 2Z" fill="black"/>
<path d="M19.9333 12C19.9333 16.32 16.8044 19.8 13 19.8C9.16 19.8 6.06667 16.28 6.06667 12C6.06667 7.68 9.19556 4.2 13 4.2V3C8.59111 3 5 7.04 5 12C5 16.96 8.59111 21 13 21C17.4089 21 21 16.96 21 12H19.9333Z" fill="#9E6B36"/>
<path d="M22.2099 3.79009C19.7464 1.36443 16.4869 0 13 0V1.13703C19.5569 1.13703 24.9009 6.44315 24.9009 13C24.9009 19.5569 19.5569 24.9009 13.0379 24.9009C6.44315 24.9009 1.13703 19.5569 1.13703 13H0V26H13C16.4869 26 19.7464 24.6356 22.2099 22.2099C24.6735 19.7464 26 16.4869 26 13C26 9.51312 24.6356 6.25364 22.2099 3.79009Z" fill="#9E6B36"/>
<path d="M13 0C16.4869 0 19.7464 1.36443 22.2099 3.79009C24.6735 6.25364 26 9.51312 26 13V0H13Z" fill="black"/>
</svg>
