<svg id="metallurgy" width="61" height="60" viewBox="0 0 61 60" fill="none" xmlns="http://www.w3.org/2000/svg">
<g clip-path="url(#clip0)">
<path d="M60.1065 40.008C60.6001 40.008 61.0001 39.6145 61.0001 39.1291V31.4661C61.0001 20.3557 51.8104 11.3168 40.5149 11.3168H31.3659L22.3372 2.43623C21.6794 1.78923 20.8049 1.43286 19.8746 1.43286C18.9444 1.43286 18.0699 1.78923 17.4121 2.43623C16.7543 3.08323 16.392 3.94339 16.392 4.8584C16.392 5.45067 16.5446 6.01962 16.8301 6.52306C12.9759 9.68328 9.24019 13.0379 5.71956 16.5084C2.26147 19.917 0.237139 24.4459 0.0194674 29.2609C-0.196655 34.0448 1.38137 38.7031 4.46297 42.3779C4.63966 42.5886 4.89522 42.6976 5.1528 42.6976C5.35296 42.6976 5.55443 42.6317 5.72087 42.4967C6.10152 42.1878 6.15562 41.6339 5.84156 41.2595C3.04209 37.9208 1.60846 33.6873 1.80504 29.3389C2.00282 24.9631 3.84236 20.8475 6.98472 17.7501C10.4737 14.3107 14.1761 10.9864 17.9964 7.85514L42.4579 31.9157C39.2826 35.6651 35.9032 39.3069 32.3993 42.7467C29.2078 45.8789 24.9662 47.6906 20.4556 47.8481C15.9686 48.0055 11.6285 46.5164 8.23714 43.6567C7.86244 43.3409 7.29842 43.3834 6.97722 43.7519C6.65601 44.1205 6.69926 44.6753 7.07408 44.9912C10.6284 47.9885 15.1273 49.6173 19.812 49.6173C20.047 49.6173 20.2832 49.6132 20.5191 49.605C25.4822 49.4316 30.1497 47.4379 33.6617 43.9911C37.1977 40.5198 40.608 36.8451 43.8133 33.0619C44.3375 33.3482 44.9211 33.4923 45.505 33.4923C46.0901 33.4923 46.6749 33.3476 47.2 33.0601V52.1606C47.2 52.9676 47.5197 53.7255 48.0982 54.2929C48.6769 54.8639 49.4475 55.1782 50.2679 55.1782C51.9589 55.1782 53.3346 53.8245 53.3346 52.1606V45.1574C53.3346 44.9245 53.4265 44.7061 53.5958 44.5403C53.7621 44.376 53.9846 44.2855 54.2222 44.2855C54.711 44.2855 55.1085 44.6766 55.1085 45.1574V55.6704C55.1085 56.4429 55.4142 57.17 55.9717 57.7202C56.5289 58.2664 57.2683 58.5673 58.0537 58.5673C59.6784 58.5673 61.0001 57.2678 61.0001 55.6704V42.6449C61.0001 42.1595 60.6001 41.766 60.1065 41.766C59.6129 41.766 59.2129 42.1595 59.2129 42.6449V55.6704C59.2129 56.2985 58.6929 56.8094 58.0537 56.8094C57.7445 56.8094 57.4532 56.6907 57.2355 56.4773C57.0163 56.261 56.8956 55.9743 56.8956 55.6704V45.1574C56.8956 43.7073 55.6963 42.5277 54.2222 42.5277C53.506 42.5277 52.8341 42.8018 52.3321 43.2973C51.8262 43.7932 51.5475 44.4538 51.5475 45.1574V52.1606C51.5475 52.8553 50.9735 53.4203 50.2679 53.4203C49.9258 53.4203 49.6048 53.2894 49.3619 53.0499C49.1203 52.813 48.9871 52.4971 48.9871 52.1606V30.0752C48.9871 30.0718 48.9862 30.0693 48.9859 30.0659C48.9853 29.1895 48.6459 28.3134 47.9676 27.6463L33.153 13.0746H40.5149C50.825 13.0746 59.2129 21.325 59.2129 31.4661V39.1291C59.2129 39.6145 59.6129 40.008 60.1065 40.008ZM46.7038 31.2477C46.0427 31.898 44.9672 31.898 44.3061 31.2477L18.6757 6.03755C18.0147 5.38727 18.0147 4.32929 18.6757 3.67913C19.0062 3.35405 19.4404 3.19151 19.8746 3.19151C20.3088 3.19151 20.743 3.35405 21.0736 3.67913L46.7038 28.8892C47.3649 29.5393 47.3649 30.5974 46.7038 31.2477Z" fill="#9E6B36"/>
</g>
<defs>
<clipPath id="clip0">
<rect width="61" height="60" fill="white"/>
</clipPath>
</defs>
</svg>
