<svg id="mining" width="60" height="60" viewBox="0 0 60 60" fill="none" xmlns="http://www.w3.org/2000/svg">
<g clip-path="url(#clip0)">
<path d="M47.5767 12.1193C47.5767 13.8918 49.0187 15.3337 50.7911 15.3337C52.5636 15.3337 54.006 13.8918 54.006 12.1193C54.006 10.3469 52.5636 8.90491 50.7911 8.90491C49.0187 8.90491 47.5767 10.3469 47.5767 12.1193ZM52.2477 12.1193C52.2477 12.9227 51.5945 13.5759 50.7911 13.5759C49.9878 13.5759 49.3341 12.9227 49.3341 12.1193C49.3341 11.3159 49.9878 10.6627 50.7911 10.6627C51.5945 10.6627 52.2477 11.3159 52.2477 12.1193Z" fill="#9E6B36"/>
<path d="M6.17382 21.7447L5.76961 21.8426C5.29766 21.9566 5.00744 22.4313 5.12142 22.9028C5.21846 23.3056 5.57827 23.5762 5.97469 23.5762C6.04335 23.5762 6.11248 23.5679 6.1816 23.5515L6.58626 23.4535C7.05822 23.34 7.34844 22.8653 7.23446 22.3933C7.12047 21.9214 6.64577 21.6316 6.17382 21.7447Z" fill="#9E6B36"/>
<path d="M57.2832 14.2534C57.7689 14.2534 58.1621 13.8602 58.1621 13.3745V5.56137C58.1621 5.28259 58.0298 5.02075 57.806 4.85458L51.314 0.0553819C51.0031 -0.174873 50.5792 -0.174873 50.2689 0.0553819L43.7769 4.85458C43.5526 5.02075 43.4203 5.28259 43.4203 5.56137V7.59521L14.5248 15.9219C14.0584 16.0561 13.7892 16.5431 13.9238 17.0096C14.0579 17.476 14.5454 17.7447 15.0115 17.6111L43.4203 9.42443V14.333C32.6564 17.4348 11.8771 23.4224 6.64582 24.9303C5.39658 25.2901 4.08692 24.5663 3.72666 23.3171C3.55271 22.7115 3.62412 22.0747 3.92899 21.5231C4.2334 20.972 4.73465 20.5724 5.33982 20.3979L12.0529 18.4634C12.5194 18.3289 12.7886 17.8418 12.654 17.3753C12.5198 16.9089 12.0323 16.6402 11.5663 16.7743L4.85321 18.7088C3.79669 19.0132 2.92237 19.7108 2.39044 20.6731C1.85852 21.6353 1.73355 22.7472 2.03797 23.8037C2.55707 25.605 4.20685 26.7805 5.99488 26.7801C5.99991 26.7801 6.00541 26.7796 6.01044 26.7796V59.0039C6.01044 59.4891 6.40412 59.8828 6.88935 59.8828C7.37458 59.8828 7.76825 59.4891 7.76825 59.0039V26.4359L24.5082 21.6119L20.0533 58.125H15.883C15.3978 58.125 15.0041 58.5182 15.0041 59.0039C15.0041 59.4896 15.3978 59.8828 15.883 59.8828H48.5614C49.0471 59.8828 49.4403 59.4896 49.4403 59.0039C49.4403 58.5182 49.0471 58.125 48.5614 58.125H44.3912L39.4121 17.3177L43.4203 16.1623V18.6768C43.4203 18.9555 43.5526 19.2178 43.7769 19.3835L49.9123 23.92V30.0545H48.4557C47.97 30.0545 47.5768 30.4482 47.5768 30.9334V39.5361C47.5768 40.0214 47.97 40.415 48.4557 40.415H53.1267C53.6124 40.415 54.0056 40.0214 54.0056 39.5361V30.9334C54.0056 30.4482 53.6124 30.0545 53.1267 30.0545H51.6701V23.92L57.806 19.3835C58.0298 19.2178 58.1621 18.9555 58.1621 18.6768V16.333C58.1621 15.8478 57.7689 15.4541 57.2832 15.4541C56.7975 15.4541 56.4043 15.8478 56.4043 16.333V18.2336L50.7912 22.3837L45.1781 18.2336V6.00494L50.7912 1.85485L56.4043 6.00494V13.3745C56.4043 13.8602 56.798 14.2534 57.2832 14.2534ZM26.4107 29.702L32.222 23.8495L38.0338 29.702H26.4107ZM37.6598 31.4598L32.222 35.8557L26.7847 31.4598H37.6598ZM24.9797 32.2614L30.824 36.9859L23.7007 42.7446L24.9797 32.2614ZM25.0507 43.9133L32.222 38.1157L39.3938 43.9133H25.0507ZM39.0065 45.6711L32.222 50.2519L25.4375 45.6711H39.0065ZM23.2636 46.3243L30.6514 51.3126L21.937 57.1967L23.2636 46.3243ZM32.222 52.3732L40.7405 58.125H23.7035L32.222 52.3732ZM33.7926 51.3126L41.1804 46.3248L42.507 57.1967L33.7926 51.3126ZM33.62 36.9859L39.4647 32.2614L40.7437 42.7446L33.62 36.9859ZM33.4607 22.6021L37.7577 18.2744L38.9621 28.1424L33.4607 22.6021ZM34.9558 18.6017L32.222 21.3547L30.7045 19.8267L34.9558 18.6017ZM28.7787 20.3815L30.9837 22.6021L25.4823 28.1424L26.3439 21.0832L28.7787 20.3815ZM52.2478 38.6572H49.3346V31.8123H52.2478V38.6572Z" fill="currentColor"/>
</g>
<defs>
<clipPath id="clip0">
<rect width="60" height="60" fill="white"/>
</clipPath>
</defs>
</svg>
