<svg id="petrol" width="60" height="56" viewBox="0 0 60 56" fill="none" xmlns="http://www.w3.org/2000/svg">
<path d="M59.9999 37.4171C59.9999 36.0128 59.789 34.626 59.373 33.2956C59.2283 32.8322 58.7355 32.574 58.2719 32.719C57.8086 32.8638 57.5504 33.3569 57.6953 33.8202C58.0581 34.9806 58.242 36.1909 58.242 37.4171C58.242 43.0796 54.2559 47.9625 48.8186 49.1689V45.8195C48.8186 44.8623 48.0399 44.0836 47.0827 44.0836H45.4255C44.4683 44.0836 43.6896 44.8623 43.6896 45.8195V49.1921C38.1935 48.0265 34.1625 43.132 34.1625 37.417C34.1625 32.5542 37.0408 28.2214 41.5084 26.3295H50.896C53.0311 27.2341 54.8501 28.725 56.1622 30.6526C56.3324 30.9025 56.6086 31.037 56.8897 31.037C57.0599 31.037 57.2321 30.9877 57.3835 30.8845C57.7848 30.6113 57.8886 30.0646 57.6155 29.6633C56.7275 28.3588 55.6359 27.2295 54.3877 26.3089C55.565 26.1619 56.4796 25.1568 56.4796 23.9403V22.8022C56.4796 21.485 55.4078 20.4132 54.0906 20.4132H44.1117C43.6262 20.4132 43.2327 20.8068 43.2327 21.2922C43.2327 21.7776 43.6262 22.1711 44.1117 22.1711H54.0906C54.4385 22.1711 54.7217 22.4543 54.7217 22.8022V23.9403C54.7217 24.2883 54.4385 24.5714 54.0906 24.5714H51.0715C51.0682 24.5714 51.065 24.5714 51.0618 24.5714H41.342C41.3395 24.5714 41.337 24.5714 41.3345 24.5714H38.3139C37.966 24.5714 37.6828 24.2883 37.6828 23.9403V22.8022C37.6828 22.4543 37.966 22.1711 38.3139 22.1711H40.3659C40.8514 22.1711 41.2449 21.7776 41.2449 21.2922C41.2449 20.8068 40.8514 20.4132 40.3659 20.4132H38.3139C36.9966 20.4132 35.9249 21.485 35.9249 22.8022V23.9403C35.9249 25.1549 36.8367 26.1586 38.0113 26.308C34.5284 28.8667 32.4047 32.9461 32.4047 37.4169C32.4047 39.9018 33.0699 42.2516 34.2394 44.2842V53.7412C34.2394 54.6773 35.0009 55.4388 35.9368 55.4388H37.6706C38.6067 55.4388 39.3682 54.6773 39.3682 53.7412V49.4047C40.6837 50.1574 42.1385 50.7 43.6896 50.9852V53.703C43.6896 54.6601 44.4683 55.4389 45.4255 55.4389H47.0827C48.0399 55.4389 48.8186 54.6601 48.8186 53.703V50.965C50.3303 50.6744 51.7497 50.1377 53.0363 49.3997V53.7413C53.0363 54.6774 53.7978 55.4389 54.7338 55.4389H56.4675C57.4036 55.4389 58.1651 54.6774 58.1651 53.7413V44.2725C59.3345 42.2403 59.9999 39.8937 59.9999 37.4171ZM37.6104 53.6811H35.9973V46.6958C36.4933 47.2419 37.0324 47.7489 37.6104 48.2105V53.6811ZM47.0607 53.6811H45.4476V45.8416H47.0607V53.6811ZM56.4073 53.6811H54.7942V48.2022C55.372 47.7399 55.9113 47.2324 56.4073 46.6857V53.6811Z" fill="#9E6B36"/>
<path d="M32.4032 45.4545H27.125V40.6362H29.9352C30.4207 40.6362 30.8142 40.2427 30.8142 39.7573C30.8142 39.2718 30.4207 38.8783 29.9352 38.8783H27.125V29.6177H32.2459C32.7315 29.6177 33.1249 29.2242 33.1249 28.7388C33.1249 28.2533 32.7315 27.8598 32.2459 27.8598H27.125V23.0415H33.3302C33.8158 23.0415 34.2092 22.648 34.2092 22.1625C34.2092 21.6771 33.8158 21.2836 33.3302 21.2836H27.125V17.1525C27.125 15.2945 28.6365 13.7829 30.4947 13.7829H34.681C36.5391 13.7829 38.0506 15.2945 38.0506 17.1525V17.7767C38.0506 18.2622 38.4441 18.6557 38.9296 18.6557C39.4152 18.6557 39.8086 18.2622 39.8086 17.7767V17.1525C39.8086 14.6975 38.0739 12.641 35.7662 12.1416V10.6288C35.7662 9.60866 34.9362 8.77868 33.916 8.77868H33.4669V7.78169C33.4669 3.80009 30.2276 0.560913 26.2461 0.560913C23.5132 0.560913 21.1303 2.08715 19.9044 4.33192C18.6784 2.08715 16.2955 0.560913 13.5626 0.560913C9.5811 0.560913 6.34193 3.80009 6.34193 7.78169V8.77868H5.89272C4.87265 8.77868 4.04267 9.60866 4.04267 10.6288V12.1416C1.73473 12.6409 0 14.6974 0 17.1525V32.6654C0 33.1508 0.393426 33.5444 0.878968 33.5444C1.36451 33.5444 1.75794 33.1508 1.75794 32.6654V29.6177H12.6835V38.8783H1.75794V36.4113C1.75794 35.9259 1.36451 35.5324 0.878968 35.5324C0.393426 35.5324 0 35.9259 0 36.4113V54.56C0 55.0454 0.393426 55.439 0.878968 55.439C1.36451 55.439 1.75794 55.0454 1.75794 54.56V47.2125H12.6835V54.56C12.6835 55.0454 13.0769 55.439 13.5625 55.439C14.048 55.439 14.4414 55.0454 14.4414 54.56V47.2125H25.3671V54.56C25.3671 55.0454 25.7606 55.439 26.2461 55.439C26.7316 55.439 27.1251 55.0454 27.1251 54.56V47.2125H32.4033C32.8889 47.2125 33.2823 46.819 33.2823 46.3336C33.2823 45.8482 32.8888 45.4545 32.4032 45.4545ZM21.2325 10.5366C21.2833 10.5366 21.3246 10.578 21.3246 10.6288V12.025H18.484V10.6288C18.484 10.578 18.5254 10.5366 18.5761 10.5366H21.2325ZM17.8112 13.7829H21.9975C23.8555 13.7829 25.3671 15.2945 25.3671 17.1525V21.2836H14.4414V17.1525C14.4414 15.2945 15.953 13.7829 17.8112 13.7829ZM14.4414 23.0415H25.3671V27.8598H14.4414V23.0415ZM25.367 29.6177V38.8783H14.4413V29.6177H25.367ZM34.0082 10.6288V12.025H31.1675V10.6288C31.1675 10.578 31.209 10.5366 31.2597 10.5366H33.916C33.9667 10.5366 34.0082 10.578 34.0082 10.6288ZM26.246 2.31885C29.2583 2.31885 31.7088 4.76953 31.7088 7.78169V8.77868H31.2596C30.2394 8.77868 29.4095 9.60866 29.4095 10.6288V12.1416C28.0996 12.425 26.9741 13.2095 26.246 14.2848C25.5179 13.2095 24.3924 12.425 23.0825 12.1416V10.6288C23.0825 9.60866 22.2525 8.77868 21.2325 8.77868H20.7833V7.78169C20.7833 4.76953 23.2338 2.31885 26.246 2.31885ZM8.09963 7.78169C8.09963 4.76953 10.5502 2.31885 13.5624 2.31885C16.5746 2.31885 19.0252 4.76953 19.0252 7.78169V8.77868H18.576C17.5559 8.77868 16.7259 9.60866 16.7259 10.6288V12.1416C15.416 12.425 14.2905 13.2095 13.5624 14.2848C12.8342 13.2095 11.7088 12.425 10.3989 12.1416V10.6288C10.3989 9.60866 9.56892 8.77868 8.54884 8.77868H8.09963V7.78169ZM5.89249 10.5366H8.54884C8.59971 10.5366 8.64096 10.578 8.64096 10.6288V12.025H5.80037V10.6288C5.80037 10.578 5.84174 10.5366 5.89249 10.5366ZM5.12755 13.7829H9.3139C11.1719 13.7829 12.6835 15.2945 12.6835 17.1525V21.2836H1.75794V17.1525C1.75794 15.2945 3.26953 13.7829 5.12755 13.7829ZM1.75794 23.0415H12.6835V27.8598H1.75794V23.0415ZM1.75794 40.6362H12.6835V45.4545H1.75794V40.6362ZM14.4414 40.6362H25.3671V45.4545H14.4414V40.6362Z" fill="#9E6B36"/>
</svg>
