<svg id="quality" width="61" height="60" viewBox="0 0 61 60" fill="none" xmlns="http://www.w3.org/2000/svg">
<path d="M52.0667 8.78672C46.306 3.12059 38.6468 0 30.5 0C22.3532 0 14.694 3.12059 8.93328 8.78672C3.17248 14.4531 0 21.9867 0 30C0 37.869 3.07478 45.3054 8.65819 50.9392C9.0025 51.2866 9.5683 51.2939 9.92167 50.955C10.275 50.6162 10.2822 50.0598 9.93776 49.7122C4.68175 44.4086 1.78699 37.408 1.78699 30C1.78699 22.4562 4.77373 15.364 10.1969 10.0296C15.6201 4.69535 22.8306 1.7577 30.5 1.7577C38.1694 1.7577 45.3799 4.69535 50.8031 10.0296C56.2263 15.3639 59.213 22.4562 59.213 30C59.213 37.5438 56.2263 44.636 50.8031 49.9704C45.3799 55.3046 38.1694 58.2423 30.5 58.2423C24.0758 58.2423 18.0024 56.2027 12.9362 52.3439C12.546 52.0467 11.9847 52.1168 11.6827 52.5007C11.3806 52.8845 11.4519 53.4364 11.8421 53.7336C17.2243 57.8331 23.6761 60 30.5 60C38.6468 60 46.306 56.8794 52.0667 51.2133C57.8275 45.5469 61 38.0133 61 30C61 21.9867 57.8275 14.4531 52.0667 8.78672Z" fill="currentColor"/>
<path d="M9.5657 29.9999C9.5657 41.3539 18.9568 50.5911 30.5 50.5911C42.0432 50.5911 51.4343 41.3539 51.4343 29.9999C51.4343 26.7718 50.6728 23.7161 49.3207 20.994L49.9087 20.3351C51.6496 18.3883 51.4559 15.4112 49.4765 13.6986C47.6708 12.1364 44.9936 12.159 43.2154 13.6538C39.688 10.9927 35.2788 9.40881 30.5 9.40881C18.9568 9.40881 9.5657 18.646 9.5657 29.9999ZM30.5 11.1666C34.8098 11.1666 38.7904 12.5758 41.9938 14.9485L37.2217 20.2972C36.8962 20.662 36.9329 21.2172 37.3038 21.5374C37.6749 21.8575 38.2393 21.8213 38.5646 21.4565L44.0712 15.2847C45.1613 14.0655 47.0568 13.9463 48.2962 15.0185C49.5356 16.0908 49.6569 17.9551 48.5661 19.1749L31.2373 38.5901C30.6692 39.2255 29.8499 39.5899 28.9897 39.5899H28.9704C28.1028 39.5845 27.2813 39.2097 26.7166 38.5617L18.9308 29.6271C18.4103 29.03 18.1576 28.2692 18.219 27.485C18.2804 26.7008 18.6484 25.987 19.2558 25.4751C19.8627 24.9633 20.6357 24.7143 21.4333 24.775C22.2306 24.8354 22.9563 25.1975 23.4767 25.7947L28.3491 31.386C28.5176 31.5795 28.7633 31.6914 29.0222 31.693C29.2863 31.6925 29.5282 31.5854 29.6989 31.3938L35.8219 24.5309C36.1474 24.1661 36.1107 23.6109 35.7398 23.2907C35.3688 22.9706 34.8045 23.0068 34.479 23.3716L29.0354 29.4727L24.8335 24.6507C24.0024 23.6971 22.8436 23.1188 21.5704 23.0225C20.2974 22.9263 19.0619 23.3232 18.0926 24.1407C17.123 24.9581 16.5352 26.098 16.4371 27.3502C16.3392 28.6026 16.7429 29.8174 17.574 30.771L25.3598 39.7056C26.2616 40.7404 27.5735 41.3389 28.9585 41.3477H28.9897C30.3635 41.3477 31.6718 40.7657 32.5796 39.7505L48.0341 22.4355C49.0711 24.7518 49.6472 27.311 49.6472 30.0001C49.6472 40.3848 41.0579 48.8334 30.5 48.8334C19.9421 48.8334 11.3528 40.3846 11.3528 29.9999C11.3528 19.6153 19.9421 11.1666 30.5 11.1666Z" fill="currentColor"/>
<path d="M30.5 6.79846C30.9935 6.79846 31.3936 6.40496 31.3936 5.91956C31.3936 5.43415 30.9935 5.04065 30.5 5.04065C30.0065 5.04065 29.6064 5.43415 29.6064 5.91956C29.6064 6.40496 30.0065 6.79846 30.5 6.79846Z" fill="currentColor"/>
<path d="M30.5 54.9592C30.9935 54.9592 31.3936 54.5657 31.3936 54.0803C31.3936 53.5949 30.9935 53.2014 30.5 53.2014C30.0065 53.2014 29.6064 53.5949 29.6064 54.0803C29.6064 54.5657 30.0065 54.9592 30.5 54.9592Z" fill="currentColor"/>
<path d="M18.706 9.90677C19.1334 9.66407 19.2798 9.12665 19.0331 8.70618C18.7863 8.28582 18.24 8.1418 17.8126 8.3845C17.3852 8.62719 17.2388 9.16462 17.4856 9.58508C17.7322 10.0054 18.2787 10.1495 18.706 9.90677Z" fill="currentColor"/>
<path d="M42.294 50.0932C41.8666 50.3359 41.7202 50.8734 41.9669 51.2938C42.2137 51.7142 42.76 51.8582 43.1874 51.6155C43.6148 51.3728 43.7612 50.8354 43.5144 50.4149C43.2678 49.9946 42.7213 49.8505 42.294 50.0932Z" fill="currentColor"/>
<path d="M9.74488 17.1987C9.31752 16.956 8.77102 17.1 8.52428 17.5204C8.27754 17.9407 8.42396 18.4783 8.85132 18.7209C9.27868 18.9635 9.82518 18.8195 10.0719 18.3992C10.3187 17.9788 10.1722 17.4414 9.74488 17.1987Z" fill="currentColor"/>
<path d="M51.2551 42.8013C51.6824 43.044 52.2289 42.9 52.4757 42.4796C52.7224 42.0593 52.576 41.5217 52.1486 41.2791C51.7213 41.0365 51.1748 41.1805 50.928 41.6008C50.6813 42.0212 50.8277 42.5586 51.2551 42.8013Z" fill="currentColor"/>
<path d="M5.12469 30C5.12469 30.4854 5.52477 30.8789 6.01825 30.8789C6.51173 30.8789 6.9118 30.4854 6.9118 30C6.9118 29.5146 6.51173 29.1211 6.01825 29.1211C5.52477 29.1211 5.12469 29.5146 5.12469 30Z" fill="currentColor"/>
<path d="M54.9818 30.8789C55.4753 30.8789 55.8753 30.4854 55.8753 30C55.8753 29.5146 55.4753 29.1211 54.9818 29.1211C54.4883 29.1211 54.0882 29.5146 54.0882 30C54.0882 30.4854 54.4883 30.8789 54.9818 30.8789Z" fill="currentColor"/>
<path d="M8.52446 42.4796C8.7712 42.9 9.3177 43.044 9.74506 42.8013C10.1724 42.5586 10.3188 42.0211 10.0721 41.6007C9.82536 41.1804 9.27886 41.0363 8.8515 41.279C8.42415 41.5217 8.27772 42.0593 8.52446 42.4796Z" fill="currentColor"/>
<path d="M17.4853 50.4149C17.2386 50.8353 17.385 51.3728 17.8124 51.6155C18.2397 51.8582 18.7862 51.7142 19.0329 51.2938C19.2796 50.8735 19.1332 50.3359 18.7058 50.0932C18.2785 49.8505 17.7321 49.9946 17.4853 50.4149Z" fill="currentColor"/>
<path d="M43.5146 9.58508C43.7613 9.16473 43.6149 8.62719 43.1875 8.3845C42.7602 8.1418 42.2137 8.28582 41.9671 8.70618C41.7203 9.12653 41.8667 9.66407 42.2941 9.90677C42.7215 10.1495 43.2678 10.0054 43.5146 9.58508Z" fill="currentColor"/>
</svg>
