<svg width="13" height="9" viewBox="0 0 13 9" fill="none" xmlns="http://www.w3.org/2000/svg">
<path d="M12.7267 1.40806C12.579 0.856452 12.1358 0.420968 11.5744 0.268548C10.5625 5.19137e-08 6.5 0 6.5 0C6.5 0 2.4375 5.19137e-08 1.41818 0.268548C0.856818 0.41371 0.421023 0.849194 0.265909 1.40806C3.52209e-08 2.40968 0 4.5 0 4.5C0 4.5 -1.76105e-08 6.59032 0.273295 7.59194C0.421023 8.14355 0.864204 8.57903 1.42557 8.73145C2.4375 9 6.5 9 6.5 9C6.5 9 10.5625 9 11.5818 8.73145C12.1432 8.58629 12.579 8.15081 12.7341 7.59194C13 6.59032 13 4.5 13 4.5C13 4.5 13 2.40968 12.7267 1.40806Z" fill="white"/>
</svg>
