<svg width="435" height="443" viewBox="0 0 435 443" fill="none" xmlns="http://www.w3.org/2000/svg">
<path fill-rule="evenodd" clip-rule="evenodd" d="M218.002 0.000573371C276.151 0.133332 330.49 23.3154 371.589 64.4362C412.172 106.32 435 161.735 435 221.016C435 280.297 412.806 335.713 371.589 377.596C330.372 418.835 275.838 442.032 217.5 442.032H0V221.016H19.0233C19.0233 332.491 107.799 423.346 218.134 423.346C327.201 423.346 416.611 332.491 416.611 221.016C416.611 109.542 327.201 19.088 217.5 19.088V19.0878H0V0H217.5H218.002V0.000573371Z" fill="white" fill-opacity="0.3"/>
    <path transform="translate(40,35)" opacity="0.2" d="M178 0C79.5986 0 0 80.7165 0 180.5H18.8028C18.8028 91.5211 90.2535 19.0669 178 19.0669C265.746 19.0669 337.197 91.5211 337.197 180.5C337.197 269.479 265.746 341.933 178 341.933V361C276.401 361 356 280.283 356 180.5C356 80.7165 276.401 0 178 0Z" fill="white"/>
    <path transform="translate(75,75)" opacity="0.2" d="M263.2 143.5C263.2 212.38 208.053 267.867 141 267.867C73.32 267.867 18.8 211.742 18.8 143.5C18.8 74.62 73.9467 19.1333 141 19.1333V0C63.2933 0 0 64.4156 0 143.5C0 222.584 63.2933 287 141 287C218.707 287 282 222.584 282 143.5H263.2Z" fill="#FAFAFA"/>
</svg>
