<svg id="views" width="12" height="10" viewBox="0 0 12 10" fill="none" xmlns="http://www.w3.org/2000/svg">
<path d="M6 0.824219C3.70727 0.824219 1.62811 2.28605 0.0938938 4.66046C-0.0312979 4.85499 -0.0312979 5.12676 0.0938938 5.32129C1.62811 7.69855 3.70727 9.16038 6 9.16038C8.29273 9.16038 10.3719 7.69855 11.9061 5.32415C12.0313 5.12962 12.0313 4.85785 11.9061 4.66332C10.3719 2.28605 8.29273 0.824219 6 0.824219ZM6.16447 7.92741C4.64253 8.03898 3.3857 6.57715 3.48144 4.80063C3.55999 3.33594 4.57871 2.14874 5.83553 2.05719C7.35747 1.94562 8.6143 3.40746 8.51856 5.18397C8.43756 6.6458 7.41884 7.833 6.16447 7.92741ZM6.08837 6.57142C5.26849 6.6315 4.59098 5.8448 4.64498 4.88932C4.68671 4.09975 5.23658 3.46181 5.91408 3.41032C6.73397 3.35024 7.41148 4.13694 7.35747 5.09243C7.31329 5.88485 6.76342 6.52279 6.08837 6.57142Z" fill="#A8A8A8"/>
</svg>
