<svg width="13" height="8" viewBox="0 0 13 8" fill="none" xmlns="http://www.w3.org/2000/svg">
<path fill-rule="evenodd" clip-rule="evenodd" d="M6.35402 7.958H7.13091C7.13091 7.958 7.36559 7.93179 7.48698 7.79206C7.60028 7.66107 7.59219 7.42528 7.59219 7.42528C7.59219 7.42528 7.576 6.29873 8.06156 6.1328C8.53902 5.96687 9.15406 7.22442 9.80147 7.70473C10.2951 8.07152 10.6674 7.99293 10.6674 7.99293L12.4073 7.96672C12.4073 7.96672 13.3137 7.90559 12.8848 7.13709C12.8524 7.07596 12.6339 6.56945 11.5899 5.52149C10.4974 4.42986 10.6431 4.60453 11.9622 2.7182C12.7634 1.56544 13.079 0.86679 12.9819 0.561135C12.8848 0.272945 12.3021 0.35154 12.3021 0.35154L10.3437 0.369013C10.3437 0.369013 10.198 0.351545 10.0928 0.421409C9.9876 0.491273 9.92286 0.648465 9.92286 0.648465C9.92286 0.648465 9.61534 1.53923 9.20261 2.29901C8.32861 3.89715 7.98063 3.98448 7.84306 3.87968C7.51126 3.65262 7.59219 2.95399 7.59219 2.45621C7.59219 0.910462 7.81069 0.264219 7.17137 0.0982916C6.96096 0.0458935 6.79911 0.00221989 6.25691 0.00221989C5.56094 -0.00651312 4.97018 0.00222842 4.63029 0.185622C4.4037 0.299151 4.23375 0.569874 4.33896 0.578607C4.46844 0.596073 4.75977 0.665935 4.91353 0.892994C5.11585 1.18992 5.10775 1.84489 5.10775 1.84489C5.10775 1.84489 5.22105 3.67009 4.8407 3.89715C4.57364 4.05435 4.21757 3.73123 3.44067 2.28154C3.04414 1.53924 2.74471 0.718333 2.74471 0.718333C2.74471 0.718333 2.68806 0.561133 2.58286 0.482536C2.46147 0.386472 2.28343 0.35154 2.28343 0.35154L0.422131 0.360282C0.422131 0.360282 0.138888 0.369013 0.0417769 0.500008C-0.0472419 0.613537 0.0336838 0.858059 0.0336838 0.858059C0.0336838 0.858059 1.49036 4.53466 3.14125 6.38606C4.63838 8.0628 6.35402 7.958 6.35402 7.958Z" fill="white"/>
</svg>
